<svg width="49" height="50" viewBox="0 0 49 50" fill="none" xmlns="http://www.w3.org/2000/svg">
<g clip-path="url(#clip0)">
<path d="M17.5398 19.7746V17.1399H31.5182V19.7746H25.9226V34.8748H23.1353V19.7746H17.5398Z" fill="#262627"/>
<path fill-rule="evenodd" clip-rule="evenodd" d="M23.2765 0.0103931C30.0117 -0.159381 35.2029 1.73549 40.3394 6.8242C45.4457 11.883 48.8665 18.4488 48.9769 25.4553C49.0882 32.5133 45.692 36.933 40.8811 41.7624C36.0709 46.5911 31.6081 50.0593 24.5291 49.9992C17.497 49.9395 10.7053 46.3127 5.83652 41.4729C3.39432 39.0452 1.88682 36.7633 1.01852 34.2244C0.152892 31.6933 -0.0639431 28.945 0.0150747 25.6113C0.174032 18.9052 1.94691 12.8099 6.6027 7.67572C11.2497 2.55135 16.538 0.18025 23.2765 0.0103931ZM39.6212 7.54911C34.687 2.66089 29.7667 0.867528 23.3022 1.03048C16.841 1.19335 11.817 3.44463 7.35859 8.36119C2.90891 13.2681 1.19 19.1047 1.03519 25.6355C0.957335 28.9203 1.17528 31.5294 1.98402 33.8942C2.79009 36.2511 4.19657 38.4039 6.5559 40.7492C11.2903 45.4554 17.8405 48.922 24.5378 48.9789C31.1881 49.0353 35.3953 45.8235 40.1583 41.0422C44.9204 36.2617 48.0611 32.0997 47.9566 25.4714C47.8513 18.7918 44.5857 12.4673 39.6212 7.54911Z" fill="#262627"/>
</g>
<defs>
<clipPath id="clip0">
<rect width="48.9796" height="50" fill="white"/>
</clipPath>
</defs>
</svg>
