<svg width="48" height="48" viewBox="0 0 48 48" fill="none" xmlns="http://www.w3.org/2000/svg">
<path fill-rule="evenodd" clip-rule="evenodd" d="M24 44C35.0457 44 44 35.0457 44 24C44 12.9543 35.0457 4 24 4C12.9543 4 4 12.9543 4 24C4 35.0457 12.9543 44 24 44ZM28.8083 22.2042C28.8502 21.5673 28.8924 20.9249 29 20.2719C28.5683 20.2719 28.2068 20.2719 27.8454 20.2623C27.7186 20.2623 27.5907 20.2633 27.4624 20.2644C27.2047 20.2666 26.9455 20.2687 26.6908 20.2623C26.5843 20.2594 26.4778 20.2633 26.3702 20.2672C26.1128 20.2765 25.8495 20.2861 25.5663 20.2043C25.5663 20 25.5651 19.7978 25.564 19.5971C25.5618 19.2 25.5596 18.8085 25.5663 18.417C25.5763 17.8084 25.9478 17.4606 26.5703 17.4509C26.999 17.4445 27.4233 17.4467 27.8461 17.4488C28.057 17.4499 28.2674 17.4509 28.4779 17.4509C28.5542 17.4509 28.6345 17.4432 28.7189 17.4351C28.7677 17.4304 28.8179 17.4255 28.8695 17.422V14.0407C28.8486 14.0349 28.8304 14.0292 28.8138 14.024C28.7745 14.0116 28.7441 14.002 28.7088 14.002C28.3897 14.002 28.0713 14.0014 27.7531 14.0008C26.7999 13.999 25.8496 13.9972 24.8936 14.0117C24.3313 14.031 23.7691 14.1952 23.2771 14.4754C21.9317 15.2096 21.2289 16.3496 21.1787 17.847C21.1687 18.4267 21.1687 19.0064 21.1787 19.586C21.1884 20.2928 21.1608 20.2924 20.5498 20.2827C20.526 20.2823 20.5014 20.282 20.4759 20.2816C20.3491 20.2816 20.2212 20.2805 20.0929 20.2795C19.8352 20.2773 19.576 20.2751 19.3213 20.2816C19.2527 20.2816 19.1841 20.2928 19.1179 20.3036C19.0775 20.3101 19.038 20.3166 19 20.3202V24.3682C19.3284 24.3945 19.6547 24.3909 19.9827 24.3873C20.3768 24.383 20.7732 24.3787 21.1787 24.4261V24.9865V34.2899C21.1787 34.3287 21.1753 34.3692 21.1719 34.4102C21.1609 34.5428 21.1493 34.6816 21.249 34.7923C22.2229 34.8599 24.9839 34.8406 25.3454 34.7536C25.3554 34.744 25.3655 34.7246 25.3655 34.715C25.3655 33.0436 25.368 31.3723 25.3705 29.701C25.373 28.0296 25.3755 26.3583 25.3755 24.687C25.3755 24.6628 25.378 24.6387 25.3805 24.6145C25.383 24.5904 25.3855 24.5662 25.3855 24.542C25.3855 24.5227 25.3855 24.5034 25.3956 24.4937C25.4006 24.4889 25.4056 24.4817 25.4106 24.4744C25.4157 24.4672 25.4207 24.4599 25.4257 24.4551C25.4357 24.4358 25.4458 24.4261 25.496 24.3778L25.496 24.3778H28.5683C28.713 23.6557 28.7604 22.9336 28.8083 22.2042Z" fill="#237ED5"/>
</svg>
