<svg width="48" height="48" viewBox="0 0 48 48" fill="none" xmlns="http://www.w3.org/2000/svg">
<path fill-rule="evenodd" clip-rule="evenodd" d="M24 44C35.0457 44 44 35.0457 44 24C44 12.9543 35.0457 4 24 4C12.9543 4 4 12.9543 4 24C4 35.0457 12.9543 44 24 44ZM17.875 17.6957C18.9025 17.6957 19.735 16.8686 19.735 15.8478C19.735 14.8278 18.9025 14 17.875 14C16.8475 14 16.015 14.8278 16.015 15.8478C16.015 16.8686 16.8475 17.6957 17.875 17.6957ZM16 31V19.1739H19.75V31H16ZM22.0105 19.1739H25.7365V20.7667C27.3085 17.8997 34 17.6875 34 23.5119V31H30.259V24.792C30.259 21.058 25.7372 21.3403 25.7372 24.792V31H22.0105V19.1739Z" fill="#237ED5"/>
</svg>
