<svg width="126" height="19" viewBox="0 0 126 19" fill="none" xmlns="http://www.w3.org/2000/svg">
<path d="M2.304 8.568L2.592 8.112L9.696 0.719999H12.696L5.52 8.16L13.104 18.072H10.152L3.816 9.648L2.352 11.064L2.376 18.072H0V0.719999H2.376V7.704L2.304 8.568Z" fill="black"/>
<path d="M22.1445 5.16L16.8885 18.072H14.5845L22.1685 0H22.3125L29.8965 18.072H27.2085L22.1445 5.16Z" fill="black"/>
<path d="M48.2606 0.719999V18.648H48.1886L35.4446 5.712L35.4926 18.072H33.1406V0.191999H33.2606L45.9806 13.272L45.9326 0.719999H48.2606Z" fill="black"/>
<path d="M63.498 0.719999V2.952H58.842V18.072H56.514V2.952H51.978V0.719999H63.498Z" fill="black"/>
<path d="M76.7708 18.072L72.6908 11.664C72.5628 11.68 72.3707 11.688 72.1147 11.688H69.5467V18.072H67.2188V0.719999H71.8507C73.0347 0.719999 74.0907 0.927999 75.0187 1.344C75.9467 1.76 76.6748 2.376 77.2028 3.192C77.7308 3.992 77.9948 4.96 77.9948 6.096C77.9948 7.168 77.7548 8.152 77.2747 9.048C76.8108 9.944 76.0907 10.624 75.1147 11.088L79.4827 18.072H76.7708ZM72.0667 9.432C73.3148 9.432 74.2107 9.104 74.7547 8.448C75.3147 7.792 75.5947 7.04 75.5947 6.192C75.5947 5.68 75.4747 5.176 75.2347 4.68C75.0107 4.184 74.6427 3.776 74.1307 3.456C73.6347 3.12 73.0027 2.952 72.2347 2.952H69.5467V9.432H72.0667Z" fill="black"/>
<path d="M88.8945 5.16L83.6385 18.072H81.3345L88.9185 0H89.0625L96.6465 18.072H93.9585L88.8945 5.16Z" fill="black"/>
<path d="M111.697 16.776C111.137 17.144 110.425 17.488 109.561 17.808C108.713 18.112 107.785 18.264 106.777 18.264C105.001 18.264 103.433 17.872 102.073 17.088C100.729 16.304 99.6891 15.248 98.9531 13.92C98.2331 12.592 97.8731 11.128 97.8731 9.528C97.8731 7.816 98.2411 6.28 98.9771 4.92C99.7131 3.544 100.729 2.472 102.025 1.704C103.337 0.92 104.817 0.528 106.465 0.528C107.441 0.528 108.353 0.656 109.201 0.912C110.049 1.168 110.809 1.504 111.481 1.92L110.545 4.104C109.217 3.208 107.881 2.76 106.537 2.76C105.417 2.76 104.377 3.056 103.417 3.648C102.473 4.24 101.713 5.048 101.137 6.072C100.577 7.08 100.297 8.192 100.297 9.408C100.297 10.656 100.553 11.784 101.065 12.792C101.593 13.8 102.337 14.592 103.297 15.168C104.273 15.728 105.393 16.008 106.657 16.008C108.209 16.008 109.561 15.568 110.713 14.688L111.697 16.776Z" fill="black"/>
<path d="M125.865 0.719999V2.952H121.209V18.072H118.881V2.952H114.345V0.719999H125.865Z" fill="black"/>
</svg>
