<svg width="153" height="99" viewBox="0 0 153 99" fill="none" xmlns="http://www.w3.org/2000/svg">
<path fill-rule="evenodd" clip-rule="evenodd" d="M49.5892 79.44C56.3571 84.1109 57.5152 83.222 57.7098 88.5378L64.7871 91.6712L71.7805 88.5378L71.7142 82.8953C71.6656 79.1438 72.0059 74.1983 69.4685 71.1831L63.3991 63.972C59.8627 60.9743 55.2122 64.7998 58.6646 68.6647C59.9775 70.133 60.4681 70.7518 61.6573 72.0154C63.43 73.815 61.1755 76.7605 58.753 74.9827L52.0646 69.096C50.8357 67.863 49.6819 67.0438 48.8641 65.51L44.3109 56.9742C42.4632 53.2444 37.8083 55.6408 39.2848 59.0438L46.3223 75.244C47.2419 77.366 48.6608 78.7472 49.5892 79.44V79.44Z" fill="#D1B7A1"/>
<path fill-rule="evenodd" clip-rule="evenodd" d="M83.1553 71.1829C80.6179 74.1981 80.9583 79.1435 80.9096 82.895L80.8433 88.5376L88.5736 90.1789L94.914 88.5376C95.1085 83.2218 96.2712 84.1106 103.035 79.4397C103.963 78.7469 105.382 77.3657 106.306 75.2437L113.339 59.0436C114.82 55.6406 110.161 53.2442 108.313 56.9739L103.764 65.5097C102.946 67.0434 101.788 67.8626 100.559 69.0958L93.8708 74.9824C91.4483 76.7602 89.1938 73.8148 90.9665 72.0152C92.1556 70.7515 92.6463 70.1329 93.9592 68.6644C97.4117 64.7995 92.7656 60.974 89.2247 63.9717L83.1553 71.1829Z" fill="#D1B7A1"/>
<path fill-rule="evenodd" clip-rule="evenodd" d="M55.9326 94.3068C55.9326 95.1128 56.6002 95.7708 57.418 95.7708H72.1519C72.9741 95.7708 73.6416 95.1128 73.6416 94.3068V90.0062C73.6416 89.2002 72.9741 88.5378 72.1519 88.5378H71.7806H57.7098H57.4181C56.6003 88.5378 55.9328 89.2002 55.9328 90.0062V94.3068H55.9326Z" fill="#F2CD4D"/>
<path fill-rule="evenodd" clip-rule="evenodd" d="M78.9819 90.0062V94.3068C78.9819 95.1128 79.6539 95.7708 80.4717 95.7708H95.2056C96.0234 95.7708 96.691 95.1128 96.691 94.3068V90.0062C96.691 89.2002 96.0234 88.5378 95.2056 88.5378H94.9139H80.843H80.4717C79.6539 88.5378 78.9819 89.2002 78.9819 90.0062Z" fill="#F2CD4D"/>
<path fill-rule="evenodd" clip-rule="evenodd" d="M59.1334 64.3899L65.2028 71.5968C67.7446 74.6163 67.4043 79.5574 67.4485 83.3132L67.5148 88.5376H71.7806L71.7143 82.895C71.6657 79.1435 72.006 74.1981 69.4686 71.1829L63.3992 63.9717C61.5867 62.4337 59.4826 62.6906 58.3245 63.8279C58.5984 63.976 58.8682 64.1633 59.1334 64.3899V64.3899Z" fill="#A88B73"/>
<path fill-rule="evenodd" clip-rule="evenodd" d="M92.1906 87.5138L92.1685 88.5378H94.9137C95.1082 83.2481 96.2575 84.1021 102.924 79.5184C102.959 79.4922 102.999 79.4661 103.034 79.4399C103.963 78.7471 105.382 77.3659 106.305 75.2439L113.339 59.0437C114.391 56.6211 112.331 54.7084 110.395 55.1527C110.925 55.8761 111.133 56.8999 110.62 58.0197L103.322 73.9628C101.151 78.7079 92.5398 78.0543 92.1906 87.5138Z" fill="#A88B73"/>
<path fill-rule="evenodd" clip-rule="evenodd" d="M68.8806 90.0062V94.3068C68.8806 95.1128 68.2131 95.7708 67.3909 95.7708H72.1519C72.9741 95.7708 73.6416 95.1128 73.6416 94.3068V90.0062C73.6416 89.2002 72.9741 88.5378 72.1519 88.5378H71.7805H67.5147H67.3909C68.2133 88.5378 68.8806 89.2002 68.8806 90.0062Z" fill="#D2AF36"/>
<path fill-rule="evenodd" clip-rule="evenodd" d="M91.9297 90.0062V94.3068C91.9297 95.1128 91.2622 95.7708 90.4443 95.7708H95.2053C96.0232 95.7708 96.6907 95.1128 96.6907 94.3068V90.0062C96.6907 89.2002 96.0232 88.5378 95.2053 88.5378H94.9136H92.1684H90.4443C91.2622 88.5378 91.9297 89.2002 91.9297 90.0062V90.0062Z" fill="#D2AF36"/>
<path fill-rule="evenodd" clip-rule="evenodd" d="M49.6528 41.9678L52.5669 44.8136L73.9486 65.7078C74.8661 66.4259 75.3301 66.8142 75.7889 66.8302C76.2476 66.8142 76.7118 66.426 77.6292 65.7078L99.0109 44.8136L101.925 41.9678C109.113 34.6325 109.113 22.6216 101.925 15.2861C95.4004 8.61565 84.85 10.286 77.8774 16.483C76.5876 17.6268 76.1343 18.1958 75.7889 18.1905C75.4435 18.1958 74.9902 17.6268 73.7004 16.483C66.7279 10.286 56.1774 8.61565 49.6528 15.2861C42.4644 22.6216 42.4644 34.6325 49.6528 41.9678V41.9678Z" fill="#F44B53"/>
<path fill-rule="evenodd" clip-rule="evenodd" d="M92.7991 15.4509C99.9875 22.7862 99.9875 34.7972 92.7991 42.1327L89.885 44.9839L71.3096 63.1282L73.9486 65.708C74.8661 66.426 75.3301 66.8144 75.7889 66.8304C76.2476 66.8144 76.7118 66.4262 77.6292 65.708L99.0109 44.8138L101.925 41.968C109.113 34.6327 109.113 22.6217 101.925 15.2863C97.7587 11.0308 91.9574 10.169 86.4959 11.717C88.8001 12.3551 90.9588 13.5731 92.7991 15.4509V15.4509Z" fill="#E41E2B"/>
</svg>
