<svg width="180" height="120" viewBox="0 0 180 120" fill="none" xmlns="http://www.w3.org/2000/svg">
<rect width="180" height="120" fill="white"/>
<path d="M13.6638 68.371L9.23429 66.2797C7.58741 65.5 7.58738 63.0881 9.24136 62.3084L32.2977 51.4727L33.5684 52.0703L14.0969 61.2298C13.1882 61.6525 12.7268 62.5415 12.7268 63.4159C12.7268 63.4596 12.7268 63.5034 12.7339 63.5471C12.6984 63.6856 12.67 63.8313 12.6629 63.977C12.6629 63.9843 12.6629 63.9843 12.6558 63.9916C12.6558 63.9989 12.6558 63.9989 12.6558 64.0062C12.6274 64.2467 12.6132 64.4944 12.6203 64.7495C12.6203 64.7713 12.6274 64.8005 12.6274 64.8223C12.5848 66.1121 12.9681 67.6059 13.6638 68.371V68.371ZM34.6616 51.5602L33.3838 50.9627L36.4717 49.5125C37.068 49.2356 37.7069 49.0899 38.3528 49.0899C38.7504 49.0899 39.1621 49.1482 39.5525 49.2575L34.6616 51.5602Z" fill="#C7C9C8"/>
<path d="M33.5709 52.0712L32.2915 51.4762L33.3871 50.961L34.6595 51.5633L33.5709 52.0712" fill="#BFC0C0"/>
<path d="M41.4194 51.9981L13.615 62.6127C11.9578 63.3901 12.5202 67.9932 14.1774 68.7783L70.3036 95.3111C72.2382 96.2271 74.4577 96.227 76.3848 95.3264L102.3 83.1415C104.024 82.3333 104.729 78.3076 103.012 77.4994L45.1836 52.0057C43.9914 51.4438 42.6116 51.4439 41.4194 51.9981" fill="#766E70"/>
<path d="M41.4194 51.5901L13.615 62.197C11.9578 62.9744 12.5202 67.5775 14.1774 68.3549L70.3036 94.8954C72.2382 95.8113 74.4577 95.8114 76.3848 94.9108L102.3 82.7181C104.024 81.9176 104.729 77.8919 103.012 77.0836L45.1836 51.5901C43.9914 51.0282 42.6116 51.0282 41.4194 51.5901" fill="#D6C0BF"/>
<path d="M73.2214 94.2111C73.0677 93.024 74.6194 92.8362 75.5197 92.2877L13.6131 62.204C13.4521 62.2716 13.3203 62.3844 13.2032 62.5121C13.1227 62.6022 13.0569 62.6999 12.991 62.8126C12.9324 62.9253 12.8739 63.0455 12.83 63.1807C12.8153 63.2408 12.786 63.3085 12.7641 63.3836C12.6762 63.7292 12.625 64.1124 12.6177 64.5331C12.6177 64.6909 12.6177 64.8563 12.6323 65.0291C12.647 65.1944 12.6616 65.3597 12.6836 65.5325C12.7641 66.1185 12.9324 66.6895 13.1593 67.1779C13.2252 67.3206 13.2911 67.4409 13.3716 67.5686C13.4448 67.6888 13.5253 67.8015 13.6131 67.9067C13.6937 68.0044 13.7888 68.0945 13.8766 68.1697C13.9718 68.2448 14.0743 68.3124 14.1767 68.3575L70.3011 94.8948C71.8454 95.6312 73.5801 95.7739 75.205 95.3381C74.2388 95.3531 73.3385 95.1803 73.2214 94.2111" fill="#BEABAC"/>
<path d="M41.4135 48.6331L14.1873 61.4341C12.5311 62.2034 12.5236 64.6189 14.1798 65.4036L70.3034 91.944C72.2369 92.8518 74.4552 92.8595 76.3886 91.9518L102.296 79.7662C104.02 78.9584 104.02 76.4583 102.303 75.6428L45.1831 48.6408C43.9915 48.0715 42.6125 48.0715 41.4135 48.6331" fill="#F5E4D9"/>
<path d="M79.8924 89.0129C79.8924 89.0129 81.0113 88.4309 82.7045 87.5963C83.5474 87.1828 84.5395 86.6928 85.6062 86.1874C86.6654 85.682 87.8067 85.1384 88.9479 84.5947C90.0967 84.074 91.2305 83.5457 92.3046 83.048C93.3713 82.5579 94.3857 82.1138 95.2435 81.731C96.1088 81.3481 96.8324 81.0342 97.3396 80.8121C97.8468 80.5977 98.1302 80.4752 98.1302 80.4752C98.2048 80.4446 98.2795 80.4752 98.3093 80.5518C98.3317 80.6131 98.3093 80.6897 98.2421 80.7203C98.2421 80.7203 97.9587 80.8657 97.4664 81.1184C96.9816 81.3634 96.2729 81.7157 95.43 82.1368C94.5796 82.5503 93.5875 83.048 92.5209 83.5534C91.4542 84.0588 90.3205 84.5947 89.1866 85.1384C88.0379 85.6667 86.8966 86.195 85.8225 86.6851C84.7558 87.1828 83.7414 87.6193 82.8836 88.0175C81.1605 88.7832 79.9968 89.2655 79.9968 89.2655C79.9297 89.2962 79.8551 89.2579 79.8253 89.189C79.8029 89.1201 79.8252 89.0435 79.8924 89.0129" fill="white"/>
<path d="M83.5856 89.0571C83.5856 89.0571 84.3976 88.6441 85.627 88.0399C86.2379 87.7416 86.9606 87.3898 87.7206 87.0227C88.4954 86.6556 89.3224 86.2656 90.142 85.8755C90.9689 85.4931 91.7959 85.1108 92.5708 84.7589C93.3531 84.4071 94.0757 84.0783 94.6941 83.7876C95.32 83.52 95.8489 83.2905 96.2065 83.1299C96.5716 82.9693 96.7802 82.8852 96.7802 82.8852L96.892 82.931L96.8547 83.0458C96.8547 83.0458 96.6536 83.1452 96.296 83.3211C95.9383 83.5046 95.4242 83.757 94.8133 84.0553C94.2024 84.3536 93.4797 84.7053 92.7123 85.0801C91.9375 85.4472 91.1254 85.8296 90.2984 86.2273C89.4714 86.6021 88.6444 86.9921 87.8696 87.344C87.0947 87.6958 86.3646 88.0246 85.7462 88.3076C84.4945 88.8582 83.6601 89.2177 83.6601 89.2177L83.5483 89.1718L83.5856 89.0571Z" fill="white"/>
<path d="M47.2217 51.5686L18.7632 64.9536C18.5177 65.0605 18.5177 65.4193 18.7557 65.5339L65.5419 87.6538C65.7948 87.776 66.0924 87.776 66.3527 87.6538L94.6179 74.3681C94.9005 74.2383 94.9005 73.826 94.6179 73.6962L47.8242 51.5686C47.6382 51.477 47.4151 51.477 47.2217 51.5686" fill="#DBDD46"/>
<path d="M34.0092 55.0138L28.1578 57.7632C28.0377 57.8285 27.9811 57.9736 28.0377 58.0969C28.0942 58.2275 28.2355 58.2782 28.3627 58.2202L34.2071 55.4708C34.3343 55.42 34.3837 55.2604 34.3343 55.1371C34.2707 55.0138 34.1294 54.9558 34.0092 55.0138Z" fill="#585254"/>
<path d="M69.6938 85.8745L38.6089 55.8279L47.2949 51.7515C47.3692 51.7133 47.4436 51.698 47.5254 51.698C47.5923 51.698 47.6741 51.7133 47.7411 51.7515L94.5394 73.8742C94.6063 73.9047 94.636 73.9658 94.636 74.0345C94.636 74.1032 94.6063 74.1566 94.5394 74.1948L69.6938 85.8745" fill="#F3F737"/>
<path d="M47.2223 51.5716L47.148 51.396L18.6867 64.7746C18.4933 64.8663 18.3892 65.0571 18.3892 65.2404C18.3892 65.4237 18.4933 65.6146 18.6792 65.7063L65.47 87.8283C65.6188 87.9047 65.7824 87.9352 65.9461 87.9352C66.1098 87.9352 66.2734 87.9047 66.4296 87.8283L94.6975 74.5413C94.9058 74.4421 95.0174 74.2359 95.0174 74.0297C95.0174 73.8312 94.9058 73.625 94.6975 73.5181L47.9067 51.396C47.7877 51.3349 47.6538 51.312 47.5273 51.312C47.3934 51.312 47.267 51.3349 47.148 51.396L47.2223 51.5716L47.2967 51.7473C47.3711 51.7091 47.4455 51.7014 47.5273 51.7014C47.6017 51.7014 47.6761 51.7091 47.7505 51.7473L94.5412 73.8693C94.6156 73.8998 94.638 73.961 94.638 74.0297C94.638 74.0984 94.6156 74.1519 94.5412 74.19L66.2734 87.4847C66.1692 87.5305 66.0577 87.5534 65.9461 87.5534C65.8345 87.5534 65.7304 87.5305 65.6262 87.4847L18.8355 65.3549L18.7611 65.2404L18.8355 65.1259L47.2967 51.7473L47.2223 51.5716" fill="#585254"/>
<path d="M41.4122 48.6384L41.3147 48.4307L14.086 61.237C13.1794 61.66 12.7148 62.5446 12.7148 63.4291C12.7148 64.2982 13.1793 65.1828 14.0785 65.6058L70.2144 92.1491C71.2034 92.6183 72.2749 92.8568 73.3463 92.8568C74.4178 92.8568 75.4743 92.626 76.4708 92.1568L102.381 79.9735C103.325 79.5351 103.797 78.6198 103.797 77.7122C103.797 76.8046 103.325 75.8893 102.388 75.4509L45.2634 48.4384C44.6415 48.1461 43.9597 48 43.2854 48C42.611 48 41.9441 48.1461 41.3147 48.4307L41.4122 48.6384L41.4946 48.8384C42.064 48.5769 42.6784 48.4384 43.2854 48.4384C43.8998 48.4384 44.5142 48.5769 45.0836 48.8461L102.209 75.8508C102.988 76.2277 103.362 76.9584 103.37 77.7122C103.362 78.466 102.98 79.2043 102.201 79.5735L76.2835 91.7569C75.3544 92.1953 74.3504 92.4107 73.3463 92.4107C72.3348 92.4107 71.3308 92.1953 70.3867 91.7491L14.2658 65.2059C13.5165 64.8521 13.1494 64.1444 13.1494 63.4291C13.1494 62.6984 13.524 61.9908 14.2658 61.637L41.4946 48.8384L41.4122 48.6384" fill="#948E88"/>
<path d="M88.1742 82.4144C88.226 82.5436 88.263 82.6803 88.263 82.817C88.263 83.7817 86.8644 84.6021 85.2143 84.6021C83.8675 84.6021 82.6908 84.0552 82.306 83.326L81.8398 83.2652C82.1506 84.2755 83.5197 85.0123 85.2143 85.0123C87.1456 85.0123 88.6626 84.0476 88.6626 82.817C88.6626 82.5967 88.6108 82.384 88.522 82.1865L88.1742 82.4144" fill="#C1AAA9"/>
<path d="M88.1665 82.4143L88.5143 82.1865C88.3219 81.7536 87.915 81.3738 87.3674 81.1004L86.9531 81.3662C87.5524 81.6244 87.9963 81.9966 88.1665 82.4143Z" fill="white"/>
<path d="M82.1701 82.8203C82.1701 82.4273 82.3984 82.0644 82.774 81.7696L82.2438 81.694C81.9419 82.019 81.7651 82.4046 81.7651 82.8203C81.7651 82.9715 81.7946 83.1227 81.8388 83.2664L82.3027 83.3268C82.2143 83.1681 82.1701 82.9942 82.1701 82.8203" fill="white"/>
<path d="M85.205 81.0361C85.8481 81.0361 86.4542 81.1651 86.9569 81.37L87.3708 81.1044C86.7868 80.8009 86.0403 80.6263 85.205 80.6263C83.9261 80.6263 82.8321 81.0513 82.2407 81.6963L82.773 81.7722C83.3274 81.332 84.2292 81.0361 85.205 81.0361" fill="#C1AAA9"/>
<path d="M85.2109 85.2386C83.4568 85.2386 81.984 84.456 81.6287 83.3316C81.5769 83.1645 81.5547 82.9973 81.5547 82.8226C81.5547 82.3667 81.7323 81.9261 82.0876 81.5462C82.7389 80.8244 83.9083 80.399 85.2109 80.399C86.0473 80.399 86.8244 80.5737 87.4683 80.9004C88.0678 81.1967 88.4971 81.6146 88.7117 82.0932C88.8227 82.3364 88.8745 82.5718 88.8745 82.8226C88.8745 84.1749 87.2611 85.2386 85.2109 85.2386V85.2386ZM81.836 83.2708C82.1468 84.2737 83.5234 85.0183 85.2109 85.0183C87.15 85.0183 88.6599 84.0458 88.6599 82.8226C88.6599 82.6022 88.6081 82.3895 88.5193 82.1844C88.3194 81.7514 87.9198 81.3714 87.3721 81.0979C86.7874 80.8016 86.0399 80.6193 85.2109 80.6193C83.9305 80.6193 82.8352 81.0448 82.2431 81.6906C82.1024 81.8425 81.9988 81.9944 81.9247 82.1616C81.8211 82.3667 81.7694 82.587 81.7694 82.8226C81.7694 82.9745 81.7916 83.1189 81.836 83.2708" fill="#B5A3A1"/>
<path d="M81.846 83.2674C81.7945 83.1163 81.7725 82.9728 81.7725 82.8141C81.7725 82.58 81.8239 82.361 81.927 82.157C81.8239 82.361 81.7725 82.58 81.7725 82.8141C81.7725 82.9728 81.7945 83.1163 81.846 83.2674Z" fill="#B7A7A7"/>
<path d="M26.932 58.7849C26.8969 58.7056 26.8267 58.6264 26.7213 58.5759C26.609 58.5254 26.4686 58.4894 26.3071 58.4894C26.0684 58.4894 25.8647 58.5687 25.7524 58.6912C25.6962 58.7489 25.6611 58.821 25.6611 58.9002L25.6752 58.9867C25.7314 59.1741 25.9912 59.3183 26.3071 59.3183C26.6722 59.3183 26.9601 59.1381 26.9601 58.9002L26.932 58.7849" fill="#454043"/>
<path d="M30.3913 55.5651C30.3702 55.5145 30.3138 55.4639 30.2505 55.435C30.18 55.3916 30.0885 55.37 29.9829 55.37C29.8209 55.37 29.6871 55.4278 29.6166 55.5073L29.5532 55.6447L29.5603 55.7025C29.6026 55.8254 29.7786 55.9122 29.9829 55.9122C30.2223 55.9122 30.4124 55.7965 30.4124 55.6447L30.3913 55.5651" fill="#454043"/>
<path d="M87.1611 88.2873V89.0408C87.1611 89.1626 87.2797 89.2387 87.391 89.193L90.935 87.5034C90.9943 87.4806 91.024 87.4273 91.024 87.3588V86.6205C91.024 86.4987 90.9054 86.415 90.7942 86.4683L87.3094 88.059C87.2204 88.097 87.1611 88.1884 87.1611 88.2873" fill="#585254"/>
<path d="M90.8169 86.4608L90.8242 86.4989V87.2372C90.8242 87.3057 90.7872 87.3589 90.7279 87.3817L87.1912 89.0714H87.1689C87.1912 89.1703 87.295 89.2388 87.3914 89.1932L90.9355 87.5036C90.9948 87.4807 91.0244 87.4274 91.0244 87.3589V86.6206C91.0244 86.5065 90.9132 86.4304 90.8169 86.4608" fill="white"/>
<path d="M79.2577 92.2815C79.2577 92.8166 78.9493 93.3743 78.5822 93.51C78.2151 93.6532 77.9141 93.3366 77.9141 92.794C77.9141 92.2513 78.2151 91.7011 78.5822 91.5579C78.9493 91.4222 79.2577 91.7388 79.2577 92.2815Z" fill="#585254"/>
<path d="M81.1959 91.5015C81.1959 91.8035 81.0268 92.1206 80.8209 92.1961C80.6076 92.2791 80.4458 92.0979 80.4458 91.7884C80.4458 91.494 80.6076 91.1769 80.8209 91.1014C81.0268 91.0259 81.1959 91.2071 81.1959 91.5015Z" fill="#585254"/>
<path d="M97.0611 84.0771C97.0611 84.3755 96.8971 84.689 96.6885 84.7732C96.4798 84.8497 96.3159 84.6737 96.3159 84.3601C96.3159 84.0618 96.4798 83.7482 96.6885 83.6794C96.8971 83.5952 97.0611 83.7788 97.0611 84.0771" fill="#585254"/>
<path d="M98.501 83.4072C98.501 83.7212 98.3295 84.0275 98.1206 84.1041C97.9191 84.1883 97.7476 84.0045 97.7476 83.7058C97.7476 83.3995 97.9191 83.0932 98.1206 83.009C98.3295 82.9324 98.501 83.1086 98.501 83.4072Z" fill="#585254"/>
<path d="M99.931 82.7554C99.931 83.0544 99.7592 83.3688 99.5575 83.4531C99.3559 83.5221 99.1841 83.3458 99.1841 83.0468C99.1841 82.7324 99.3559 82.4257 99.5575 82.3491C99.7592 82.2724 99.931 82.4487 99.931 82.7554Z" fill="#585254"/>
<path d="M101.382 82.0792C101.382 82.3786 101.21 82.6933 101.008 82.7777C100.799 82.8545 100.627 82.6779 100.627 82.3709C100.627 82.0715 100.799 81.7568 101.008 81.6724C101.21 81.6033 101.382 81.7798 101.382 82.0792Z" fill="#585254"/>
<path d="M73.3546 95.5804C72.4114 95.5804 71.4756 95.3959 70.5847 95.027C71.4756 95.3959 72.4114 95.5804 73.3546 95.5804C74.3877 95.5804 75.4208 95.3652 76.3866 94.9118L102.297 82.7236C102.319 82.7159 102.334 82.7082 102.349 82.7006C102.334 82.7082 102.319 82.7159 102.297 82.7236L76.3866 94.9118C75.4208 95.3652 74.3877 95.5804 73.3546 95.5804ZM70.3002 94.8964L14.1756 68.3607C14.1681 68.3607 14.1606 68.3607 14.1606 68.353C14.1606 68.3607 14.1681 68.3607 14.1756 68.3607L70.3002 94.8964ZM102.356 82.7006C102.364 82.6929 102.371 82.6929 102.371 82.6929C102.371 82.6929 102.364 82.6929 102.356 82.7006ZM102.371 82.6852C102.379 82.6852 102.386 82.6775 102.394 82.6775C102.386 82.6775 102.379 82.6852 102.371 82.6852ZM102.401 82.6775C102.401 82.6698 102.409 82.6698 102.416 82.6621C102.409 82.6698 102.409 82.6698 102.401 82.6775ZM102.416 82.6621C102.431 82.6544 102.439 82.6544 102.454 82.6467C102.439 82.6544 102.424 82.6544 102.416 82.6621ZM102.461 82.6391C102.461 82.6391 102.469 82.6391 102.469 82.6314C102.469 82.6391 102.461 82.6391 102.461 82.6391ZM102.476 82.6314C102.476 82.6238 102.484 82.6237 102.491 82.6161C102.484 82.6237 102.476 82.6238 102.476 82.6314ZM102.499 82.6161C102.499 82.6084 102.506 82.6083 102.514 82.6083C102.506 82.6083 102.499 82.6084 102.499 82.6161ZM102.521 82.6007C102.521 82.6007 102.521 82.6007 102.529 82.6007C102.521 82.6007 102.521 82.6007 102.521 82.6007ZM102.529 82.593C102.536 82.593 102.544 82.5853 102.544 82.5853C102.544 82.5853 102.536 82.593 102.529 82.593ZM102.551 82.5776C102.559 82.5776 102.566 82.5699 102.566 82.5699C102.566 82.5699 102.559 82.5776 102.551 82.5776ZM102.566 82.5622C102.574 82.5622 102.574 82.5546 102.581 82.5546C102.574 82.5546 102.574 82.5622 102.566 82.5622ZM102.589 82.5469C102.596 82.5469 102.596 82.5469 102.604 82.5469C102.596 82.5469 102.596 82.5469 102.589 82.5469ZM102.611 82.5392C102.618 82.5392 102.619 82.5315 102.619 82.5315C102.619 82.5315 102.618 82.5392 102.611 82.5392ZM102.626 82.5238L102.633 82.5162L102.626 82.5238ZM102.648 82.5084C102.648 82.5008 102.656 82.5008 102.656 82.5008C102.656 82.5008 102.648 82.5008 102.648 82.5084ZM102.663 82.4931C102.663 82.4931 102.663 82.4931 102.671 82.4931C102.663 82.4931 102.663 82.4931 102.663 82.4931ZM102.708 82.4624V82.4546C102.708 82.4623 102.708 82.4624 102.708 82.4624ZM102.716 82.447C102.723 82.447 102.723 82.447 102.723 82.447C102.723 82.447 102.723 82.447 102.716 82.447ZM14.1532 68.353C14.1532 68.3453 14.1457 68.3453 14.1382 68.3453C14.1457 68.3453 14.1532 68.3453 14.1532 68.353ZM14.1307 68.3377C14.1307 68.3377 14.1232 68.3376 14.1232 68.33C14.1232 68.3376 14.1307 68.3377 14.1307 68.3377ZM14.1157 68.33L14.1082 68.3223L14.1157 68.33ZM14.1007 68.3146C14.0933 68.3146 14.0932 68.3146 14.0858 68.3146C14.0932 68.3146 14.0933 68.3146 14.1007 68.3146ZM14.0783 68.3069H14.0708H14.0783ZM14.0333 68.2761H14.0259H14.0333Z" fill="#6B6466"/>
<path d="M73.3562 95.5843C72.4119 95.5843 71.4677 95.3997 70.5835 95.0228C71.4677 95.3997 72.4045 95.5843 73.3487 95.5843C73.9707 95.5843 74.5927 95.5074 75.1996 95.3381C75.1697 95.3458 75.1321 95.3459 75.1022 95.3459C74.3078 95.3459 73.566 95.2074 73.3037 94.5612C73.3412 94.5612 73.3787 94.5612 73.4236 94.5612C74.4578 94.5612 75.4993 94.3381 76.466 93.8843L77.9723 93.1689C78.0622 93.3997 78.2196 93.5458 78.4144 93.5458C78.4668 93.5458 78.5268 93.5304 78.5867 93.5073C78.8865 93.3996 79.1413 93.0073 79.2312 92.5842L80.4752 91.9997C80.5201 92.1304 80.61 92.215 80.7224 92.215C80.7524 92.215 80.7899 92.2073 80.8199 92.1996C80.9923 92.1304 81.1346 91.9073 81.1796 91.6612L87.1595 88.8534V89.0381C87.1595 89.1381 87.2345 89.2073 87.3244 89.2073H87.3319H87.3394C87.3544 89.2073 87.3693 89.1996 87.3918 89.1919L90.9288 87.5072C90.9888 87.4842 91.0188 87.4304 91.0188 87.3611V87.0303L96.3318 84.538C96.3693 84.6995 96.4667 84.7918 96.5866 84.7918C96.624 84.7918 96.654 84.7841 96.684 84.7764C96.8638 84.7072 97.0137 84.4611 97.0512 84.1995L97.7631 83.8688C97.8081 84.0226 97.9055 84.1226 98.0254 84.1226C98.0554 84.1226 98.0928 84.1226 98.1228 84.1072C98.3026 84.038 98.46 83.7918 98.4975 83.5226L99.2019 83.1918C99.2394 83.3611 99.3368 83.4611 99.4716 83.4611C99.5016 83.4611 99.5241 83.4534 99.569 83.4457C99.7489 83.3687 99.9063 83.1149 99.9363 82.8457L100.641 82.5149C100.678 82.6918 100.776 82.7995 100.903 82.7995C100.94 82.7995 100.97 82.7918 101 82.7764C101.188 82.7072 101.345 82.4457 101.375 82.1688L102.574 81.6071C103.174 81.3225 103.646 80.661 103.945 79.861C103.811 80.861 103.376 81.8764 102.739 82.4303C102.739 82.4379 102.731 82.438 102.724 82.4457C102.724 82.4457 102.724 82.4457 102.716 82.4457C102.716 82.4533 102.709 82.4611 102.701 82.4611V82.4687C102.701 82.4687 102.694 82.4688 102.686 82.4765C102.679 82.4841 102.671 82.4841 102.671 82.4918C102.664 82.4918 102.664 82.4918 102.664 82.4918C102.657 82.4995 102.656 82.4995 102.649 82.5072C102.649 82.5072 102.649 82.5072 102.649 82.5149C102.642 82.5149 102.641 82.5149 102.634 82.5149L102.627 82.5226C102.627 82.5226 102.619 82.5302 102.612 82.5302C102.612 82.5302 102.611 82.538 102.604 82.538V82.5456C102.596 82.5456 102.597 82.5534 102.589 82.5534L102.582 82.561C102.574 82.561 102.574 82.5687 102.567 82.5687C102.567 82.5687 102.567 82.5687 102.559 82.5687L102.552 82.5764C102.552 82.5764 102.552 82.5841 102.544 82.5841C102.544 82.5841 102.537 82.5918 102.529 82.5918C102.529 82.5918 102.529 82.5918 102.529 82.5995C102.522 82.5995 102.514 82.6072 102.514 82.6072C102.507 82.6072 102.507 82.6072 102.507 82.6149C102.499 82.6149 102.499 82.6149 102.499 82.6149C102.492 82.6149 102.492 82.6149 102.492 82.6149C102.484 82.6226 102.477 82.6226 102.477 82.6303C102.469 82.6303 102.469 82.6303 102.469 82.6303C102.462 82.638 102.454 82.638 102.454 82.638C102.454 82.6457 102.454 82.6456 102.454 82.6456C102.439 82.6533 102.432 82.6611 102.417 82.6688C102.409 82.6688 102.409 82.6688 102.409 82.6688C102.409 82.6688 102.402 82.6687 102.402 82.6764C102.394 82.6764 102.394 82.6764 102.394 82.6764C102.387 82.6764 102.379 82.6841 102.372 82.6841C102.372 82.6841 102.372 82.6841 102.372 82.6918C102.364 82.6918 102.357 82.6918 102.357 82.6995C102.357 82.6995 102.357 82.6995 102.349 82.6995C102.334 82.7149 102.312 82.7149 102.297 82.7225L76.3836 94.9074C75.4244 95.3612 74.3903 95.5843 73.3562 95.5843V95.5843ZM14.1785 68.3609C14.171 68.3609 14.1635 68.3608 14.156 68.3531H14.1486C14.1486 68.3454 14.1411 68.3455 14.1336 68.3455V68.3377C14.1336 68.3377 14.1261 68.3378 14.1261 68.3301C14.1186 68.3301 14.1186 68.3301 14.1111 68.3301L14.1036 68.3224C14.0961 68.3224 14.0961 68.3224 14.0961 68.3147C14.0886 68.3147 14.0886 68.3147 14.0886 68.3147H14.0811L14.0736 68.307C14.0661 68.307 14.0511 68.2993 14.0436 68.2916C14.0361 68.2839 14.0362 68.2839 14.0362 68.2762H14.0286C14.0286 68.2762 14.0212 68.2685 14.0137 68.2685C13.8863 68.1839 13.7589 68.0762 13.6465 67.9454C13.7214 68.0301 13.7963 68.107 13.8788 68.1686C13.9762 68.2455 14.0736 68.3147 14.1785 68.3609" fill="#B1A0A1"/>
<path d="M73.8268 95.8763C72.8829 95.8763 71.939 95.6886 71.0609 95.313C70.9657 95.2754 70.8706 95.2379 70.7755 95.1853L14.6515 68.6475C14.549 68.6024 14.4539 68.5348 14.3515 68.4597C14.2783 68.3996 14.1978 68.3245 14.1173 68.2344C13.6929 67.7461 13.3783 66.9725 13.2173 66.1537C13.4807 66.7471 13.8465 67.2203 14.2856 67.4306L18.0028 69.1808V69.4137C18.0028 69.6015 18.1052 69.7742 18.2735 69.8568L19.8248 70.5929C19.8541 70.6004 19.876 70.608 19.9053 70.608C19.9931 70.608 20.0809 70.5329 20.0809 70.4277V70.1723L24.5226 72.268V72.591C24.5226 72.8163 24.6542 73.0191 24.8445 73.1168L29.191 75.1674C29.2496 75.1899 29.3081 75.205 29.3666 75.205C29.6008 75.205 29.7984 75.0171 29.7984 74.7617L30.4203 75.0622V75.3777C30.4203 75.573 30.5301 75.7533 30.7057 75.8359L35.0449 77.8865C35.0961 77.9091 35.1473 77.9165 35.1985 77.9165C35.3888 77.9165 35.5571 77.7588 35.5571 77.5485V77.4884L70.8267 94.1638C71.7633 94.6069 72.7731 94.8322 73.7829 94.8547C74.0463 95.4932 74.7854 95.636 75.583 95.636C75.6122 95.636 75.6488 95.636 75.6781 95.6285C75.0707 95.7937 74.4488 95.8763 73.8268 95.8763" fill="#9F9192"/>
<path d="M87.3242 89.2084C87.2352 89.2084 87.1611 89.1399 87.1611 89.0409V88.8507L90.8238 87.1306V87.2372C90.8238 87.3057 90.7868 87.3589 90.7274 87.3818L87.1907 89.0714H87.1685C87.1833 89.1551 87.2575 89.2084 87.3242 89.2084H87.3316H87.3242V89.2084ZM90.935 87.5036C90.9943 87.4807 91.024 87.4274 91.024 87.3589C91.024 87.4274 90.9943 87.4807 90.935 87.5036Z" fill="#544D50"/>
<path d="M87.3246 89.2084C87.2579 89.2084 87.1838 89.1551 87.1689 89.0714H87.1912L90.7279 87.3818C90.7872 87.3589 90.8242 87.3057 90.8242 87.2372V87.1306L91.0244 87.0317V87.3589C91.0244 87.4274 90.9948 87.4807 90.9355 87.5036L87.3914 89.1932C87.3765 89.2008 87.3617 89.2084 87.3395 89.2084H87.3321H87.3246" fill="#CECCCB"/>
<path d="M78.4112 93.5452C78.2203 93.5452 78.0588 93.402 77.9707 93.1759L79.2262 92.5881C79.1454 93.0101 78.8811 93.402 78.5801 93.5151C78.5213 93.5301 78.4626 93.5452 78.4112 93.5452" fill="#544D50"/>
<path d="M80.7192 92.222C80.6089 92.222 80.5207 92.1314 80.4766 91.9955L81.1752 91.6633C81.1311 91.9124 80.984 92.1314 80.8148 92.1993C80.7854 92.2144 80.756 92.222 80.7192 92.222" fill="#544D50"/>
<path d="M96.5889 84.7899C96.4697 84.7899 96.3654 84.6981 96.3281 84.5375L97.0509 84.201C97.0137 84.4611 96.8646 84.7058 96.6858 84.7747C96.656 84.79 96.6187 84.7899 96.5889 84.7899" fill="#544D50"/>
<path d="M98.0214 84.1285C97.902 84.1285 97.805 84.029 97.7603 83.8681L98.4913 83.5312C98.4615 83.7916 98.3048 84.0443 98.1183 84.1056C98.0885 84.1209 98.0587 84.1285 98.0214 84.1285Z" fill="#544D50"/>
<path d="M99.4606 83.4608C99.3337 83.4608 99.2366 83.3611 99.1992 83.2L99.9312 82.8474C99.9013 83.1234 99.7444 83.3764 99.5577 83.453C99.5204 83.453 99.498 83.4608 99.4606 83.4608Z" fill="#544D50"/>
<path d="M100.9 82.8022C100.773 82.8022 100.676 82.6947 100.639 82.5181L101.371 82.1727C101.349 82.449 101.192 82.7024 100.998 82.7791C100.968 82.7945 100.938 82.8022 100.9 82.8022" fill="#544D50"/>
<path d="M24.1118 71.6082V72.3016C24.1118 72.4966 24.2244 72.6771 24.4002 72.7566L28.7341 74.8076C28.9733 74.9232 29.2477 74.7426 29.2477 74.4682V73.6954C29.2477 73.551 29.1703 73.4138 29.0366 73.356L24.6254 71.2689C24.3862 71.1605 24.1118 71.341 24.1118 71.6082" fill="#B9A6A6"/>
<path d="M29.1739 74.1829L24.186 71.8214V71.6121C24.186 71.4387 24.3197 71.3087 24.4745 71.3087L24.5941 71.3448L29.005 73.4246C29.1105 73.4824 29.1739 73.5763 29.1739 73.699V74.1829" fill="#D0BEBA"/>
<path d="M24.1158 71.6047H24.0454V72.298C24.0454 72.5291 24.1791 72.7242 24.369 72.8253L28.7102 74.8765C28.7665 74.8981 28.8298 74.9126 28.8932 74.9126C29.1183 74.9126 29.3223 74.7248 29.3223 74.4648V73.692C29.3223 73.5187 29.2238 73.3597 29.0761 73.2875L24.6646 71.2003C24.6083 71.1714 24.5379 71.1569 24.4816 71.1569C24.2565 71.1569 24.0454 71.3519 24.0454 71.6047H24.1158H24.1861C24.1861 71.4314 24.3269 71.3086 24.4816 71.3086L24.6013 71.3374L29.0127 73.4175C29.1112 73.4753 29.1816 73.5765 29.1816 73.692V74.4648C29.1816 74.6381 29.0409 74.7681 28.8932 74.7681L28.7665 74.7393L24.4394 72.6881C24.2846 72.6231 24.1861 72.4641 24.1861 72.298V71.6047H24.1158" fill="#6A6264"/>
<path d="M29.939 74.4033V75.0929C29.939 75.2888 30.0521 75.4703 30.2289 75.5501L34.5564 77.6043C34.7968 77.7132 35.0726 77.5317 35.0726 77.2632V76.4865C35.0726 76.3413 34.9948 76.2107 34.8675 76.1454L30.4551 74.0621C30.2147 73.946 29.939 74.1275 29.939 74.4033" fill="#B9A6A6"/>
<path d="M35.0726 77.0019L29.939 74.5702V74.4033C29.939 74.1855 30.1157 74.0258 30.3066 74.0258C30.3561 74.0258 30.3986 74.0403 30.4551 74.0621L34.8675 76.1454C34.9948 76.2107 35.0726 76.3413 35.0726 76.4865V77.0019" fill="#D1BFBB"/>
<path d="M29.9418 74.4005H29.8711V75.0901C29.8711 75.3079 29.9983 75.5184 30.2034 75.6128L34.5384 77.6671C34.5949 77.6889 34.6515 77.7034 34.7151 77.7034C34.9485 77.7034 35.1465 77.522 35.1465 77.2607V76.4839C35.1465 76.3097 35.0475 76.15 34.899 76.0774L30.4863 73.994C30.4297 73.965 30.3661 73.9504 30.3024 73.9504C30.0761 73.9504 29.8711 74.1392 29.8711 74.4005H29.9418H30.0125C30.0125 74.2263 30.1469 74.0956 30.3024 74.0956L30.4227 74.1247L34.8353 76.2081C34.9414 76.2589 35.0051 76.3678 35.0051 76.4839V77.2607C35.0051 77.4349 34.8636 77.5582 34.7151 77.5582L34.5949 77.5293L30.26 75.4749C30.1115 75.4095 30.0125 75.2571 30.0125 75.0901V74.4005H29.9418Z" fill="#6A6264"/>
<path d="M17.52 68.4456V69.1259C17.52 69.3121 17.6246 69.484 17.7921 69.5699L19.3478 70.3003C19.4594 70.3576 19.5989 70.2645 19.5989 70.1428V69.2619C19.5989 69.1903 19.5501 69.1259 19.4943 69.0972L17.7642 68.2809C17.6526 68.2236 17.52 68.3167 17.52 68.4456" fill="#B9A6A6"/>
<path d="M19.5989 69.6271L17.52 68.6389V68.4455C17.52 68.3381 17.5968 68.2665 17.6944 68.2665C17.7154 68.2665 17.7433 68.2665 17.7642 68.2808L19.4943 69.0971C19.5501 69.1258 19.5989 69.1902 19.5989 69.2618V69.6271Z" fill="#D0BEBA"/>
<path d="M17.5245 68.4478H17.4478V69.1281C17.4478 69.3358 17.5734 69.5363 17.7687 69.6294L19.3245 70.3671L19.4292 70.3885C19.5547 70.3885 19.6733 70.2883 19.6733 70.1379V69.257C19.6733 69.1568 19.6175 69.0708 19.5338 69.0278L17.8036 68.2114L17.699 68.1828C17.5594 68.1828 17.4478 68.2974 17.4478 68.4478H17.5245H17.5943C17.5943 68.3761 17.6362 68.3403 17.699 68.3403L17.7338 68.3475L19.464 69.1639L19.5338 69.257V70.1379C19.5338 70.1952 19.478 70.2453 19.4292 70.2453L19.3803 70.231L17.8245 69.5005C17.685 69.4289 17.5943 69.2857 17.5943 69.1281V68.4478H17.5245" fill="#6A6264"/>
<path d="M81.6657 44.3853L77.2429 42.2842C75.5801 41.5065 75.5914 39.092 77.2429 38.3143L104.47 25.5226C105.07 25.244 105.714 25.1046 106.348 25.1046C106.755 25.1046 107.162 25.1627 107.558 25.2672L82.0956 37.2348C81.1794 37.6643 80.7268 38.5465 80.7268 39.4287C80.7268 39.4752 80.7268 39.5215 80.7268 39.5564C80.6703 39.8117 80.6364 40.0788 80.6251 40.3573C80.6251 40.4502 80.6251 40.5547 80.6251 40.6475C80.6251 40.7056 80.6251 40.7752 80.6251 40.8332C80.5799 42.1217 80.9757 43.6192 81.6657 44.3853" fill="#C7C9C8"/>
<path d="M109.421 28.0127L81.6177 38.6223C79.9547 39.3975 80.5285 43.998 82.1799 44.778L138.313 71.3165C140.234 72.2238 142.459 72.2298 144.392 71.3225L170.297 59.1445C172.019 58.3392 172.733 54.3155 171.012 53.5031L113.18 28.0186C111.986 27.4538 110.616 27.4538 109.421 28.0127Z" fill="#766E70"/>
<path d="M109.421 27.6006L81.6177 38.2101C79.9547 38.9841 80.5285 43.5847 82.1799 44.3659L138.313 70.8971C140.234 71.8117 142.459 71.8117 144.392 70.9104L170.297 58.7264C172.019 57.92 172.733 53.8974 171.012 53.091L113.18 27.6065C111.986 27.0417 110.616 27.0357 109.421 27.6006" fill="#D6C0BF"/>
<path d="M141.227 70.2047C141.077 69.0248 142.623 68.8343 143.522 68.2816L81.6168 38.2131C81.4554 38.2842 81.3285 38.3906 81.2016 38.5208C81.1324 38.6036 81.0633 38.7101 80.9941 38.8166C80.9364 38.935 80.8788 39.0534 80.8327 39.1836C80.8096 39.2546 80.7981 39.3255 80.775 39.3847C80.6712 39.7279 80.625 40.1303 80.625 40.5326C80.625 40.6983 80.6251 40.8617 80.6366 41.0333C80.6481 41.1978 80.6596 41.3693 80.6827 41.5349C80.7634 42.1243 80.9364 42.696 81.1556 43.1788C81.2247 43.3173 81.2939 43.451 81.3631 43.5717C81.4438 43.6924 81.5245 43.806 81.6052 43.9078C81.6975 44.0096 81.7898 44.0983 81.8821 44.1741C81.9743 44.251 82.0781 44.3136 82.1819 44.3645L138.31 70.8969C139.855 71.6259 141.585 71.7727 143.211 71.3348C142.254 71.3467 141.343 71.1822 141.227 70.2047" fill="#BEABAC"/>
<path d="M109.418 24.6429L82.1867 37.4424C80.5243 38.2172 80.5244 40.6283 82.1751 41.4092L138.311 67.9403C140.231 68.8545 142.455 68.8605 144.387 67.9535L170.307 55.7692C172.016 54.9691 172.028 52.463 170.307 51.6509L113.187 24.6501C111.993 24.0855 110.612 24.0855 109.418 24.6429" fill="#F5E4D9"/>
<path d="M148.27 65.1483C148.27 65.1483 149.391 64.5648 151.084 63.7274C151.936 63.3213 152.917 62.8193 153.991 62.3185C155.053 61.8106 156.186 61.2715 157.33 60.7311C158.474 60.2052 159.618 59.6781 160.692 59.1833C161.766 58.6885 162.77 58.2512 163.634 57.8571C164.498 57.4833 165.21 57.1658 165.724 56.943C166.226 56.7273 166.518 56.6076 166.518 56.6076C166.588 56.5752 166.658 56.6075 166.693 56.683C166.716 56.7465 166.681 56.8233 166.623 56.8544C166.623 56.8544 166.343 57.0006 165.852 57.2486C165.362 57.4954 164.662 57.8439 163.809 58.2692C162.957 58.6825 161.976 59.1773 160.914 59.6781C159.852 60.186 158.708 60.7251 157.575 61.2714C156.431 61.7974 155.287 62.3246 154.213 62.8194C153.139 63.3142 152.123 63.7526 151.271 64.1396C149.543 64.9075 148.376 65.3963 148.376 65.3963C148.317 65.4215 148.235 65.3891 148.212 65.3196C148.189 65.2501 148.212 65.1806 148.27 65.1483" fill="white"/>
<path d="M151.593 65.0576C151.593 65.0576 152.398 64.6447 153.622 64.0354C154.241 63.7434 154.964 63.3952 155.734 63.0205C156.503 62.6591 157.331 62.2653 158.148 61.8787C158.976 61.4909 159.804 61.1104 160.574 60.7549C161.355 60.3994 162.078 60.0762 162.697 59.7901C163.326 59.5172 163.851 59.2887 164.213 59.1307C164.574 58.9715 164.784 58.8829 164.784 58.8829L164.901 58.9272L164.854 59.0421C164.854 59.0421 164.656 59.1426 164.295 59.321C163.945 59.4981 163.431 59.7519 162.813 60.0571C162.207 60.3551 161.484 60.7045 160.726 61.0779C159.944 61.4406 159.128 61.8333 158.3 62.2211C157.471 62.6077 156.655 62.9882 155.873 63.3437C155.104 63.6992 154.369 64.0235 153.751 64.3084C152.503 64.8601 151.663 65.2156 151.663 65.2156L151.546 65.1713L151.593 65.0576" fill="white"/>
<path d="M115.234 27.5773L86.7678 40.9473C86.5227 41.0623 86.5227 41.4168 86.7678 41.5317L136.838 65.1371C137.095 65.2581 137.387 65.2581 137.643 65.1371L165.911 51.8558C166.192 51.7228 166.192 51.3169 165.911 51.1828L115.841 27.5773C115.643 27.4815 115.433 27.4815 115.234 27.5773" fill="#DBDD46"/>
<path d="M115.236 27.5789L115.154 27.4004L86.6858 40.7772C86.4991 40.8659 86.394 41.0562 86.394 41.2407C86.394 41.4251 86.4991 41.6157 86.6858 41.7103L136.759 65.3099C136.911 65.3866 137.075 65.4178 137.238 65.4178C137.401 65.4178 137.565 65.3867 137.716 65.3172L165.986 52.0279C166.196 51.9333 166.313 51.7176 166.302 51.5212C166.313 51.3175 166.196 51.108 165.986 51.0134L115.913 27.4004C115.796 27.343 115.656 27.3179 115.528 27.3179C115.411 27.3179 115.283 27.343 115.154 27.4004L115.236 27.5789L115.306 27.7502C115.388 27.7178 115.458 27.6987 115.528 27.6987C115.609 27.6987 115.691 27.7178 115.761 27.7502L165.835 51.3619C165.905 51.3942 165.928 51.4505 165.94 51.5212C165.928 51.5847 165.905 51.6482 165.835 51.6793L137.553 64.9675C137.46 65.0118 137.343 65.0369 137.238 65.0369C137.121 65.0369 137.016 65.0117 136.911 64.9614L86.8493 41.3617L86.7676 41.2407L86.8493 41.127L115.306 27.7502L115.236 27.5789" fill="#585254"/>
<path d="M102.025 31.019L96.1706 33.7623C96.0578 33.8201 96.0014 33.9707 96.0578 34.098C96.1029 34.2253 96.2608 34.2832 96.3736 34.2253L102.228 31.4704C102.352 31.4125 102.397 31.2621 102.341 31.1348C102.284 31.0074 102.149 30.9611 102.025 31.019" fill="#585254"/>
<path d="M140.885 63.4044L106.634 31.8277L115.316 27.7477C115.386 27.7153 115.456 27.6962 115.538 27.6962C115.62 27.6962 115.69 27.7153 115.76 27.7477L165.847 51.3595C165.905 51.3919 165.928 51.4481 165.94 51.5188C165.928 51.5823 165.905 51.6458 165.847 51.6769L140.885 63.4044Z" fill="#F3F637"/>
<path d="M141.024 63.5482L140.872 63.4081L165.836 51.681C165.906 51.6498 165.929 51.5863 165.929 51.5229C165.929 51.4534 165.906 51.3959 165.836 51.3636L115.757 27.7512C115.687 27.72 115.605 27.7009 115.523 27.7009C115.453 27.7009 115.383 27.72 115.302 27.7512L106.619 31.8315L106.49 31.7177L115.232 27.5799C115.325 27.5356 115.43 27.5105 115.523 27.5105C115.628 27.5105 115.733 27.5356 115.827 27.5799L165.801 51.2307C166.081 51.3636 166.081 51.7707 165.801 51.9037L141.024 63.5482" fill="#686366"/>
<path d="M156.894 57.5871L151.208 60.2521C150.952 60.3798 150.94 60.7795 151.208 60.906L152.812 61.6615C153.068 61.782 153.371 61.782 153.626 61.6615L159.127 59.0789C159.406 58.9453 159.418 58.5203 159.127 58.3866L157.429 57.5871C157.267 57.5048 157.069 57.5048 156.894 57.5871" fill="#A79494"/>
<path d="M159.128 58.3865L157.43 57.587C157.267 57.5047 157.069 57.5047 156.895 57.587L153.138 59.3508L157.43 59.8783L159.128 59.0788C159.407 58.9452 159.418 58.5202 159.128 58.3865Z" fill="#B7A19F"/>
<path d="M156.892 57.5866L156.857 57.4971L151.182 60.1692C151.007 60.2516 150.926 60.4163 150.926 60.581C150.926 60.7397 151.007 60.9056 151.182 60.988L152.775 61.7423C152.926 61.8127 153.077 61.8448 153.228 61.8448C153.38 61.8448 153.531 61.8127 153.671 61.7423L159.171 59.1596C159.346 59.0772 159.439 58.8995 159.427 58.7288C159.439 58.557 159.346 58.3862 159.171 58.3039L157.473 57.4971C157.369 57.453 157.264 57.4339 157.16 57.4339C157.066 57.4339 156.962 57.453 156.857 57.4971L156.892 57.5866L156.938 57.669C157.008 57.6309 157.09 57.6176 157.16 57.6176C157.241 57.6176 157.322 57.6368 157.404 57.669L159.09 58.4686C159.206 58.5187 159.253 58.6274 159.253 58.7288C159.253 58.8362 159.206 58.9448 159.09 58.9949L153.601 61.5776C153.473 61.6289 153.356 61.6599 153.228 61.6599C153.101 61.6599 152.973 61.6289 152.856 61.5776L151.251 60.8162C151.158 60.772 151.1 60.6765 151.1 60.581C151.1 60.4795 151.158 60.3853 151.251 60.34L156.938 57.669L156.892 57.5866" fill="white"/>
<path d="M109.424 24.6402L109.33 24.4372L82.1024 37.2364C81.1893 37.6616 80.7329 38.5506 80.7329 39.4263C80.7329 40.296 81.1894 41.1837 82.0907 41.6089L138.221 68.1407C139.216 68.6103 140.292 68.8445 141.358 68.8445C142.423 68.8445 143.488 68.6163 144.483 68.1538L170.388 55.9697C171.336 55.5324 171.816 54.6122 171.816 53.7101C171.816 52.8032 171.336 51.889 170.412 51.4518L113.275 24.4432C112.655 24.1525 111.964 24 111.297 24C110.618 24 109.951 24.1453 109.33 24.4372L109.424 24.6402L109.506 24.8432C110.08 24.5765 110.688 24.4432 111.297 24.4432C111.906 24.4432 112.526 24.5765 113.1 24.8504L170.224 51.8518C170.997 52.2194 171.383 52.9557 171.383 53.7101C171.383 54.4597 170.997 55.2021 170.213 55.5697L144.296 67.7478C143.359 68.185 142.364 68.4073 141.358 68.4073C140.351 68.4073 139.344 68.1851 138.408 67.7406L82.278 41.2089C81.5288 40.8545 81.1659 40.1434 81.1659 39.4263C81.1659 38.7031 81.5288 37.992 82.278 37.6364L109.506 24.8432L109.424 24.6402" fill="#948E88"/>
<path d="M94.9462 34.7904C94.9012 34.7097 94.8339 34.6291 94.7328 34.583C94.6205 34.5253 94.4744 34.4908 94.3171 34.4908C94.0812 34.4908 93.8677 34.5715 93.7554 34.6868C93.6992 34.7559 93.6655 34.825 93.6655 34.9057L93.6879 34.9865C93.7328 35.1824 94.0025 35.3208 94.3171 35.3208C94.6878 35.3208 94.9687 35.1363 94.9687 34.9057L94.9462 34.7904" fill="#454043"/>
<path d="M98.3934 31.5697C98.3709 31.5119 98.3258 31.4658 98.2583 31.4427C98.1795 31.3965 98.0895 31.3733 97.9882 31.3733C97.8307 31.3733 97.6956 31.4311 97.6168 31.5119L97.5605 31.6506L97.5718 31.7083C97.6055 31.8354 97.7744 31.9162 97.9882 31.9162C98.2246 31.9162 98.4159 31.8007 98.4159 31.6506L98.3934 31.5697Z" fill="#454043"/>
<path d="M155.175 64.2887V65.0369C155.175 65.1574 155.291 65.2396 155.396 65.1895L158.942 63.5083C159 63.4761 159.035 63.4189 159.035 63.3557V62.6194C159.035 62.4989 158.919 62.4166 158.803 62.4667L155.314 64.0537C155.221 64.0978 155.175 64.1873 155.175 64.2887" fill="#585254"/>
<path d="M158.826 62.4668V62.4989V63.2351C158.826 63.2983 158.791 63.3616 158.733 63.3879L155.198 65.0691L155.175 65.075C155.198 65.1705 155.303 65.2337 155.396 65.1895L158.942 63.5084C159 63.4761 159.035 63.4189 159.035 63.3557V62.6194C159.035 62.5049 158.919 62.4286 158.826 62.4668" fill="white"/>
<path d="M147.262 68.2766C147.262 68.8161 146.962 69.3687 146.592 69.5074C146.222 69.6473 145.922 69.3296 145.922 68.7901C145.922 68.2446 146.222 67.6992 146.592 67.5533C146.962 67.4134 147.262 67.7371 147.262 68.2766Z" fill="#585254"/>
<path d="M149.198 67.502C149.198 67.8011 149.036 68.1121 148.816 68.194C148.619 68.27 148.446 68.093 148.446 67.788C148.446 67.4829 148.619 67.1791 148.816 67.096C149.036 67.0201 149.198 67.1981 149.198 67.502Z" fill="#585254"/>
<path d="M165.073 60.0731C165.073 60.3783 164.909 60.6896 164.699 60.765C164.489 60.8476 164.326 60.6631 164.326 60.3651C164.326 60.0611 164.489 59.7499 164.699 59.6733C164.909 59.5907 165.073 59.775 165.073 60.0731Z" fill="#585254"/>
<path d="M166.514 59.4134C166.514 59.7116 166.351 60.0219 166.141 60.1046C165.93 60.1813 165.755 60.0028 165.755 59.6986C165.755 59.3943 165.93 59.0828 166.141 59.0073C166.351 58.9247 166.514 59.1079 166.514 59.4134Z" fill="#585254"/>
<path d="M167.956 58.7468C167.956 59.0513 167.781 59.3558 167.582 59.4385C167.372 59.514 167.197 59.3366 167.197 59.0321C167.197 58.7336 167.372 58.4231 167.582 58.3404C167.781 58.2636 167.956 58.4423 167.956 58.7468Z" fill="#585254"/>
<path d="M169.387 58.082C169.387 58.3867 169.223 58.6974 169.013 58.7742C168.802 58.8557 168.639 58.6722 168.639 58.3675C168.639 58.07 168.802 57.7581 169.013 57.6765C169.223 57.5997 169.387 57.7773 169.387 58.082Z" fill="#585254"/>
<path d="M141.372 71.5778C140.319 71.5778 139.29 71.3496 138.318 70.8933L82.1831 44.3617L138.318 70.8933C139.29 71.3496 140.319 71.5778 141.372 71.5778C142.402 71.5778 143.432 71.3556 144.392 70.9053L170.312 58.7215C170.628 58.5762 170.909 58.3216 171.143 57.9914C170.909 58.3216 170.628 58.5762 170.312 58.7215L144.392 70.9053C143.432 71.3556 142.402 71.5778 141.372 71.5778ZM171.143 57.9914C171.154 57.9854 171.154 57.9793 171.154 57.9733C171.154 57.9793 171.154 57.9854 171.143 57.9914ZM171.166 57.9662C171.166 57.9662 171.166 57.9601 171.178 57.9541C171.166 57.9601 171.166 57.9662 171.166 57.9662ZM171.178 57.941C171.178 57.941 171.178 57.9409 171.19 57.9349C171.178 57.9409 171.178 57.941 171.178 57.941ZM171.201 57.9217C171.201 57.9157 171.201 57.9157 171.201 57.9157C171.201 57.9157 171.201 57.9157 171.201 57.9217Z" fill="#6B6466"/>
<path d="M141.368 71.581C140.326 71.581 139.284 71.3527 138.312 70.895C139.284 71.3527 140.326 71.581 141.356 71.581C141.988 71.581 142.597 71.4982 143.206 71.3336C143.182 71.3396 143.147 71.3396 143.112 71.3396C142.316 71.3396 141.578 71.2002 141.321 70.5587C141.356 70.5587 141.391 70.5587 141.426 70.5587C142.468 70.5587 143.51 70.3304 144.482 69.8799L145.98 69.1699C146.062 69.3981 146.226 69.5376 146.425 69.5376C146.484 69.5376 146.53 69.5315 146.601 69.5062C146.893 69.3909 147.151 69.0041 147.233 68.5789L148.485 67.9951C148.532 68.1284 148.614 68.2113 148.731 68.2113C148.766 68.2113 148.79 68.2053 148.825 68.1921C149 68.1284 149.141 67.9061 149.188 67.6586L155.17 64.8476V65.0386C155.17 65.1335 155.252 65.2032 155.334 65.2032C155.357 65.2032 155.381 65.2031 155.392 65.1911L158.939 63.5092C158.998 63.4768 159.033 63.4204 159.033 63.3567V63.0335L164.336 60.5396C164.383 60.691 164.477 60.7871 164.594 60.7871C164.629 60.7871 164.664 60.7799 164.688 60.7679C164.875 60.7042 165.027 60.4627 165.062 60.2032L165.776 59.8669C165.811 60.0255 165.917 60.1264 166.034 60.1264C166.069 60.1264 166.104 60.1204 166.127 60.1072C166.315 60.0375 166.467 59.784 166.502 59.5233L167.216 59.1869C167.251 59.3587 167.345 59.4609 167.474 59.4609C167.509 59.4609 167.544 59.4536 167.567 59.4416C167.755 59.3719 167.919 59.1172 167.942 58.8445L168.644 58.5154C168.691 58.686 168.785 58.794 168.914 58.794C168.949 58.794 168.972 58.7881 169.019 58.7749C169.195 58.7052 169.358 58.4445 169.382 58.1658L170.576 57.6071C171.173 57.3212 171.665 56.6557 171.957 55.8629C171.852 56.6053 171.583 57.3536 171.196 57.9183C171.196 57.9183 171.196 57.9184 171.196 57.9244C171.196 57.9244 171.185 57.9315 171.185 57.9375C171.173 57.9435 171.173 57.9435 171.173 57.9435C171.173 57.9495 171.173 57.9567 171.173 57.9567C171.161 57.9627 171.161 57.9688 171.161 57.9688C171.161 57.976 171.15 57.976 171.15 57.976C171.15 57.982 171.15 57.988 171.138 57.994C170.904 58.3244 170.623 58.5778 170.307 58.7243L144.388 70.9083C143.428 71.3588 142.398 71.581 141.368 71.581V71.581ZM81.7451 44.0526C81.7451 44.0526 81.7451 44.0526 81.7451 44.0466C81.7451 44.0526 81.7451 44.0526 81.7451 44.0526ZM81.7451 44.0466C81.71 44.0154 81.6748 43.983 81.6514 43.9445C81.6748 43.983 81.71 44.0154 81.7451 44.0466Z" fill="#B1A0A1"/>
<path d="M141.365 71.5798C140.327 71.5798 139.278 71.3515 138.309 70.8947L82.1793 44.3632C82.0294 44.2934 81.8795 44.1857 81.7527 44.052C81.7527 44.052 81.7527 44.052 81.7527 44.0461C81.7527 44.0461 81.7527 44.0461 81.7412 44.0461C81.7066 44.0142 81.6835 43.9822 81.6489 43.9443C81.2107 43.4556 80.9109 42.6877 80.7495 41.863C81.0147 42.4594 81.3722 42.9291 81.8103 43.1386L85.5231 44.8956V45.1241C85.5231 45.3146 85.6268 45.4861 85.7998 45.5689L87.3564 46.299C87.3795 46.3108 87.4026 46.3179 87.4257 46.3179C87.5294 46.3179 87.5986 46.241 87.5986 46.1404V45.8801L92.0493 47.9803V48.2974C92.0493 48.5258 92.1762 48.7293 92.3837 48.824L96.7076 50.8733C96.7768 50.8994 96.8345 50.9183 96.9037 50.9183C97.1227 50.9124 97.3302 50.7278 97.3302 50.4746L97.9529 50.7727V51.0827C97.9529 51.2803 98.0682 51.4579 98.2411 51.5395L102.577 53.59C102.623 53.6149 102.669 53.6278 102.727 53.6278C102.911 53.6278 103.084 53.4693 103.084 53.2527V53.196L138.355 69.8665C139.301 70.3114 140.304 70.5398 141.319 70.5587C141.572 71.1988 142.322 71.3385 143.117 71.3385C143.152 71.3385 143.175 71.3385 143.21 71.3326C142.599 71.497 141.987 71.5798 141.365 71.5798" fill="#9F9192"/>
<path d="M155.334 65.2007C155.253 65.2007 155.171 65.1316 155.171 65.0361V64.8452L158.834 63.126V63.2334C158.834 63.2966 158.799 63.3599 158.741 63.3861L155.195 65.0671L155.183 65.0742C155.195 65.1494 155.264 65.2007 155.334 65.2007C155.357 65.2007 155.381 65.2007 155.404 65.1876C155.381 65.2007 155.357 65.2007 155.334 65.2007Z" fill="#544D50"/>
<path d="M155.338 65.2016C155.268 65.2016 155.198 65.1514 155.175 65.075L155.198 65.0691L158.733 63.3879C158.791 63.3616 158.826 63.2984 158.826 63.2351V63.1265L159.035 63.0324V63.3557C159.035 63.419 159 63.4762 158.942 63.5084L155.396 65.1896C155.384 65.2015 155.361 65.2016 155.338 65.2016Z" fill="#CECCCB"/>
<path d="M146.423 69.539C146.227 69.539 146.065 69.399 145.984 69.1713L147.232 68.5809C147.14 69.0054 146.897 69.3931 146.597 69.5069C146.539 69.533 146.481 69.539 146.423 69.539Z" fill="#544D50"/>
<path d="M148.725 68.212C148.621 68.212 148.528 68.1289 148.482 67.996L149.187 67.66C149.141 67.9069 148.991 68.1289 148.817 68.193C148.794 68.2049 148.759 68.212 148.725 68.212Z" fill="#544D50"/>
<path d="M164.596 60.7867C164.479 60.7867 164.386 60.6909 164.339 60.5389L165.063 60.2026C165.028 60.4636 164.876 60.7041 164.689 60.7676C164.666 60.7807 164.631 60.7867 164.596 60.7867Z" fill="#544D50"/>
<path d="M166.038 60.1263C165.921 60.1263 165.816 60.0245 165.769 59.8652L166.504 59.5225C166.469 59.7837 166.318 60.0376 166.131 60.1071C166.108 60.1191 166.073 60.1263 166.038 60.1263" fill="#544D50"/>
<path d="M167.479 59.4591C167.35 59.4591 167.257 59.3585 167.222 59.187L167.946 58.8441C167.911 59.1175 167.759 59.3704 167.572 59.4399C167.549 59.4531 167.502 59.4591 167.479 59.4591" fill="#544D50"/>
<path d="M168.919 58.7921C168.791 58.7921 168.685 58.6853 168.65 58.5138L169.387 58.1646C169.352 58.4442 169.2 58.7045 169.013 58.7741C168.978 58.7861 168.943 58.7921 168.919 58.7921Z" fill="#544D50"/>
<path d="M92.127 47.6061V48.2986C92.127 48.4949 92.2394 48.668 92.4082 48.7604L96.7388 50.815C96.9863 50.9189 97.2562 50.7457 97.2562 50.4687V49.6953C97.2562 49.5452 97.1774 49.4183 97.0424 49.3606L92.6331 47.2713C92.3969 47.1558 92.127 47.3406 92.127 47.6061" fill="#B9A6A6"/>
<path d="M97.1861 50.1791L92.1919 47.8129V47.6051C92.1919 47.432 92.3269 47.3051 92.4844 47.3051L92.6081 47.3397L97.0173 49.4173C97.1186 49.4751 97.1861 49.579 97.1861 49.6944V50.1791" fill="#D0BEBA"/>
<path d="M92.1188 47.607H92.0513V48.2996C92.0513 48.5304 92.1751 48.7267 92.3775 48.8306L96.7084 50.8738C96.7646 50.8969 96.8321 50.92 96.8883 50.92C97.1245 50.92 97.3271 50.7353 97.3271 50.4698V49.6964C97.3271 49.5232 97.2258 49.3616 97.0683 49.2924L92.6588 47.2146C92.6025 47.1799 92.5351 47.1683 92.4788 47.1683C92.2538 47.1683 92.0513 47.353 92.0513 47.607H92.1188H92.1863C92.1975 47.4338 92.3326 47.3069 92.4788 47.3069L92.6025 47.3415L97.0121 49.4193C97.1133 49.477 97.1808 49.581 97.1808 49.6964V50.4698C97.1808 50.643 97.0458 50.7699 96.8883 50.7699L96.7646 50.7468L92.4338 48.6921C92.2875 48.6228 92.1863 48.4727 92.1863 48.2996V47.607H92.1188Z" fill="#6A6264"/>
<path d="M97.9585 50.392V51.0753C97.9585 51.2721 98.0713 51.4574 98.2406 51.5384L102.585 53.5881C102.822 53.7039 103.093 53.5186 103.093 53.2522V52.4764C103.093 52.3258 103.014 52.1985 102.878 52.1406L98.4663 50.0563C98.2293 49.9405 97.9585 50.1257 97.9585 50.392Z" fill="#B9A6A6"/>
<path d="M103.093 52.9974L97.9585 50.5657V50.392C97.9585 50.1835 98.1278 50.0215 98.3196 50.0215C98.3648 50.0215 98.4212 50.0215 98.4663 50.0562L102.878 52.1406C103.014 52.1985 103.093 52.3258 103.093 52.4763V52.9974" fill="#D1BFBB"/>
<path d="M97.9516 50.3883H97.8838V51.0831C97.8838 51.3147 98.008 51.5115 98.2111 51.6157L102.544 53.6654C102.601 53.6886 102.669 53.7117 102.725 53.7117C102.951 53.7001 103.154 53.5149 103.154 53.2601V52.4842C103.154 52.3105 103.052 52.1484 102.905 52.0789L98.4932 49.9945C98.4368 49.9598 98.369 49.9481 98.3126 49.9481C98.0869 49.9481 97.8838 50.1451 97.8838 50.3883H97.9516H98.0192C98.0192 50.2262 98.1546 50.0988 98.3126 50.0988L98.4368 50.1218L102.849 52.2063C102.951 52.2642 103.007 52.3684 103.007 52.4842V53.2601C103.007 53.4222 102.872 53.5496 102.725 53.5496L102.601 53.5264L98.2675 51.4767C98.1095 51.4073 98.0192 51.2568 98.0192 51.0831V50.3883H97.9516" fill="#6A6264"/>
<path d="M85.519 44.4447V45.122C85.519 45.3172 85.6309 45.4895 85.7988 45.5699L87.354 46.3048C87.4659 46.3622 87.6002 46.2703 87.6002 46.144V45.2598C87.6002 45.1909 87.5666 45.1221 87.4994 45.0992L85.7651 44.2839C85.6532 44.2264 85.519 44.3183 85.519 44.4447" fill="#B9A6A6"/>
<path d="M87.6002 45.6273L85.519 44.6399V44.4446C85.519 44.3413 85.5973 44.2609 85.698 44.2609C85.7204 44.2609 85.7427 44.2724 85.7651 44.2839L87.4994 45.0992C87.5666 45.1221 87.6002 45.1909 87.6002 45.2598V45.6273Z" fill="#D0BEBA"/>
<path d="M85.5325 44.45H85.4541V45.1274C85.4541 45.3341 85.5772 45.5408 85.7786 45.6327L87.3341 46.3676L87.4347 46.3905C87.569 46.3905 87.6809 46.2872 87.6809 46.1379V45.2538C87.6809 45.1619 87.625 45.07 87.5355 45.0241L85.8122 44.2088L85.7003 44.1859C85.5772 44.1859 85.4541 44.3007 85.4541 44.45H85.5325H85.5997C85.5997 44.3811 85.6443 44.3351 85.7003 44.3351L85.7451 44.3466L87.4795 45.1619L87.5355 45.2538V46.1379C87.5355 46.1954 87.4795 46.2412 87.4347 46.2412L87.39 46.2298L85.8346 45.4948C85.6891 45.4259 85.5997 45.2767 85.5997 45.1274V44.45H85.5325" fill="#6A6264"/>
</svg>
