<svg width="180" height="120" viewBox="0 0 180 120" fill="none" xmlns="http://www.w3.org/2000/svg">
<rect width="180" height="120" fill="white"/>
<path d="M147.786 35.2157L146.933 34.8205L147.786 34.4322L148.639 34.8205L147.786 35.2157Z" fill="#ECECEA"/>
<path d="M12.6317 71.5832L8.46037 69.6606C7.84316 69.3752 7.84994 68.4921 8.46037 68.2068L10.2917 67.3711L11.8178 68.0777C11.6618 68.2339 11.5804 68.4446 11.5804 68.6484C11.5804 68.7367 11.594 68.825 11.6279 68.9065C11.6211 68.9269 11.6211 68.9541 11.6211 68.9745C11.6211 69.5383 11.8245 70.2041 12.0823 70.7476C12.0823 70.7476 12.0823 70.7476 12.0823 70.7544C12.0823 70.7544 12.0823 70.7544 12.0891 70.7612C12.2587 71.1144 12.4553 71.4201 12.6317 71.5832V71.5832ZM12.6249 67.6633L11.1463 66.9839L62.3416 43.5935L63.8203 44.2796L12.6249 67.6633V67.6633ZM64.6748 43.8856L63.1962 43.2063L102.868 25.0808C103.248 24.9042 103.648 24.8227 104.055 24.8227C104.469 24.8227 104.876 24.9042 105.255 25.0877L105.54 25.2167L64.6748 43.8856" fill="#C7C9C8"/>
<path d="M11.8208 68.0789L10.2925 67.3756L11.1436 66.9899L12.6222 67.6619L12.0506 67.9295C11.9637 67.9668 11.8829 68.0166 11.8208 68.0789" fill="#BFC0C0"/>
<path d="M63.8215 44.2733L62.3452 43.5929L63.2009 43.2003L64.6771 43.8873L63.8215 44.2733Z" fill="#BFC0C0"/>
<path d="M169.044 53.1484L108.316 26.5072C107.892 26.3132 107.405 26.3132 106.989 26.5072L72.5429 41.6168L11.915 68.1145C11.6496 68.3588 11.5922 68.8042 11.6424 69.2927C11.75 70.198 12.2737 71.2686 12.6682 71.6063L12.7973 71.6925L71.1154 98.5709L71.18 98.6068H71.1871C71.3091 98.6643 71.4454 98.7146 71.5745 98.7577L71.7108 98.8008C71.7969 98.8295 71.8829 98.8511 71.9762 98.8726C72.0264 98.887 72.0838 98.9014 72.134 98.9086C72.2273 98.9301 72.3205 98.9445 72.4066 98.9589C72.4568 98.9589 72.4999 98.9732 72.5429 98.9732C73.3104 99.0595 74.0779 98.9373 74.7881 98.6068L168.197 55.8571C168.8 55.2823 169.202 54.5639 169.044 53.1484" fill="#28292A"/>
<path d="M72.5424 98.9798C72.1081 98.9337 71.6804 98.8282 71.2724 98.6503C71.3711 98.6898 71.4698 98.7227 71.5685 98.7622L71.7067 98.8084C71.7988 98.8348 71.8844 98.8546 71.9765 98.8809C72.0225 98.8941 72.0818 98.9007 72.1278 98.9139C72.2199 98.9337 72.3121 98.9468 72.4042 98.96C72.4503 98.9666 72.4963 98.9732 72.5424 98.9798V98.9798ZM12.7942 71.6937C12.7547 71.6805 12.7153 71.6475 12.6758 71.6146L12.7942 71.6937Z" fill="#2A2B2C"/>
<path d="M12.0934 70.76C12.0872 70.7538 12.0872 70.7475 12.0872 70.7475C12.0872 70.7475 12.0872 70.7538 12.0934 70.76ZM12.081 70.7413C11.826 70.2065 11.627 69.5347 11.627 68.975C11.627 68.9501 11.6269 68.9253 11.6331 68.9066C11.6269 69.031 11.6332 69.1616 11.6456 69.2922C11.7016 69.7711 11.8757 70.2998 12.081 70.7413" fill="#27292A"/>
<path d="M72.5424 98.9798C72.4963 98.9732 72.4503 98.9666 72.4042 98.96C72.3121 98.9468 72.22 98.9337 72.1278 98.9139C72.0818 98.9007 72.0226 98.8941 71.9765 98.8809C71.8844 98.8546 71.7988 98.8348 71.7067 98.8084L71.5685 98.7622C71.4698 98.7227 71.3711 98.6898 71.2724 98.6503C71.2395 98.6371 71.2132 98.6239 71.1737 98.6107L12.7942 71.6937L12.6758 71.6146C12.485 71.4564 12.2744 71.1466 12.0901 70.7643C12.0836 70.7577 12.0836 70.7511 12.0836 70.7511C12.077 70.7446 12.077 70.7446 12.077 70.7446C11.873 70.303 11.6953 69.7757 11.6427 69.2946C11.6295 69.1628 11.623 69.031 11.6295 68.9123C11.6888 69.1035 11.8269 69.2748 12.0441 69.3803L13.4917 70.0393L18.6572 72.4252L18.7954 72.7218L19.0454 72.6098L63.8763 93.2853C63.8039 93.3248 63.7644 93.3446 63.7644 93.3446C63.7183 93.371 63.692 93.4237 63.7184 93.483C63.7381 93.5225 63.771 93.5423 63.8105 93.5423C63.8302 93.5423 63.8434 93.5423 63.8565 93.5357C63.8565 93.5357 63.9552 93.4896 64.1395 93.4171L71.1737 96.6598C71.6146 96.8575 72.0752 96.9827 72.5424 97.0289V98.9798" fill="#1D1D1E"/>
<path d="M106.451 24.7972L12.0515 67.9277C11.4346 68.2079 11.4345 69.0916 12.0443 69.3719L71.1801 96.6598C72.3278 97.1771 73.6405 97.1843 74.7882 96.6598L168.585 53.8167C169.202 53.5293 169.202 52.6456 168.585 52.3654L108.839 24.8044C108.086 24.4523 107.211 24.4524 106.451 24.7972" fill="#353638"/>
<path d="M131.568 35.2892L110.671 25.6377L131.568 35.2892Z" fill="#C8C9C7"/>
<path d="M47.8784 85.9042L19.0539 72.602L37.937 63.9727L64.1234 76.0719L57.2714 80.2232C57.6115 79.7295 57.8059 79.201 57.8059 78.6308C57.8059 78.6238 57.8059 78.6169 57.8059 78.6099C57.8059 78.603 57.8059 78.596 57.8059 78.596C57.8059 78.5891 57.799 78.5821 57.799 78.5752V78.5682C57.799 78.5612 57.799 78.5543 57.799 78.5473C57.799 78.5404 57.799 78.5404 57.799 78.5334C57.799 78.5334 57.799 78.5195 57.799 78.5126C57.799 78.5126 57.799 78.5126 57.799 78.5056C57.799 78.4987 57.799 78.4917 57.799 78.4848C57.799 78.4778 57.799 78.4778 57.799 78.4778C57.799 78.4708 57.792 78.457 57.792 78.45C57.792 78.45 57.792 78.45 57.792 78.443C57.792 78.443 57.792 78.4291 57.792 78.4222V78.4152C57.792 78.4013 57.7851 78.4013 57.7851 78.3874V78.3805C57.7851 78.3735 57.7851 78.3666 57.7851 78.3666C57.7851 78.3596 57.7851 78.3526 57.7851 78.3526C57.7851 78.3457 57.7851 78.3387 57.7851 78.3248C57.7782 78.29 57.7713 78.2692 57.7643 78.2344C57.7643 78.2275 57.7643 78.2136 57.7643 78.2066C57.7643 78.2066 57.7643 78.2066 57.7643 78.1996C57.7643 78.1927 57.7643 78.1858 57.7573 78.1719C57.431 76.4196 55.2581 75.008 52.4326 74.6325C52.4117 74.6325 52.3909 74.6256 52.3701 74.6256C52.3493 74.6186 52.3284 74.6186 52.3076 74.6116H52.3007C52.2799 74.6116 52.259 74.6116 52.2382 74.6116C52.2243 74.6047 52.2035 74.6046 52.1827 74.6046L52.1757 74.5977C52.1549 74.5977 52.1341 74.5977 52.1132 74.5908C52.0924 74.5908 52.0785 74.5908 52.0577 74.5908C52.0508 74.5908 52.0507 74.5908 52.0507 74.5908C52.0299 74.5838 52.0091 74.5838 51.9883 74.5838C51.9675 74.5768 51.9536 74.5769 51.9328 74.5769C51.9258 74.5769 51.9258 74.5769 51.9189 74.5769C51.898 74.5769 51.8842 74.5769 51.8633 74.5769C51.8425 74.5699 51.8216 74.5699 51.8077 74.5699C51.8008 74.5699 51.7939 74.5699 51.7939 74.5699C51.7731 74.5629 51.7522 74.563 51.7314 74.563C51.7106 74.563 51.6967 74.556 51.6759 74.556C51.6759 74.556 51.6689 74.556 51.662 74.556C51.6412 74.556 51.6273 74.556 51.6065 74.556H51.5995C51.5856 74.556 51.5648 74.556 51.5509 74.556C51.544 74.556 51.544 74.556 51.537 74.549C51.5162 74.549 51.4954 74.549 51.4745 74.549C51.4537 74.549 51.4329 74.5491 51.419 74.5421C51.4121 74.5421 51.4051 74.5421 51.4051 74.5421C51.3843 74.5421 51.3704 74.5421 51.3496 74.5421H51.3427C51.3288 74.5421 51.3079 74.5421 51.2871 74.5421C51.2801 74.5421 51.2732 74.5351 51.2732 74.5351C51.2385 74.5351 51.1969 74.5351 51.1552 74.5351C51.1483 74.5351 51.1413 74.5351 51.1413 74.5351C51.1274 74.5351 51.1066 74.5351 51.0858 74.5351C51.065 74.5351 51.0441 74.5351 51.0303 74.5351C51.0233 74.5351 51.0163 74.5351 51.0094 74.5351C50.9955 74.5351 50.9747 74.5351 50.9539 74.5351C47.1703 74.5351 44.1018 76.3709 44.1018 78.6308C44.1018 78.6447 44.1018 78.6517 44.1018 78.6586C44.1018 78.6656 44.1018 78.6656 44.1018 78.6656C44.1018 78.6725 44.1018 78.6794 44.1018 78.6864C44.1018 78.6864 44.1018 78.6864 44.1018 78.6934C44.1018 78.7003 44.1018 78.7072 44.1018 78.7072C44.1018 78.7072 44.1018 78.7142 44.1018 78.7212C44.1018 78.7212 44.1018 78.7281 44.1018 78.7351C44.1018 78.742 44.1018 78.742 44.1018 78.742C44.1018 78.749 44.1018 78.756 44.1018 78.7629C44.1018 78.7699 44.1018 78.7698 44.1018 78.7768C44.1018 78.7837 44.1018 78.7837 44.1018 78.7907V78.7977C44.1018 78.8046 44.1088 78.8046 44.1088 78.8115C44.1088 78.8185 44.1088 78.8185 44.1088 78.8255C44.1088 78.8324 44.1088 78.8324 44.1088 78.8394V78.8463C44.1088 78.8533 44.1087 78.8603 44.1157 78.8672C44.1157 78.8742 44.1157 78.8741 44.1157 78.8811C44.1157 78.888 44.1157 78.8881 44.1157 78.895C44.1157 78.895 44.1157 78.902 44.1157 78.9089C44.1157 78.9089 44.1157 78.9159 44.1227 78.9159C44.1227 78.9228 44.1227 78.9298 44.1227 78.9298C44.1227 78.9298 44.1227 78.9367 44.1227 78.9437C44.1227 78.9506 44.1227 78.9506 44.1227 78.9506C44.1227 78.9576 44.1227 78.9576 44.1227 78.9645C44.1227 78.9715 44.1227 78.9785 44.1227 78.9924C44.1227 78.9924 44.1296 78.9924 44.1296 78.9993C44.1296 79.0063 44.1296 79.0063 44.1296 79.0132V79.0202C44.1296 79.0271 44.1365 79.0271 44.1365 79.0341C44.1365 79.041 44.1365 79.041 44.1365 79.048C44.1365 79.048 44.1365 79.055 44.1435 79.0619V79.0688C44.1435 79.0827 44.1434 79.1036 44.1504 79.1245C44.1504 79.1314 44.1504 79.1384 44.1574 79.1384C44.1574 79.1453 44.1574 79.1454 44.1574 79.1454C44.1574 79.1523 44.1573 79.1593 44.1643 79.1662C44.5808 81.0993 47.2605 82.6152 50.5581 82.7265H50.5651C50.579 82.7265 50.5929 82.7265 50.6067 82.7265C50.6137 82.7265 50.6137 82.7265 50.6137 82.7265C50.6276 82.7265 50.6415 82.7265 50.6554 82.7265C50.6554 82.7265 50.6623 82.7265 50.6693 82.7265C50.6762 82.7265 50.69 82.7265 50.697 82.7265C50.7109 82.7265 50.7109 82.7265 50.7179 82.7265C50.7248 82.7265 50.7386 82.7264 50.7456 82.7334C50.7525 82.7334 50.7595 82.7334 50.7664 82.7334C50.7733 82.7334 50.7873 82.7334 50.7942 82.7334C50.8011 82.7334 50.8012 82.7334 50.8081 82.7334C50.822 82.7334 50.8289 82.7334 50.8428 82.7334C50.8428 82.7334 50.8498 82.7334 50.8567 82.7334C50.8636 82.7334 50.8775 82.7334 50.8844 82.7334C50.8983 82.7334 50.8983 82.7334 50.9052 82.7334C50.9191 82.7334 50.933 82.7334 50.9539 82.7334C51.9188 82.7334 52.8352 82.6082 53.6753 82.3996L47.8784 85.9042V85.9042ZM43.6505 72.3934C43.6089 72.3934 43.5603 72.4004 43.5187 72.4143C43.4354 72.449 43.3798 72.4769 43.3104 72.5047C42.755 72.7481 42.1094 73.0332 41.4152 73.3392C41.075 73.4852 40.7209 73.6451 40.3599 73.812L40.0822 73.9302L40.0197 73.965H39.9989L39.9781 73.9788L39.9434 73.9997C39.8809 74.0345 39.8253 74.0832 39.7906 74.1388C39.7212 74.2501 39.7004 74.3961 39.7351 74.5213C39.7698 74.6464 39.867 74.7646 39.992 74.8202C40.3599 74.9871 40.7209 75.154 41.0819 75.3139C41.1721 75.3556 41.2624 75.3974 41.3527 75.4391C41.4082 75.4669 41.4846 75.4878 41.5609 75.4878C41.6165 75.4878 41.6651 75.4808 41.7137 75.46C41.9081 75.3696 42.0677 75.2931 42.2413 75.2096C42.9216 74.8898 43.5603 74.5907 44.1018 74.3265C44.3795 74.2013 44.6295 74.0831 44.8516 73.9788C44.9627 73.9302 45.0668 73.8815 45.164 73.8328C45.2126 73.812 45.2612 73.7911 45.3098 73.7494C45.3514 73.7077 45.3792 73.666 45.4 73.6173C45.4833 73.4226 45.407 73.2487 45.3376 73.1722C45.2612 73.0958 45.2056 73.0749 45.2056 73.0749C45.2056 73.0749 45.0182 72.9914 44.6989 72.8454C44.5392 72.7689 44.3518 72.6786 44.1227 72.5743C44.0116 72.5256 43.9074 72.463 43.7616 72.4073C43.7269 72.4004 43.6852 72.3934 43.6505 72.3934V72.3934ZM40.3599 70.8776C40.3599 70.8776 40.353 70.8776 40.346 70.8776C40.2905 70.8776 40.2488 70.8915 40.228 70.8984L40.1864 70.9193C40.1864 70.9193 39.4504 71.2461 38.3536 71.7398C38.0689 71.865 37.7704 71.9971 37.458 72.1292C37.2984 72.2057 37.1387 72.2752 36.9721 72.3447C36.8888 72.3795 36.7985 72.4213 36.7221 72.456L36.7082 72.463L36.6805 72.47L36.6527 72.4908L36.5764 72.5464C36.5347 72.5881 36.5 72.6437 36.4722 72.6924C36.4236 72.8037 36.4236 72.9358 36.4652 73.0471C36.493 73.1097 36.5278 73.1583 36.5764 73.207L36.7221 73.3044C36.8957 73.3809 37.0762 73.4643 37.2567 73.5478C37.4302 73.6312 37.6177 73.7215 37.7982 73.805L38.069 73.9302C38.1245 73.958 38.2008 73.9719 38.2633 73.9719C38.3327 73.9719 38.3952 73.965 38.4577 73.9302C39.1866 73.5895 39.9225 73.2626 40.5959 72.9358C40.943 72.7759 41.2693 72.616 41.5817 72.47C41.6581 72.4352 41.7345 72.3934 41.8108 72.3587C41.8872 72.3169 41.9705 72.2891 42.04 72.2057C42.1788 72.0596 42.1857 71.8302 42.0816 71.6911C42.0261 71.6147 41.9497 71.559 41.8802 71.5312C41.8178 71.5034 41.7484 71.4756 41.6859 71.4478C41.5609 71.3921 41.4429 71.3365 41.3318 71.2809C41.1097 71.1835 40.9084 71.0931 40.7556 71.0236C40.6723 70.9818 40.6029 70.9541 40.5404 70.9263C40.4779 70.8915 40.4155 70.8776 40.3599 70.8776V70.8776ZM37.0623 69.3617C37.0554 69.3617 37.0484 69.3617 37.0484 69.3617C36.9929 69.3617 36.9512 69.3686 36.9235 69.3826L36.8818 69.3965C36.8818 69.3965 36.1529 69.7233 35.049 70.217C34.7783 70.3421 34.4728 70.4673 34.1535 70.6133C34.0007 70.6759 33.8342 70.7455 33.6745 70.822C33.5842 70.8567 33.5079 70.8984 33.4176 70.9332L33.4037 70.9402L33.3829 70.954L33.3482 70.9679L33.2788 71.0236C33.2302 71.0653 33.1954 71.114 33.1676 71.1696C33.126 71.2809 33.119 71.406 33.1676 71.5242C33.1885 71.5799 33.2232 71.6355 33.2718 71.6772L33.4176 71.7746C33.5981 71.865 33.7717 71.9415 33.9522 72.0249C34.1327 72.1083 34.3132 72.1988 34.4937 72.2822L34.7714 72.4143C34.8338 72.4351 34.8963 72.449 34.9657 72.449C35.0282 72.449 35.0976 72.4351 35.1532 72.4143C35.8891 72.0736 36.618 71.7328 37.2983 71.406C37.6385 71.2461 37.9718 71.0931 38.2772 70.9471C38.3536 70.9054 38.4369 70.8706 38.5132 70.8359C38.5826 70.8011 38.6729 70.7663 38.7424 70.6898C38.8812 70.5368 38.8812 70.3074 38.7771 70.1614C38.7285 70.0918 38.6451 70.0362 38.5826 70.0084C38.5132 69.9806 38.4508 69.9458 38.3883 69.9249C38.2564 69.8623 38.1453 69.8137 38.0342 69.7581C37.8051 69.6607 37.6177 69.5703 37.4511 69.4938C37.3678 69.459 37.2984 69.4312 37.2359 69.4034C37.1803 69.3686 37.1109 69.3617 37.0623 69.3617V69.3617ZM33.7577 67.8319C33.7577 67.8319 33.7508 67.8319 33.7439 67.8319C33.6953 67.8389 33.6536 67.8458 33.6259 67.8597L33.5842 67.8736C33.5842 67.8736 32.8483 68.2004 31.7514 68.6941C31.4738 68.8123 31.1752 68.9445 30.8628 69.0836C30.6962 69.1531 30.5365 69.2296 30.3699 69.2991C30.2866 69.3408 30.2033 69.3756 30.12 69.4104L30.1061 69.4173L30.0853 69.4312L30.0506 69.4452L29.9742 69.5008C29.9325 69.5425 29.8978 69.5911 29.87 69.6468C29.8214 69.758 29.8215 69.8902 29.8631 70.0084C29.8909 70.064 29.9256 70.1196 29.9673 70.1544L30.12 70.2517C30.2936 70.3352 30.4741 70.4256 30.6546 70.502C30.8351 70.5924 31.0086 70.6689 31.1961 70.7593L31.4668 70.8845C31.5293 70.9193 31.5987 70.9332 31.6612 70.9332C31.7306 70.9332 31.7931 70.9193 31.8556 70.8845C32.5845 70.5507 33.3204 70.217 34.0007 69.8901C34.3409 69.7233 34.6672 69.5703 34.9796 69.4173C35.0629 69.3826 35.1393 69.3478 35.2156 69.313C35.285 69.2713 35.3684 69.2505 35.4448 69.167C35.5767 69.021 35.5836 68.7915 35.4795 68.6385C35.4309 68.569 35.3476 68.5133 35.2781 68.4855C35.2156 68.4577 35.1462 68.4299 35.0838 68.3951C34.9588 68.3395 34.8407 68.2908 34.7297 68.2421C34.5075 68.1378 34.3131 68.0475 34.1535 67.9779C34.0702 67.9432 34.0008 67.9015 33.9383 67.8806C33.8758 67.8458 33.8133 67.8319 33.7577 67.8319V67.8319ZM18.6582 72.4213L13.4932 70.0362L110.672 25.6378L131.568 35.2893L124.459 39.5866L107.464 31.7638H107.395L37.6316 63.5624L37.5552 63.6389C37.5552 63.6389 37.5552 63.6389 37.5552 63.6459L18.6027 72.303L18.6582 72.4213Z" fill="#3A3C3E"/>
<path d="M45.1765 73.1264L43.7975 72.4904C43.7013 72.4519 43.5987 72.4519 43.5025 72.4904L40.0325 74.0772C39.7567 74.1993 39.7567 74.5912 40.0325 74.7132L41.4115 75.3557C41.5077 75.3942 41.6104 75.3942 41.7002 75.3557L45.1702 73.7688C45.446 73.6404 45.4459 73.2549 45.1765 73.1264Z" fill="#414345"/>
<path d="M40.2143 70.9646L36.7361 72.5464C36.4675 72.6745 36.4675 73.0588 36.7361 73.1869L38.1172 73.8208C38.2131 73.8721 38.3153 73.8721 38.4112 73.8208L41.883 72.239C42.1516 72.1173 42.1516 71.7267 41.883 71.5986L40.502 70.9646C40.4125 70.9262 40.3038 70.9262 40.2143 70.9646Z" fill="#414345"/>
<path d="M36.904 69.4486L33.4368 71.0318C33.1627 71.1595 33.1628 71.5489 33.4305 71.6702L34.8071 72.3086C34.9027 72.3469 35.0111 72.3469 35.1067 72.3086L38.5739 70.719C38.8416 70.5977 38.8479 70.2082 38.5739 70.0869L37.1908 69.4486C37.1016 69.4039 36.9932 69.4039 36.904 69.4486Z" fill="#414345"/>
<path d="M33.6099 67.9212L30.1409 69.5058C29.8677 69.6267 29.8677 70.0212 30.1409 70.1421L31.5133 70.7848C31.6086 70.823 31.7165 70.823 31.8118 70.7848L35.2807 69.194C35.5539 69.073 35.5539 68.6785 35.2807 68.5513L33.9021 67.9212C33.8068 67.8767 33.6988 67.8767 33.6099 67.9212Z" fill="#414345"/>
<path d="M70.0903 86.2343L66.6242 87.822C66.3479 87.9406 66.3479 88.3292 66.6242 88.4544L67.9987 89.0934C68.0974 89.1395 68.2026 89.1395 68.2947 89.0934L71.7609 87.5124C72.0371 87.3872 72.0371 86.9985 71.7609 86.8734L70.3863 86.2343C70.2942 86.1948 70.189 86.1948 70.0903 86.2343Z" fill="#414345"/>
<path d="M60.1869 81.6714L56.7203 83.2509C56.4466 83.3749 56.4465 83.7665 56.7137 83.8905L58.0952 84.5302C58.1864 84.5759 58.2972 84.5759 58.3949 84.5302L61.8616 82.9441C62.1288 82.8201 62.1353 82.4285 61.8616 82.3045L60.4802 81.6714C60.3889 81.6257 60.2847 81.6257 60.1869 81.6714Z" fill="#414345"/>
<path d="M66.7864 84.7132L63.3179 86.296C63.049 86.4273 63.0425 86.8082 63.3179 86.9396L64.7013 87.5766C64.7931 87.6161 64.8981 87.6161 64.9898 87.5766L68.4584 85.9873C68.7338 85.8625 68.7338 85.475 68.465 85.3503L67.0814 84.7132C66.9896 84.6672 66.8847 84.6672 66.7864 84.7132" fill="#414345"/>
<path d="M63.4915 83.1853L60.0271 84.7763C59.7525 84.8941 59.7525 85.2869 60.0205 85.4113L61.3997 86.053C61.4913 86.0923 61.6024 86.0923 61.6939 86.053L65.1648 84.462C65.4328 84.3376 65.4394 83.9513 65.1648 83.8269L63.7856 83.1853C63.6941 83.146 63.583 83.146 63.4915 83.1853Z" fill="#414345"/>
<path d="M41.5628 75.4866C41.4858 75.4866 41.4088 75.4674 41.3511 75.4352C41.2613 75.3967 41.1715 75.3582 41.0817 75.3132C40.7225 75.1526 40.3569 74.9856 39.9913 74.8185C39.8694 74.7607 39.7732 74.6514 39.7412 74.5229C39.7027 74.3945 39.7219 74.2531 39.7925 74.1375C39.831 74.0861 39.8823 74.0347 39.94 73.9962L39.9784 73.9769L40.0041 73.9641H40.017L40.0811 73.9319L40.3569 73.8098C40.7161 73.6428 41.0753 73.4822 41.4216 73.3344C42.108 73.0324 42.7558 72.7434 43.3074 72.5057C43.378 72.4735 43.4357 72.4478 43.5191 72.4157C43.564 72.4028 43.6089 72.3964 43.6538 72.3964C43.6923 72.3964 43.7243 72.4028 43.7628 72.4028C43.9104 72.4606 44.013 72.5249 44.1285 72.5699C44.353 72.6727 44.5454 72.7691 44.6993 72.8397C45.0201 72.9875 45.206 73.0774 45.206 73.0774C45.206 73.0774 45.2573 73.0903 45.3343 73.1738C45.4113 73.2509 45.4883 73.4244 45.4049 73.6171C45.3793 73.6621 45.3536 73.707 45.3087 73.7456C45.2638 73.7906 45.2125 73.8163 45.1612 73.8356C45.065 73.8805 44.9623 73.9255 44.8533 73.9769C44.6288 74.0861 44.3786 74.2017 44.1092 74.3302C43.564 74.5872 42.9226 74.8892 42.2427 75.2104C42.0695 75.2939 41.9092 75.371 41.7167 75.4545C41.6718 75.4802 41.6205 75.4866 41.5628 75.4866V75.4866ZM43.6538 72.4543C43.6025 72.4543 43.5576 72.4671 43.5063 72.4864L40.0362 74.0732C39.7668 74.1953 39.7668 74.5872 40.0362 74.7093L41.4216 75.3517C41.4665 75.371 41.5179 75.3839 41.5628 75.3839C41.6141 75.3839 41.6654 75.371 41.7103 75.3517L45.1804 73.7649C45.4498 73.6364 45.4498 73.2509 45.1804 73.1224L43.8014 72.4864C43.7565 72.4671 43.7052 72.4543 43.6538 72.4543" fill="#2B2C2D"/>
<path d="M41.5527 75.3877C41.5078 75.3877 41.4564 75.3749 41.4115 75.3556L40.0325 74.7132C39.7567 74.5911 39.7567 74.1992 40.0325 74.0771L43.5025 72.4904C43.5538 72.4711 43.5987 72.4582 43.65 72.4582C43.7013 72.4582 43.7526 72.4711 43.7975 72.4904L45.1765 73.1263C45.4459 73.2548 45.446 73.6403 45.1702 73.7688L41.7002 75.3556C41.6553 75.3749 41.604 75.3877 41.5527 75.3877V75.3877ZM43.65 72.5225C43.618 72.5225 43.5795 72.5353 43.5538 72.5418C43.4961 72.5674 43.4255 72.606 43.3614 72.6317C42.8098 72.8951 42.1748 73.1906 41.495 73.5183C41.155 73.6789 40.7958 73.8459 40.4431 74.0129L40.1673 74.135L40.1031 74.1671L40.0903 74.1735L40.0774 74.18L40.0454 74.1992L39.9812 74.2699C39.8979 74.3855 39.9492 74.559 40.0839 74.6104C40.4431 74.7839 40.8086 74.9509 41.1678 75.1244C41.2576 75.1629 41.3474 75.2014 41.4308 75.2464C41.4821 75.2721 41.5206 75.2785 41.5591 75.2785C41.5848 75.2785 41.6104 75.2721 41.6425 75.2656C41.8157 75.1885 41.9888 75.1179 42.162 75.0408C42.8483 74.7324 43.4897 74.4562 44.0413 74.2121C44.3171 74.09 44.5737 73.9744 44.7982 73.878C44.9072 73.8266 45.0162 73.7817 45.1124 73.7303C45.1637 73.711 45.1958 73.6853 45.2278 73.666L45.292 73.576C45.3561 73.4347 45.3049 73.3062 45.2471 73.2484C45.1958 73.1906 45.1509 73.1777 45.1509 73.1777C45.1509 73.1777 44.9713 73.0942 44.6506 72.9465C44.4902 72.8758 44.2914 72.7859 44.0669 72.6831C43.9643 72.6381 43.8296 72.5738 43.727 72.5353C43.7014 72.5289 43.6757 72.5225 43.65 72.5225" fill="#2D2E2F"/>
<path d="M38.2658 73.9713C38.1954 73.9713 38.1251 73.9585 38.0675 73.9329L37.799 73.8048C37.6136 73.7215 37.4346 73.6318 37.2555 73.5486C37.0765 73.4653 36.8974 73.3821 36.7184 73.3052L36.5714 73.2027C36.5266 73.1579 36.4946 73.1067 36.469 73.0491C36.4179 72.9338 36.4179 72.8057 36.469 72.6904C36.4946 72.6392 36.533 72.588 36.5714 72.5495L36.6481 72.4919L36.6801 72.4727L36.7056 72.4599H36.7184C36.8015 72.4214 36.8911 72.383 36.9678 72.3446C37.134 72.2741 37.3003 72.2037 37.4537 72.1333C37.7734 71.9924 38.0739 71.8642 38.3489 71.7426C39.455 71.2494 40.184 70.9164 40.184 70.9164L40.2223 70.9036C40.2479 70.8908 40.2926 70.878 40.3438 70.878C40.3502 70.878 40.3566 70.878 40.363 70.878C40.4141 70.878 40.478 70.8908 40.542 70.9292C40.5995 70.9548 40.6699 70.9804 40.753 71.0253C40.9128 71.0957 41.1111 71.179 41.3349 71.2814C41.4436 71.3327 41.5587 71.3904 41.6865 71.448C41.7505 71.4736 41.8144 71.4992 41.8783 71.5312C41.9487 71.5633 42.0254 71.6145 42.0765 71.6913C42.1852 71.8322 42.1788 72.0628 42.0446 72.2101C41.9742 72.2869 41.8847 72.319 41.808 72.3574C41.7313 72.3894 41.6545 72.4342 41.5778 72.4662C41.2645 72.6135 40.9384 72.7737 40.5931 72.9338C39.9218 73.2604 39.1865 73.5934 38.4576 73.9329C38.3936 73.9649 38.3297 73.9713 38.2658 73.9713ZM40.3502 70.9356C40.299 70.9356 40.2542 70.9485 40.2095 70.9677L36.7376 72.5495C36.469 72.6776 36.469 73.0619 36.7376 73.19L38.1187 73.824C38.1635 73.8496 38.2146 73.856 38.2658 73.856C38.3105 73.856 38.3617 73.8496 38.4064 73.824L41.8783 72.2421C42.1469 72.114 42.1469 71.7297 41.8783 71.6017L40.4972 70.9677C40.4525 70.9485 40.4013 70.9356 40.3502 70.9356Z" fill="#2B2C2D"/>
<path d="M38.2642 73.8528C38.2131 73.8528 38.1619 73.8464 38.1172 73.8208L36.7361 73.1869C36.4675 73.0588 36.4675 72.6745 36.7361 72.5464L40.2143 70.9646C40.2591 70.9454 40.3038 70.9326 40.355 70.9326C40.4061 70.9326 40.4573 70.9454 40.502 70.9646L41.883 71.5986C42.1516 71.7267 42.1516 72.1173 41.883 72.239L38.4112 73.8208C38.3601 73.8464 38.309 73.8528 38.2642 73.8528V73.8528ZM36.7808 72.6361H36.7745L36.7425 72.6553L36.7041 72.6873L36.653 72.7641C36.6274 72.8346 36.6338 72.905 36.6593 72.9691C36.6849 73.0331 36.7297 73.0715 36.8128 73.1036C36.9854 73.1868 37.1709 73.2637 37.3499 73.3533C37.5289 73.4302 37.708 73.5134 37.8934 73.5967L38.1619 73.7248C38.1938 73.7312 38.2322 73.744 38.2642 73.744C38.2962 73.744 38.3345 73.7312 38.3601 73.7248C39.0954 73.3917 39.8243 73.0588 40.5212 72.7578C40.8664 72.6041 41.1989 72.4567 41.5186 72.3159C41.5953 72.2838 41.6721 72.2454 41.7488 72.2134C41.8255 72.1814 41.9022 72.1493 41.9406 72.1109C42.0301 72.0149 42.0429 71.8612 41.9661 71.7587C41.9342 71.7075 41.8959 71.6754 41.8255 71.6434C41.7616 71.6178 41.6977 71.5858 41.6337 71.5538C41.5122 71.4962 41.3972 71.4449 41.2821 71.3937C41.0583 71.2848 40.8665 71.1952 40.7066 71.1247C40.6299 71.0799 40.5595 71.0542 40.4956 71.0222C40.438 70.9966 40.3869 70.9838 40.3485 70.9838C40.2718 70.9902 40.2335 71.0095 40.2335 71.0095C40.2335 71.0095 39.4982 71.3489 38.4112 71.8612C38.1363 71.9957 37.8422 72.1302 37.5289 72.2775C37.3755 72.3543 37.2092 72.4311 37.0494 72.508C36.9663 72.5464 36.8767 72.5849 36.8 72.6297L36.7808 72.6361" fill="#2D2E2F"/>
<path d="M34.9619 72.4518C34.8918 72.4518 34.8281 72.439 34.7707 72.4135L34.4966 72.2794C34.3118 72.2028 34.1269 72.1134 33.9485 72.0241C33.77 71.9475 33.5979 71.8644 33.4195 71.7751L33.2665 71.6793C33.2219 71.641 33.19 71.5835 33.1645 71.5261C33.1199 71.4112 33.1199 71.2835 33.1709 71.1749C33.1964 71.1175 33.2283 71.0665 33.2729 71.0218L33.343 70.9707L33.3813 70.9515L33.4004 70.9452L33.4195 70.9388C33.5023 70.9005 33.5852 70.8621 33.6681 70.8238C33.8338 70.7472 33.9931 70.677 34.1524 70.6132C34.4711 70.4727 34.7707 70.3451 35.0448 70.2238C36.1474 69.7258 36.8804 69.3938 36.8804 69.3938L36.9186 69.3811C36.9441 69.3683 36.9888 69.3619 37.0461 69.3619C37.0461 69.3619 37.0525 69.3619 37.0589 69.3619C37.1099 69.3619 37.1736 69.3683 37.2373 69.4002C37.2947 69.4321 37.3712 69.464 37.4477 69.496C37.6134 69.5726 37.8046 69.662 38.0276 69.7641C38.1424 69.8152 38.2571 69.8663 38.3846 69.9237C38.442 69.9492 38.5121 69.9812 38.5758 70.0131C38.6459 70.0386 38.7224 70.0961 38.7734 70.1663C38.8817 70.3131 38.8753 70.543 38.7415 70.6898C38.6714 70.7728 38.5822 70.7983 38.5121 70.8366C38.4356 70.8749 38.3527 70.9068 38.2762 70.9452C37.9703 71.0984 37.6388 71.2516 37.2947 71.4112C36.619 71.7368 35.8861 72.0751 35.1531 72.4135C35.0958 72.439 35.0257 72.4518 34.9619 72.4518V72.4518ZM37.0461 69.413C37.0015 69.413 36.9505 69.4194 36.9059 69.4449L33.4386 71.0281C33.1645 71.1558 33.1645 71.5453 33.4322 71.673L34.8153 72.3049C34.8599 72.3241 34.9109 72.3369 34.9619 72.3369C35.0129 72.3369 35.0575 72.3241 35.1085 72.3049L38.5758 70.7217C38.8435 70.6004 38.8499 70.2046 38.5758 70.0833L37.1927 69.4449C37.1481 69.4194 37.0971 69.413 37.0461 69.413" fill="#2B2C2D"/>
<path d="M34.9601 72.3405C34.9091 72.3405 34.8581 72.3277 34.8071 72.3085L33.4305 71.6702C33.1628 71.5489 33.1627 71.1595 33.4368 71.0318L36.904 69.4485C36.9486 69.423 36.9996 69.4166 37.0442 69.4166C37.0952 69.4166 37.1462 69.423 37.1908 69.4485L38.5739 70.0869C38.8479 70.2082 38.8416 70.5977 38.5739 70.7189L35.1067 72.3085C35.0557 72.3277 35.0111 72.3405 34.9601 72.3405V72.3405ZM33.4751 71.1211H33.4623L33.4368 71.1402L33.3986 71.1722L33.3412 71.2488C33.3221 71.319 33.3221 71.3893 33.3476 71.4467C33.3795 71.5169 33.4241 71.5552 33.507 71.5871C33.6854 71.6701 33.8575 71.7468 34.0359 71.8297C34.2208 71.9127 34.4056 71.9957 34.584 72.0787L34.8581 72.2C34.8836 72.2191 34.9219 72.2255 34.9537 72.2255C34.9856 72.2255 35.0238 72.2191 35.0557 72.2C35.7886 71.8744 36.5216 71.5425 37.2099 71.2424C37.5605 71.0892 37.8919 70.9424 38.2106 70.8019C38.2871 70.77 38.3635 70.7317 38.44 70.6934C38.5165 70.6678 38.593 70.636 38.6312 70.5913C38.7204 70.5019 38.7332 70.3423 38.6631 70.2465C38.6248 70.1954 38.5866 70.1572 38.5165 70.1316C38.4527 70.0997 38.3891 70.0678 38.3317 70.0423C38.2042 69.9784 38.0831 69.9274 37.9747 69.8699C37.7517 69.7678 37.5605 69.6784 37.4011 69.6018C37.3183 69.5699 37.2482 69.5379 37.1845 69.506C37.1271 69.4741 37.0824 69.4677 37.0378 69.4677C36.9613 69.4677 36.9231 69.4932 36.9231 69.4932C36.9231 69.4932 36.1966 69.838 35.1003 70.3423C34.8263 70.4699 34.5331 70.6168 34.2208 70.7636C34.0615 70.8402 33.9021 70.9168 33.7364 70.9934C33.6599 71.0317 33.5771 71.07 33.4878 71.1083L33.4751 71.1211H33.4687H33.4751" fill="#2D2E2F"/>
<path d="M31.6584 70.9348C31.5886 70.9348 31.525 70.9221 31.4678 70.8903L31.1883 70.763C31.0104 70.6739 30.8325 70.5912 30.6483 70.5085C30.4704 70.4257 30.2925 70.3366 30.1146 70.2603L29.9685 70.1585C29.924 70.1203 29.8859 70.063 29.8604 70.0057C29.816 69.8912 29.8223 69.7639 29.8668 69.6557C29.8922 69.5984 29.924 69.5476 29.9685 69.503L30.0447 69.4521L30.0765 69.433L30.0955 69.4266L30.1146 69.4139C30.1972 69.3757 30.2798 69.3439 30.3687 69.2994C30.5275 69.2294 30.6927 69.1594 30.8579 69.0894C31.1693 68.9494 31.4678 68.8157 31.741 68.6948C32.8465 68.2048 33.5835 67.8803 33.5835 67.8803L33.6153 67.8612C33.6471 67.8548 33.6915 67.8421 33.7424 67.8357C33.7424 67.8357 33.7487 67.8357 33.7551 67.8357C33.8059 67.8357 33.8694 67.8548 33.933 67.8803C33.9965 67.9057 34.0664 67.9439 34.149 67.9821C34.3078 68.0521 34.5048 68.1412 34.7271 68.243C34.8351 68.2939 34.9559 68.3448 35.083 68.4021C35.1401 68.4339 35.21 68.4594 35.2736 68.4848C35.3371 68.5166 35.426 68.5675 35.4705 68.6439C35.5785 68.7903 35.5722 69.0194 35.4387 69.1721C35.3625 69.2484 35.2799 69.2739 35.21 69.3184C35.1338 69.3503 35.0575 69.3885 34.9749 69.4266C34.6636 69.573 34.3332 69.7321 33.9965 69.8912C33.3103 70.2157 32.5797 70.553 31.849 70.8903C31.7919 70.9221 31.722 70.9348 31.6584 70.9348V70.9348ZM33.7487 67.893C33.6979 67.893 33.6471 67.9057 33.6026 67.9248L30.1336 69.5093C29.8604 69.6303 29.8604 70.0248 30.1336 70.1457L31.5123 70.7885C31.5568 70.8076 31.6076 70.8203 31.6584 70.8203C31.7093 70.8203 31.7601 70.8076 31.8046 70.7885L35.2736 69.1976C35.5468 69.0767 35.5468 68.6885 35.2736 68.5612L33.8949 67.9248C33.844 67.9057 33.7996 67.893 33.7487 67.893Z" fill="#2B2C2D"/>
<path d="M31.6657 70.8103C31.6149 70.8103 31.5641 70.8039 31.5133 70.7848L30.1409 70.1421C29.8677 70.0212 29.8677 69.6267 30.1409 69.5057L33.6099 67.9212C33.6543 67.8957 33.7051 67.8894 33.756 67.8894C33.8068 67.8894 33.8512 67.8957 33.9021 67.9212L35.2807 68.5512C35.5539 68.6785 35.5539 69.073 35.2807 69.1939L31.8118 70.7848C31.7674 70.8039 31.7165 70.8103 31.6657 70.8103ZM30.1791 69.5885L30.1727 69.5948L30.1409 69.6139L30.1092 69.6394L30.052 69.7221C30.0266 69.7857 30.0266 69.8621 30.052 69.9194C30.0901 69.9894 30.1283 70.0275 30.2109 70.0593C30.3887 70.142 30.5666 70.2248 30.7445 70.3012C30.9287 70.3839 31.113 70.4666 31.2909 70.5557L31.5641 70.6766C31.5959 70.6893 31.6276 70.6957 31.6657 70.6957C31.6911 70.6957 31.7292 70.6893 31.761 70.6766C32.498 70.3457 33.2286 70.0084 33.9211 69.7093C34.2642 69.563 34.601 69.4166 34.9123 69.2703C34.9949 69.2385 35.0711 69.2066 35.1473 69.1684C35.2235 69.1366 35.2998 69.1112 35.3379 69.0603C35.4268 68.9712 35.4396 68.8121 35.3633 68.7166C35.3379 68.6594 35.2871 68.6276 35.2235 68.6021C35.16 68.5703 35.0965 68.5384 35.0329 68.513C34.9059 68.4494 34.7915 68.3985 34.6835 68.3476C34.4548 68.2457 34.2642 68.1503 34.1054 68.0739C34.0228 68.0421 33.9529 68.0039 33.8957 67.9785C33.8386 67.9467 33.794 67.9467 33.7496 67.9467C33.667 67.9467 33.6289 67.9721 33.6289 67.9721C33.6289 67.9721 32.9046 68.3093 31.8055 68.8184C31.5387 68.9457 31.2401 69.0857 30.9288 69.2385C30.7699 69.3085 30.6111 69.3848 30.4459 69.4675C30.3633 69.4993 30.2807 69.5439 30.1981 69.5821L30.1791 69.5885L30.1727 69.5948L30.1791 69.5885" fill="#2D2E2F"/>
<path d="M68.15 89.2437C68.0777 89.2437 68.0119 89.2305 67.9527 89.2041L67.6764 89.0724C67.4988 88.9867 67.3147 88.9011 67.1371 88.8221C66.9529 88.7364 66.7754 88.6508 66.6043 88.5717L66.453 88.4729C66.407 88.4268 66.3741 88.3807 66.3544 88.3148C66.3083 88.2028 66.3083 88.0711 66.3544 87.9591C66.3807 87.9129 66.4136 87.8602 66.4596 87.8207L66.532 87.7614L66.5648 87.7417L66.5846 87.735L66.5977 87.7285C66.6898 87.689 66.7753 87.6494 66.8543 87.6165C67.0187 87.544 67.1831 87.4716 67.3409 87.3991C67.6567 87.2607 67.9593 87.129 68.2355 87.0104C69.3339 86.5163 70.0705 86.1869 70.0705 86.1869L70.11 86.1671C70.1363 86.1605 70.1758 86.1474 70.2284 86.1474C70.2284 86.1474 70.235 86.1474 70.2416 86.1474C70.2942 86.1474 70.36 86.1606 70.4192 86.1935C70.4849 86.2199 70.5573 86.2594 70.6362 86.2923C70.7941 86.3648 70.9914 86.4504 71.215 86.5492C71.3202 86.6019 71.4452 86.6612 71.5702 86.7139C71.636 86.7469 71.6951 86.7732 71.7609 86.7995C71.8333 86.8325 71.9122 86.8852 71.9648 86.9577C72.0701 87.1092 72.0635 87.3332 71.9253 87.4847C71.8596 87.5572 71.7675 87.5901 71.6951 87.623C71.6162 87.6626 71.5439 87.7021 71.4649 87.735C71.1492 87.8866 70.8204 88.0447 70.4783 88.2028C69.8009 88.5322 69.0708 88.8616 68.3342 89.2041C68.2815 89.2305 68.2158 89.2437 68.15 89.2437V89.2437ZM70.235 86.2066C70.1889 86.2066 70.1364 86.2132 70.0903 86.233L66.6174 87.8207C66.3478 87.9458 66.3478 88.3346 66.6174 88.4597L67.9987 89.0922C68.0447 89.1186 68.0974 89.1317 68.1434 89.1317C68.196 89.1317 68.2486 89.1186 68.2947 89.0922L71.7609 87.5111C72.0372 87.3859 72.0372 86.9972 71.7609 86.8721L70.3863 86.233C70.3402 86.2132 70.2876 86.2066 70.235 86.2066" fill="#292A2C"/>
<path d="M68.1435 89.1263C68.104 89.1263 68.0514 89.1132 67.9987 89.0934L66.6242 88.4544C66.3479 88.3292 66.3479 87.9406 66.6242 87.822L70.0903 86.2343C70.1364 86.2145 70.189 86.2014 70.2416 86.2014C70.2876 86.2014 70.3402 86.2145 70.3863 86.2343L71.7609 86.8733C72.0371 86.9985 72.0371 87.3872 71.7609 87.5123L68.2947 89.0934C68.2487 89.1132 68.1961 89.1263 68.1435 89.1263ZM66.6636 87.901L66.6571 87.9076L66.6307 87.9208L66.5913 87.9537L66.5387 88.0328C66.5124 88.0987 66.5124 88.1777 66.5387 88.237C66.5716 88.3029 66.611 88.3424 66.6965 88.3753C66.8741 88.4544 67.0517 88.5334 67.2293 88.6191C67.4134 88.6981 67.591 88.7838 67.7752 88.8628L68.0514 88.9946C68.0777 89.0012 68.1171 89.0143 68.1435 89.0143C68.1829 89.0143 68.2158 89.0012 68.2487 88.9946C68.9788 88.6586 69.7088 88.3226 70.3994 88.0262C70.748 87.8747 71.0834 87.7231 71.3991 87.5848C71.478 87.5518 71.557 87.5189 71.6359 87.486C71.7149 87.453 71.7806 87.4201 71.8266 87.3806C71.9121 87.2884 71.9187 87.1302 71.853 87.0248C71.8201 86.9787 71.774 86.9458 71.7148 86.9129C71.649 86.8865 71.5833 86.8535 71.5175 86.8272C71.3991 86.7679 71.2742 86.7152 71.1624 86.6625C70.9453 86.5571 70.7546 86.4649 70.5901 86.3924C70.5112 86.3529 70.4454 86.32 70.3797 86.2871C70.3205 86.2673 70.2744 86.2541 70.235 86.2541C70.156 86.2607 70.1166 86.2871 70.1166 86.2871C70.1166 86.2871 69.3865 86.623 68.2947 87.1303C68.0185 87.262 67.7225 87.4003 67.4134 87.5518C67.2556 87.6243 67.0977 87.6968 66.9333 87.7759C66.8544 87.8154 66.7623 87.8549 66.6833 87.8944L66.6702 87.901H66.6636Z" fill="#2D2E2F"/>
<path d="M58.2462 84.6718C58.181 84.6718 58.1159 84.6587 58.0572 84.6326L57.7835 84.5021C57.6011 84.4172 57.4186 84.3323 57.2361 84.2475C57.0602 84.1626 56.8842 84.0843 56.7018 83.9995L56.5584 83.9016C56.5128 83.8559 56.4737 83.8102 56.4476 83.7515C56.402 83.634 56.4085 83.5034 56.4541 83.3925C56.4802 83.3402 56.5193 83.288 56.5649 83.2489L56.6301 83.1901L56.6627 83.1705L56.6888 83.164L56.7018 83.1575C56.793 83.1183 56.8712 83.0791 56.9559 83.0465C57.1188 82.9747 57.2818 82.9029 57.4382 82.8311C57.764 82.694 58.0572 82.5635 58.3374 82.4395C59.4387 81.9434 60.1751 81.6171 60.1751 81.6171L60.2077 81.5975C60.2338 81.591 60.2794 81.5779 60.3315 81.5779C60.338 81.5779 60.338 81.5779 60.3445 81.5779C60.3967 81.5779 60.4618 81.5975 60.5205 81.6236C60.5857 81.6497 60.6573 81.6823 60.7355 81.7215C60.8984 81.7933 61.094 81.8781 61.3155 81.9826C61.4263 82.0348 61.5436 82.087 61.6739 82.1457C61.7326 82.1719 61.7977 82.198 61.8629 82.2306C61.928 82.2632 62.0128 82.3089 62.0649 82.3873C62.1692 82.5374 62.1627 82.7593 62.0323 82.9094C61.9541 82.9878 61.8694 83.0204 61.7977 83.053C61.7195 83.0922 61.6479 83.1314 61.5631 83.164C61.2569 83.3141 60.9245 83.4707 60.5857 83.6339C59.9014 83.9603 59.1715 84.2932 58.4417 84.6326C58.383 84.6653 58.3114 84.6718 58.2462 84.6718V84.6718ZM60.338 81.6366C60.2924 81.6366 60.2403 81.6432 60.1947 81.6628L56.7278 83.2489C56.4476 83.3729 56.4477 83.7645 56.7214 83.8885L58.1028 84.5216C58.1484 84.5478 58.2006 84.5608 58.2462 84.5608C58.2983 84.5608 58.3504 84.5478 58.3961 84.5216L61.8629 82.9421C62.1366 82.8181 62.1366 82.4264 61.8629 82.3024L60.4814 81.6628C60.4357 81.6432 60.3837 81.6366 60.338 81.6366" fill="#292A2C"/>
<path d="M58.2451 84.5629C58.1929 84.5629 58.1408 84.5498 58.0952 84.5302L56.7137 83.8905C56.4465 83.7665 56.4466 83.3749 56.7203 83.2509L60.1869 81.6714C60.239 81.6453 60.2847 81.6388 60.3303 81.6388C60.3824 81.6388 60.4345 81.6453 60.4802 81.6714L61.8616 82.3045C62.1353 82.4285 62.1288 82.8201 61.8616 82.9441L58.3949 84.5302C58.3493 84.5498 58.2972 84.5629 58.2451 84.5629V84.5629ZM56.7593 83.3358L56.7528 83.3423L56.7203 83.3554L56.6877 83.388L56.6355 83.4729C56.6094 83.5381 56.6094 83.6099 56.6355 83.6752C56.6681 83.7339 56.7137 83.7731 56.7919 83.8123C56.9679 83.8906 57.1503 83.9754 57.3263 84.0537C57.5087 84.1386 57.6846 84.2169 57.8736 84.2952L58.1408 84.4193C58.1734 84.4388 58.2125 84.4453 58.2451 84.4453C58.2776 84.4453 58.3102 84.4388 58.3428 84.4258C59.0791 84.0929 59.809 83.76 60.4998 83.4598C60.8451 83.3031 61.1774 83.1595 61.4967 83.0225C61.5749 82.9833 61.6531 82.9507 61.7313 82.9181C61.803 82.8854 61.8812 82.8528 61.9137 82.8136C62.0115 82.7222 62.018 82.5656 61.9463 82.4612C61.9137 82.409 61.8682 82.3829 61.803 82.3502C61.7379 82.3176 61.6792 82.2915 61.614 82.2588C61.4902 82.2001 61.3729 82.1479 61.2621 82.0956C61.0406 81.9912 60.8451 81.8999 60.6887 81.8281C60.604 81.7824 60.5323 81.7563 60.4737 81.7237C60.4215 81.6976 60.3759 81.691 60.3303 81.691C60.2521 81.691 60.213 81.7171 60.213 81.7171C60.213 81.7171 59.4832 82.0565 58.3884 82.5656C58.1147 82.6961 57.8215 82.8332 57.5087 82.9833C57.3523 83.0551 57.1894 83.1335 57.0265 83.2118C56.9418 83.2509 56.8636 83.2901 56.7789 83.3293L56.7593 83.3358" fill="#2D2E2F"/>
<path d="M64.8547 87.7191C64.7891 87.7191 64.717 87.6995 64.658 87.6732L64.3826 87.5419C64.2055 87.4631 64.0219 87.3776 63.8449 87.2922C63.6679 87.2069 63.4908 87.1281 63.3138 87.0427L63.163 86.9442C63.1171 86.9048 63.0843 86.8457 63.058 86.7931C63.0121 86.6749 63.0122 86.5436 63.0646 86.4319C63.0843 86.3794 63.1237 86.3268 63.163 86.2874L63.2416 86.2283L63.2679 86.2152L63.2941 86.2086L63.3138 86.202C63.3925 86.1626 63.4777 86.1232 63.563 86.0904C63.7269 86.0116 63.8908 85.9393 64.0482 85.8736C64.3629 85.7292 64.6645 85.6043 64.9399 85.4861C66.0415 84.987 66.7759 84.6586 66.7759 84.6586L66.8152 84.6455C66.8415 84.6323 66.8808 84.6258 66.9398 84.6258C66.9398 84.6258 66.9398 84.6258 66.9464 84.6258C66.9988 84.6258 67.0645 84.6323 67.13 84.6652C67.189 84.6914 67.2612 84.7243 67.3464 84.7637C67.5038 84.8359 67.6939 84.9213 67.9169 85.0264C68.0283 85.0789 68.1529 85.1249 68.2709 85.1906C68.3365 85.2103 68.4021 85.2432 68.4676 85.276C68.5398 85.3023 68.6185 85.3548 68.6709 85.4271C68.7759 85.5715 68.7693 85.8014 68.6316 85.9525C68.5594 86.0313 68.4742 86.0641 68.4021 86.097C68.3234 86.1364 68.2447 86.1692 68.1726 86.2086C67.8578 86.3596 67.5234 86.5107 67.189 86.6749C66.5071 86.9967 65.7727 87.3317 65.0448 87.6732C64.9858 87.6995 64.9203 87.7191 64.8547 87.7191V87.7191ZM66.9398 84.6718C66.8939 84.6718 66.848 84.6849 66.7956 84.7112L63.3269 86.294C63.0581 86.4188 63.0515 86.8062 63.3269 86.931L64.7104 87.5681C64.7563 87.5878 64.8023 87.6009 64.8547 87.6009C64.9006 87.6009 64.9531 87.5878 64.999 87.5681L68.4676 85.9787C68.743 85.8605 68.7431 85.4665 68.4742 85.3482L67.0906 84.7112C67.0447 84.6849 66.9923 84.6718 66.9398 84.6718" fill="#292A2C"/>
<path d="M64.8456 87.6028C64.7997 87.6028 64.7472 87.5963 64.7013 87.5766L63.3179 86.9395C63.0425 86.8082 63.049 86.4273 63.3179 86.2959L66.7864 84.7131C66.8388 84.6869 66.8847 84.6803 66.9372 84.6803C66.9896 84.6803 67.0355 84.6869 67.0814 84.7131L68.465 85.3502C68.7338 85.475 68.7338 85.8625 68.4584 85.9872L64.9898 87.5766C64.944 87.5963 64.8915 87.6028 64.8456 87.6028V87.6028ZM63.3637 86.3813L63.3572 86.3878L63.3244 86.401L63.2916 86.4338L63.2326 86.5126C63.2063 86.5849 63.2129 86.6505 63.2392 86.7162C63.2719 86.7819 63.3113 86.8213 63.39 86.8542C63.567 86.933 63.744 87.0117 63.9276 87.0971C64.1047 87.1759 64.2882 87.2613 64.4718 87.3467L64.7472 87.4649C64.78 87.4846 64.8128 87.4846 64.8456 87.4846C64.8784 87.4846 64.9177 87.4846 64.9439 87.4649C65.6783 87.1431 66.4061 86.8081 67.1011 86.506C67.4486 86.355 67.7765 86.204 68.0977 86.0661C68.1764 86.0332 68.2552 85.9938 68.3338 85.961C68.406 85.9281 68.4846 85.9018 68.5174 85.8624C68.6092 85.7705 68.6223 85.6129 68.5502 85.5078C68.5174 85.4553 68.4715 85.4224 68.4059 85.3962C68.3404 85.3633 68.2748 85.337 68.2158 85.3042C68.0912 85.2451 67.9732 85.1926 67.8683 85.14C67.6388 85.0349 67.4487 84.943 67.2847 84.8708C67.2126 84.8314 67.1405 84.7985 67.0749 84.7723C67.0159 84.7394 66.97 84.7328 66.9306 84.7328C66.852 84.7328 66.8126 84.7591 66.8126 84.7591C66.8126 84.7591 66.0848 85.1006 64.9898 85.6129C64.7145 85.7377 64.4194 85.8821 64.1112 86.0266C63.9538 86.1054 63.7899 86.1777 63.6326 86.2565C63.5473 86.2959 63.4621 86.3353 63.3834 86.3747L63.3637 86.3813H63.3572H63.3637" fill="#2D2E2F"/>
<path d="M61.5499 86.1952C61.4846 86.1952 61.4127 86.1821 61.3538 86.1493L61.0858 86.025C60.9028 85.9399 60.7197 85.8547 60.5432 85.7696C60.3602 85.691 60.1838 85.5994 60.0073 85.5208L59.8569 85.4226C59.8111 85.3833 59.7785 85.3244 59.7523 85.272C59.7065 85.1542 59.7065 85.0298 59.7588 84.9119C59.785 84.8595 59.8176 84.8072 59.8569 84.7679L59.9353 84.7089L59.968 84.6958L59.9942 84.6893L60.0073 84.6762C60.0857 84.6369 60.1772 84.6042 60.2557 84.5714C60.4256 84.4929 60.589 84.4208 60.7459 84.3488C61.0662 84.2113 61.3603 84.0804 61.6349 83.956C62.7396 83.4649 63.4718 83.1375 63.4718 83.1375L63.511 83.1244C63.5371 83.1113 63.5764 83.1048 63.6352 83.0983C63.6417 83.0983 63.6417 83.0983 63.6417 83.0983C63.7005 83.0983 63.7659 83.1114 63.8247 83.1441C63.8901 83.1703 63.9555 83.2031 64.0404 83.2423C64.1973 83.3144 64.3935 83.406 64.6157 83.5042C64.7334 83.5566 64.8445 83.609 64.9752 83.6613C65.0341 83.6941 65.0994 83.7268 65.1648 83.753C65.2301 83.7792 65.3152 83.8316 65.3675 83.9101C65.472 84.0542 65.4655 84.2833 65.3282 84.4339C65.2563 84.5125 65.1713 84.5387 65.0994 84.578C65.0275 84.6173 64.9425 84.65 64.8706 84.6893C64.5503 84.8333 64.23 84.9904 63.8901 85.1541C63.2037 85.4815 62.4716 85.8154 61.746 86.1493C61.6807 86.1821 61.6153 86.1952 61.5499 86.1952V86.1952ZM63.6417 83.1572C63.596 83.1572 63.5436 83.1637 63.4979 83.1834L60.0269 84.7744C59.7523 84.8922 59.7523 85.2851 60.0203 85.4095L61.4061 86.0511C61.4519 86.0708 61.4976 86.0773 61.5499 86.0773C61.6022 86.0773 61.648 86.0708 61.6938 86.0511L65.1648 84.4601C65.4393 84.3357 65.4393 83.9494 65.1648 83.8185L63.7855 83.1834C63.7398 83.1637 63.6875 83.1572 63.6417 83.1572Z" fill="#292A2C"/>
<path d="M61.5501 86.0791C61.4978 86.0791 61.4455 86.0726 61.3997 86.053L60.0205 85.4113C59.7525 85.2869 59.7525 84.8941 60.0271 84.7763L63.4915 83.1853C63.5372 83.1656 63.5895 83.1591 63.6353 83.1591C63.6876 83.1591 63.7399 83.1656 63.7856 83.1853L65.1648 83.8269C65.4394 83.9513 65.4328 84.3376 65.1648 84.462L61.6939 86.053C61.6481 86.0726 61.6024 86.0791 61.5501 86.0791ZM60.0663 84.8614H60.0532L60.0271 84.881L59.9878 84.9137L59.9355 84.9923C59.9094 85.0578 59.9159 85.1298 59.9421 85.1953C59.9682 85.2607 60.014 85.3 60.0989 85.3262C60.2689 85.4113 60.452 85.4899 60.6284 85.575C60.8115 85.6536 60.9879 85.7387 61.171 85.8238L61.4455 85.9482C61.4782 85.9613 61.5109 85.9678 61.5436 85.9678C61.5763 85.9678 61.6154 85.9613 61.6481 85.9482C62.3802 85.6143 63.1123 85.2804 63.8052 84.9792C64.1517 84.8286 64.485 84.6846 64.7988 84.5405C64.8772 84.5078 64.9556 84.4751 65.0341 84.4423C65.106 84.403 65.1844 84.3768 65.2237 84.331C65.3152 84.2394 65.3217 84.0822 65.2498 83.984C65.2171 83.9316 65.1779 83.8989 65.106 83.8662C65.0407 83.84 64.9818 83.8073 64.9164 83.7811C64.7922 83.7222 64.6746 83.6632 64.5634 83.6174C64.3412 83.5127 64.1517 83.421 63.9948 83.3424C63.9098 83.3097 63.8379 83.2769 63.779 83.2507C63.7202 83.218 63.6745 83.2115 63.6287 83.2115C63.5568 83.2115 63.5176 83.2377 63.5176 83.2377C63.5176 83.2377 62.7855 83.5781 61.6939 84.0888C61.4194 84.2132 61.1252 84.3572 60.8115 84.5078C60.6546 84.5733 60.4911 84.6518 60.3277 84.737C60.2493 84.7697 60.1643 84.809 60.0793 84.8483L60.0663 84.8548V84.8614" fill="#2D2E2F"/>
<path d="M44.0977 78.637C44.0977 76.3749 47.1608 74.5418 50.9443 74.5418C54.7278 74.5418 57.7975 76.3749 57.7975 78.637C57.7975 80.899 54.7278 82.7386 50.9443 82.7386C47.1608 82.7386 44.0977 80.899 44.0977 78.637Z" fill="#434648"/>
<path d="M44.1543 79.15C44.1543 79.15 44.1543 79.15 44.1543 79.1436C44.1543 79.15 44.1543 79.15 44.1543 79.15ZM44.1478 79.1306V79.1241V79.1306ZM44.1285 79.0466C44.1285 79.0466 44.1285 79.0465 44.1285 79.0401C44.1285 79.0465 44.1285 79.0466 44.1285 79.0466ZM44.1285 79.0013C44.1285 78.9948 44.122 78.9948 44.122 78.9948C44.122 78.9948 44.1285 78.9948 44.1285 79.0013ZM44.122 78.969C44.122 78.9625 44.1155 78.9625 44.1155 78.956C44.1155 78.9625 44.122 78.9625 44.122 78.969ZM44.1155 78.9496C44.1155 78.9431 44.1155 78.9366 44.1155 78.9301C44.1155 78.9366 44.1155 78.9431 44.1155 78.9496ZM44.1155 78.9237C44.1091 78.9172 44.1091 78.9107 44.1091 78.9107C44.1091 78.9107 44.1091 78.9172 44.1155 78.9237ZM44.1091 78.8978C44.1091 78.8913 44.1091 78.8914 44.1091 78.8849C44.1091 78.8914 44.1091 78.8913 44.1091 78.8978ZM44.1091 78.8719C44.1091 78.8655 44.1091 78.859 44.1091 78.8526C44.1091 78.859 44.1091 78.8655 44.1091 78.8719ZM44.1091 78.8396C44.1091 78.8331 44.1091 78.8331 44.1091 78.8267C44.1091 78.8331 44.1091 78.8331 44.1091 78.8396ZM44.1091 78.8137C44.1091 78.8072 44.1026 78.8073 44.1026 78.8073C44.1026 78.8073 44.1091 78.8072 44.1091 78.8137ZM44.1026 78.7943C44.1026 78.7879 44.1026 78.7814 44.1026 78.7814C44.1026 78.7814 44.1026 78.7879 44.1026 78.7943ZM44.1026 78.7684C44.1026 78.7555 44.1026 78.7555 44.1026 78.7426C44.1026 78.7555 44.1026 78.7555 44.1026 78.7684ZM44.1026 78.7361C44.1026 78.7361 44.1026 78.7297 44.1026 78.7232C44.1026 78.7297 44.1026 78.7361 44.1026 78.7361ZM44.1026 78.7103C44.1026 78.7103 44.1026 78.7038 44.0962 78.6973C44.1026 78.7038 44.1026 78.7103 44.1026 78.7103ZM44.0962 78.6844C44.0962 78.6844 44.0962 78.6779 44.0962 78.6714C44.0962 78.6779 44.0962 78.6844 44.0962 78.6844ZM44.0962 78.665C44.0962 78.6585 44.0962 78.6456 44.0962 78.6391C44.0962 78.6456 44.0962 78.6585 44.0962 78.665ZM52.3027 74.6165H52.2963H52.3027ZM52.1801 74.61C52.1736 74.61 52.1736 74.6036 52.1736 74.6036C52.1736 74.6036 52.1736 74.61 52.1801 74.61ZM52.0574 74.5906C52.0509 74.5906 52.0509 74.5906 52.0445 74.5906C52.0509 74.5906 52.0509 74.5906 52.0574 74.5906ZM51.9282 74.5842C51.9218 74.5842 51.9218 74.5842 51.9153 74.5842C51.9218 74.5842 51.9218 74.5842 51.9282 74.5842ZM51.7991 74.5712C51.7927 74.5712 51.7927 74.5712 51.7927 74.5712C51.7927 74.5712 51.7927 74.5712 51.7991 74.5712ZM51.6765 74.5647C51.67 74.5647 51.6635 74.5647 51.6571 74.5647C51.6635 74.5647 51.67 74.5647 51.6765 74.5647ZM51.6054 74.5583H51.599H51.6054ZM51.5473 74.5583C51.5409 74.5583 51.5344 74.5583 51.5344 74.5518C51.5344 74.5583 51.5409 74.5583 51.5473 74.5583ZM51.4117 74.5453C51.4117 74.5453 51.4052 74.5453 51.3988 74.5453C51.4052 74.5453 51.4117 74.5453 51.4117 74.5453ZM51.2826 74.5453C51.2761 74.5453 51.2696 74.5389 51.2696 74.5389C51.2696 74.5389 51.2761 74.5453 51.2826 74.5453ZM51.1534 74.5389C51.147 74.5389 51.1405 74.5389 51.1405 74.5389C51.1405 74.5389 51.147 74.5389 51.1534 74.5389ZM51.0243 74.5389C51.0178 74.5389 51.0114 74.5389 51.0049 74.5389C51.0114 74.5389 51.0178 74.5389 51.0243 74.5389Z" fill="#46484B"/>
<path d="M45.4676 81.0909C44.7739 80.5455 44.3071 79.8896 44.158 79.1689C44.1515 79.1624 44.1515 79.1559 44.1515 79.1494C44.1515 79.1494 44.1515 79.1493 44.1515 79.1429C44.145 79.1429 44.145 79.1363 44.145 79.1299V79.1234C44.145 79.1104 44.1385 79.0909 44.1385 79.0714V79.0649C44.1321 79.0584 44.132 79.0519 44.132 79.0454C44.132 79.0454 44.132 79.0455 44.132 79.039C44.132 79.0325 44.1256 79.026 44.1256 79.026V79.0195C44.1256 79.013 44.1256 79.0065 44.1256 79C44.1256 79 44.119 79 44.119 78.9935C44.119 78.9805 44.119 78.9805 44.119 78.9675C44.119 78.961 44.119 78.9611 44.119 78.9546C44.119 78.9546 44.119 78.9545 44.119 78.948C44.119 78.9415 44.119 78.9351 44.119 78.9286C44.119 78.9286 44.119 78.9286 44.119 78.9221C44.1126 78.9156 44.1126 78.9091 44.1126 78.9091C44.1126 78.9091 44.1126 78.9026 44.1126 78.8961C44.1126 78.8896 44.1126 78.8896 44.1126 78.8831C44.1126 78.8831 44.1126 78.8766 44.1126 78.8701C44.1061 78.8636 44.1061 78.8571 44.1061 78.8506C44.1061 78.8506 44.1061 78.8441 44.1061 78.8376C44.1061 78.8376 44.1061 78.8377 44.1061 78.8312C44.1061 78.8247 44.1061 78.8182 44.1061 78.8117C44.1061 78.8117 44.0996 78.8117 44.0996 78.8052C44.0996 78.7987 44.0996 78.7922 44.0996 78.7922C44.0996 78.7922 44.0996 78.7857 44.0996 78.7792C44.0996 78.7727 44.0996 78.7662 44.0996 78.7662C44.0996 78.7597 44.0996 78.7532 44.0996 78.7402C44.0996 78.7337 44.0996 78.7273 44.0996 78.7208V78.7143C44.0996 78.7078 44.0996 78.7013 44.0996 78.6948C44.0996 78.6948 44.0996 78.6948 44.0996 78.6883C44.0996 78.6818 44.0996 78.6753 44.0996 78.6688C44.0996 78.6688 44.0996 78.6689 44.0996 78.6624C44.0996 78.6559 44.0996 78.6493 44.0996 78.6364C44.0996 76.3701 47.1662 74.5389 50.9458 74.5389C50.9653 74.5389 50.9912 74.5389 51.0041 74.5389C51.0106 74.5389 51.0171 74.5389 51.0236 74.5389C51.0366 74.5389 51.0625 74.5389 51.082 74.5389C51.1014 74.5389 51.1209 74.5389 51.1403 74.5389C51.1403 74.5389 51.1468 74.5389 51.1532 74.5389C51.1921 74.5389 51.2311 74.5389 51.27 74.5389C51.27 74.5389 51.2764 74.5454 51.2829 74.5454C51.3024 74.5454 51.3218 74.5454 51.3413 74.5454C51.3672 74.5454 51.3802 74.5454 51.3997 74.5454C51.4061 74.5454 51.4126 74.5454 51.4126 74.5454C51.4385 74.5519 51.4515 74.5518 51.4709 74.5518C51.4904 74.5518 51.5099 74.5518 51.5293 74.5518C51.5358 74.5583 51.5423 74.5584 51.5488 74.5584C51.5617 74.5584 51.5812 74.5584 51.6006 74.5584C51.6201 74.5584 51.6395 74.5648 51.659 74.5648C51.6655 74.5648 51.6719 74.5648 51.6719 74.5648C51.6913 74.5648 51.7108 74.5648 51.7303 74.5648C51.7497 74.5648 51.7692 74.5649 51.7886 74.5714C51.7886 74.5714 51.7951 74.5714 51.8016 74.5714C51.821 74.5714 51.834 74.5713 51.8599 74.5778C51.8794 74.5778 51.8989 74.5778 51.9183 74.5843C51.9248 74.5843 51.9248 74.5843 51.9248 74.5843C51.9507 74.5843 51.9637 74.5843 51.9831 74.5843C52.0026 74.5843 52.022 74.5843 52.048 74.5908C52.048 74.5908 52.0479 74.5908 52.0544 74.5908C52.0739 74.5908 52.0934 74.5973 52.1128 74.5973C52.1323 74.6038 52.1517 74.6038 52.1711 74.6038C52.1711 74.6038 52.1776 74.6103 52.1841 74.6103C52.1971 74.6103 52.2165 74.6103 52.2359 74.6103C52.2554 74.6103 52.2813 74.6168 52.3008 74.6168C52.3267 74.6233 52.3462 74.6233 52.3656 74.6298C52.3851 74.6298 52.4045 74.6298 52.424 74.6298C54.1939 74.87 55.7044 75.5064 56.6639 76.3831C56.2425 75.9934 55.7109 75.6623 55.095 75.3831C55.4905 75.6558 55.8211 75.9675 56.087 76.2987C54.907 75.7207 53.4029 75.3831 51.7627 75.3831C47.9765 75.3831 44.91 77.2143 44.91 79.4741C44.91 80.052 45.1045 80.5974 45.4676 81.0909V81.0909ZM56.7223 76.435C56.7158 76.4285 56.7158 76.4286 56.7093 76.4221C56.7158 76.4286 56.7158 76.4285 56.7223 76.435ZM56.6899 76.4091C56.6899 76.4026 56.6834 76.3961 56.6769 76.3961C56.6834 76.3961 56.6899 76.4026 56.6899 76.4091Z" fill="#4B4D50"/>
<path d="M53.6743 82.3975C55.2895 81.9752 56.5803 81.1955 57.2679 80.221C56.5803 81.1955 55.2895 81.9752 53.6743 82.3975Z" fill="#333436"/>
<path d="M50.945 82.7386C51.912 82.7386 52.8336 82.6151 53.6707 82.4006C52.8336 82.6151 51.912 82.7386 50.945 82.7386ZM50.8996 82.7386C50.8931 82.7386 50.8931 82.7386 50.8802 82.7386C50.8931 82.7386 50.8931 82.7386 50.8996 82.7386ZM50.8542 82.7386C50.8477 82.7386 50.8412 82.7386 50.8347 82.7386C50.8412 82.7386 50.8477 82.7386 50.8542 82.7386ZM50.8023 82.7386C50.8023 82.7386 50.7958 82.7386 50.7893 82.7386C50.7958 82.7386 50.8023 82.7386 50.8023 82.7386ZM50.7568 82.7386C50.7568 82.7386 50.7503 82.7386 50.7438 82.7386C50.7503 82.7386 50.7568 82.7386 50.7568 82.7386ZM50.7114 82.7321C50.7049 82.7321 50.7049 82.7321 50.6919 82.7321C50.7049 82.7321 50.7049 82.7321 50.7114 82.7321ZM50.6595 82.7321C50.6595 82.7321 50.653 82.7321 50.6465 82.7321C50.653 82.7321 50.6595 82.7321 50.6595 82.7321ZM50.614 82.7321C50.614 82.7321 50.6075 82.7321 50.601 82.7321C50.6075 82.7321 50.6075 82.7321 50.614 82.7321ZM50.5621 82.7321H50.5557H50.5621ZM57.266 80.223C57.6035 79.7355 57.7982 79.2025 57.7982 78.637C57.7982 79.2025 57.6035 79.7355 57.266 80.223ZM57.7982 78.6109C57.7982 78.6044 57.7982 78.6045 57.7982 78.6045C57.7982 78.6045 57.7982 78.6044 57.7982 78.6109ZM57.7917 78.5784V78.572V78.5784ZM57.7917 78.5525C57.7917 78.546 57.7917 78.546 57.7917 78.5395C57.7917 78.546 57.7917 78.546 57.7917 78.5525ZM57.7917 78.52C57.7917 78.52 57.7917 78.5135 57.7917 78.5069C57.7917 78.5135 57.7917 78.52 57.7917 78.52ZM57.7852 78.455C57.7852 78.455 57.7852 78.4549 57.7852 78.4484C57.7852 78.4549 57.7852 78.455 57.7852 78.455ZM57.7852 78.4225V78.4159V78.4225ZM57.7852 78.3704C57.7852 78.3639 57.7852 78.364 57.7787 78.3575C57.7852 78.3575 57.7852 78.3639 57.7852 78.3704ZM57.7787 78.3314C57.7787 78.3314 57.7787 78.3315 57.7787 78.325C57.7787 78.3315 57.7787 78.3314 57.7787 78.3314ZM57.7593 78.2404V78.2339V78.2404ZM57.7593 78.2079C57.7593 78.2079 57.7593 78.2079 57.7593 78.2014C57.7593 78.2079 57.7593 78.2079 57.7593 78.2079Z" fill="#38393B"/>
<path d="M50.9454 82.7386C50.9325 82.7386 50.9195 82.7386 50.9 82.7386C50.8935 82.7386 50.8935 82.7386 50.8805 82.7386C50.874 82.7386 50.8675 82.7386 50.8545 82.7386C50.8481 82.7386 50.8416 82.7386 50.8351 82.7386C50.8221 82.7386 50.8156 82.7386 50.8026 82.7386C50.8026 82.7386 50.7961 82.7386 50.7897 82.7386C50.7767 82.7386 50.7702 82.7386 50.7572 82.7386C50.7572 82.7386 50.7507 82.7386 50.7442 82.7386C50.7312 82.7321 50.7247 82.7321 50.7118 82.7321C50.7053 82.7321 50.7053 82.7321 50.6923 82.7321C50.6858 82.7321 50.6728 82.7321 50.6599 82.7321C50.6599 82.7321 50.6534 82.7321 50.6469 82.7321C50.6404 82.7321 50.6209 82.7321 50.6144 82.7321C50.6079 82.7321 50.6079 82.7321 50.6014 82.7321C50.5884 82.7321 50.5755 82.7321 50.5625 82.7321H50.556C48.6221 82.6671 46.9023 82.1146 45.7212 81.289C46.8764 81.8091 48.3106 82.1276 49.8681 82.1276C53.6516 82.1276 56.7213 80.288 56.7213 78.0259C56.7213 77.4084 56.4941 76.8234 56.0853 76.3033C56.5201 76.5113 56.903 76.7519 57.2405 77.0184C57.0912 76.8169 56.9225 76.6154 56.7213 76.4333C57.2729 76.9469 57.6363 77.5384 57.7531 78.1819C57.7596 78.1884 57.7597 78.2014 57.7597 78.2014C57.7597 78.2079 57.7597 78.2079 57.7597 78.2079C57.7597 78.2209 57.7597 78.2274 57.7597 78.2339V78.2404C57.7661 78.2729 57.7726 78.299 57.7791 78.325C57.7791 78.3315 57.7791 78.3314 57.7791 78.3314C57.7791 78.3444 57.7791 78.3445 57.7791 78.3575C57.7856 78.364 57.7856 78.3639 57.7856 78.3704C57.7856 78.3704 57.7856 78.377 57.7856 78.39C57.7856 78.403 57.7856 78.4094 57.7856 78.4159V78.4225C57.7856 78.4355 57.7856 78.4419 57.7856 78.4484C57.7856 78.4549 57.7856 78.455 57.7856 78.455C57.7856 78.4615 57.7921 78.4745 57.7921 78.4875C57.7921 78.494 57.7921 78.507 57.7921 78.507C57.7921 78.5135 57.7921 78.52 57.7921 78.52C57.7921 78.5265 57.7921 78.533 57.7921 78.5395C57.7921 78.546 57.7921 78.546 57.7921 78.5525C57.7921 78.5525 57.7921 78.5655 57.7921 78.572V78.5784C57.7921 78.5849 57.7986 78.5915 57.7986 78.6045C57.7986 78.6045 57.7986 78.6044 57.7986 78.6109C57.7986 78.6239 57.7986 78.624 57.7986 78.637C57.7986 79.2025 57.6039 79.7355 57.2664 80.223C56.5785 81.198 55.2871 81.978 53.6711 82.4006C52.8339 82.6151 51.9124 82.7386 50.9454 82.7386V82.7386ZM56.7148 76.4269C56.7083 76.4204 56.7018 76.4139 56.6888 76.4074C56.7018 76.4139 56.7083 76.4204 56.7148 76.4269ZM56.6759 76.3944C56.6694 76.3879 56.6694 76.3879 56.6629 76.3814C56.6694 76.3879 56.6694 76.3879 56.6759 76.3944Z" fill="#404244"/>
<path d="M57.244 77.0133C56.9067 76.7534 56.524 76.5066 56.0895 76.2987C55.83 75.9608 55.4992 75.6555 55.1035 75.3761C55.7132 75.6555 56.2451 75.9933 56.6732 76.3766C56.6732 76.3831 56.6732 76.3831 56.6797 76.3896C56.6862 76.3961 56.6927 76.4026 56.6927 76.4026C56.7056 76.4091 56.7122 76.4156 56.7186 76.4221C56.7186 76.4286 56.7186 76.4286 56.7251 76.4286C56.9262 76.6105 57.0948 76.8119 57.244 77.0133" fill="#46484B"/>
<path d="M47.7876 78.6374C47.7876 77.5945 49.1974 76.7524 50.95 76.7524C52.6961 76.7524 54.106 77.5945 54.106 78.6374C54.106 79.6867 52.6961 80.5288 50.95 80.5288C49.1974 80.5288 47.7876 79.6867 47.7876 78.6374Z" fill="#353638"/>
<path d="M40.6704 78.4052C40.6704 78.1939 40.9581 78.0146 41.3161 78.0146C41.6741 78.0146 41.9617 78.1939 41.9617 78.4052C41.9617 78.6165 41.6741 78.7894 41.3161 78.7894C40.9581 78.7894 40.6704 78.6165 40.6704 78.4052Z" fill="#EDE6DF"/>
<path d="M51.5078 73.4528C51.5078 73.2393 51.7984 73.0646 52.1602 73.0646C52.5154 73.0646 52.8061 73.2393 52.8061 73.4528C52.8061 73.6663 52.5154 73.8409 52.1602 73.8409C51.7984 73.8409 51.5078 73.6663 51.5078 73.4528Z" fill="#242526"/>
<path d="M50.3076 83.83C50.3076 83.6167 50.5979 83.4422 50.9528 83.4422C51.3076 83.4422 51.598 83.6167 51.598 83.83C51.598 84.0432 51.3076 84.2177 50.9528 84.2177C50.5979 84.2177 50.3076 84.0432 50.3076 83.83Z" fill="#242526"/>
<path d="M59.8203 78.788C59.8203 78.5794 60.1067 78.4033 60.4648 78.4033C60.8228 78.4033 61.1093 78.5794 61.1093 78.788C61.1093 79.0032 60.8228 79.1793 60.4648 79.1793C60.1067 79.1793 59.8203 79.0032 59.8203 78.788Z" fill="#242526"/>
<path d="M51.0103 80.6225C50.8939 80.6225 50.771 80.616 50.6546 80.6095C50.2083 80.5771 49.8008 80.4994 49.4386 80.3763C49.0699 80.2532 48.753 80.0978 48.5008 79.9164C48.242 79.7285 48.0545 79.5212 47.9316 79.3204C47.8669 79.2297 47.8346 79.1325 47.7958 79.0483C47.7699 78.964 47.7505 78.8928 47.744 78.828C47.7311 78.7049 47.7246 78.6336 47.7246 78.6336C47.7246 78.6336 47.7311 78.5689 47.744 78.4522C47.7505 78.3939 47.7699 78.3162 47.7958 78.2255C47.8346 78.1413 47.8669 78.0441 47.9316 77.9469C48.0545 77.7591 48.242 77.5453 48.5008 77.3639C48.753 77.1825 49.0699 77.0205 49.4386 76.8974C49.8008 76.7743 50.2083 76.6902 50.6546 76.6642C50.7645 76.6642 50.868 76.6513 50.9845 76.6513C51.1009 76.6577 51.2108 76.6513 51.3272 76.6642C51.5601 76.6772 51.7929 76.7031 52.0258 76.7549C52.2651 76.7938 52.5044 76.8715 52.7372 76.9558C52.9701 77.0465 53.2029 77.163 53.4164 77.3056C53.6233 77.4546 53.8238 77.6424 53.9791 77.8562C54.1278 78.0894 54.2378 78.3486 54.2314 78.6466L54.2184 78.8345C54.2055 78.9058 54.1796 78.977 54.1667 79.0483C54.1408 79.113 54.1084 79.1778 54.0825 79.2426C54.0502 79.3009 54.0114 79.3528 53.9791 79.4175C53.8238 79.6378 53.6233 79.8192 53.4164 79.9617C52.983 80.2597 52.4979 80.4281 52.0258 80.5253C51.6894 80.5901 51.3402 80.6225 51.0103 80.6225V80.6225ZM50.9456 76.7484C49.1993 76.7484 47.7893 77.5906 47.7893 78.6336C47.7893 79.6831 49.1993 80.5318 50.9456 80.5318C52.6919 80.5318 54.1084 79.6831 54.1084 78.6336C54.1084 77.5906 52.6919 76.7484 50.9456 76.7484Z" fill="#2D2E30"/>
<path d="M50.95 80.5288C49.1974 80.5288 47.7876 79.6867 47.7876 78.6374C47.7876 77.5945 49.1974 76.7524 50.95 76.7524C52.6961 76.7524 54.106 77.5945 54.106 78.6374C54.106 79.6867 52.6961 80.5288 50.95 80.5288ZM47.8458 78.6374C47.8458 78.6374 47.8523 78.6956 47.8652 78.8122C47.8717 78.864 47.8911 78.9288 47.9169 79.0066C47.9428 79.0843 47.9752 79.1685 48.0398 79.2592C48.1498 79.4406 48.3244 79.6349 48.5766 79.8033C48.8159 79.9718 49.1263 80.1272 49.482 80.2373C49.8377 80.3474 50.2386 80.4122 50.659 80.4316C50.7301 80.4316 50.8077 80.4381 50.8789 80.4381C51.2345 80.4381 51.6096 80.3993 51.9912 80.3086C52.4374 80.2114 52.8902 80.043 53.2782 79.7644C53.6597 79.4989 53.9831 79.1102 53.9766 78.6244C53.9766 78.4236 53.9055 78.1904 53.7697 78.0025C53.6468 77.8082 53.4657 77.6463 53.2782 77.5103C52.8902 77.2382 52.4374 77.0698 51.9912 76.9661C51.7584 76.9143 51.5385 76.8819 51.3187 76.8625C51.2087 76.8495 51.0923 76.8496 50.9824 76.8431C50.963 76.8431 50.9435 76.8431 50.9241 76.8431C50.8336 76.8431 50.7431 76.8431 50.6655 76.8431C50.2386 76.869 49.8377 76.9338 49.482 77.0374C49.1263 77.154 48.8159 77.2965 48.5766 77.4714C48.3244 77.6463 48.1498 77.8406 48.0398 78.0155C47.9752 78.0997 47.9428 78.1969 47.9169 78.2681C47.8911 78.3459 47.8717 78.4107 47.8652 78.4625C47.8523 78.5791 47.8458 78.6438 47.8458 78.6438V78.6374Z" fill="#292A2C"/>
<path d="M107.426 31.8371L37.6934 63.6998L82.6448 84.4339C82.8853 84.5401 83.154 84.5472 83.3945 84.4339L152.752 52.7483L107.426 31.8371" fill="#242526"/>
<path d="M71.0594 78.9118L66.4912 76.8026L38.4918 63.9001C38.4712 63.8452 38.4575 63.7902 38.4575 63.7353L39.6716 63.1787L39.5893 62.9932L107.427 31.9187L118.024 36.8242L71.0594 78.9118" fill="#272729"/>
<path d="M63.8145 93.5372C63.7752 93.5372 63.7425 93.5176 63.7229 93.4784C63.7033 93.4195 63.7229 93.3607 63.7687 93.3411C63.7687 93.3411 63.8145 93.3149 63.8864 93.2822L64.148 93.4064C63.9583 93.4849 63.8602 93.5307 63.8602 93.5307C63.8471 93.5372 63.8341 93.5372 63.8145 93.5372Z" fill="#212123"/>
<path d="M64.1478 93.411L63.8818 93.2845C64.0215 93.2179 64.2808 93.0914 64.6398 92.9183C65.1916 92.6519 65.9761 92.2657 66.9335 91.8195C67.8842 91.3733 68.9878 90.8406 70.1779 90.2945C71.3679 89.7418 72.6445 89.1559 73.9143 88.5698C75.1908 87.9905 76.4672 87.4178 77.664 86.8718C78.8607 86.3324 79.9842 85.8462 80.9416 85.42C81.6264 85.1203 82.2181 84.8607 82.7101 84.6476C82.7234 84.6542 82.7434 84.6609 82.7567 84.6675C82.8431 84.6875 82.9362 84.7075 83.0226 84.7075C83.0359 84.7075 83.0492 84.7008 83.0558 84.7008C83.1556 84.7008 83.2553 84.6809 83.3483 84.6409C83.4481 84.601 83.5079 84.5743 83.5877 84.5411L83.6608 84.5011C83.5744 84.541 83.4813 84.5877 83.3816 84.6409C82.8298 84.9073 82.0386 85.2802 81.0879 85.733C80.1372 86.1792 79.0335 86.7119 77.8435 87.258C76.6468 87.8107 75.3769 88.3967 74.1004 88.9827C72.8306 89.562 71.5541 90.1414 70.3574 90.6808C69.1607 91.2201 68.0304 91.7129 67.0731 92.1391C66.1157 92.5653 65.3112 92.905 64.7461 93.1513C64.5001 93.2579 64.294 93.3444 64.1478 93.411" fill="#2B2C2D"/>
<path d="M18.7901 72.7236L18.6523 72.423L19.0468 72.6108L18.7901 72.7236" fill="#212123"/>
<path d="M19.0507 72.6041L18.6559 72.4255L18.605 72.3043L37.5495 63.649C37.524 63.7192 37.5558 63.8021 37.6258 63.834L37.9379 63.9744L19.0507 72.6041Z" fill="#2D2E30"/>
<path d="M38.2889 63.8143L38.0464 63.6994L38.4931 63.4953C38.4548 63.5718 38.4485 63.6548 38.4548 63.7377L38.2889 63.8143Z" fill="#242526"/>
<path d="M38.4494 63.7434C38.443 63.6604 38.4557 63.571 38.4876 63.4943L39.5783 62.996L39.6676 63.1877L38.4494 63.7434" fill="#252627"/>
<path d="M82.7069 84.6516C82.6205 84.625 82.5674 84.5916 82.501 84.565L80.707 83.7398L66.3484 77.1046L64.1226 76.0797L64.2887 75.9732L70.9264 79.0346L82.6405 84.4386C82.7601 84.4918 82.8797 84.5185 83.0059 84.5185C82.9063 84.5651 82.8066 84.605 82.7069 84.6516" fill="#222324"/>
<path d="M64.1191 76.0815L37.9355 63.9757L38.1118 63.8972L38.7452 64.1915C38.7452 64.1915 38.7517 64.1981 38.7647 64.1981L64.2888 75.9769L64.1191 76.0815Z" fill="#232425"/>
<path d="M83.6548 84.5088C84.0297 84.3246 84.2418 84.2183 84.2418 84.2183C84.2914 84.1971 84.3197 84.1333 84.2914 84.0837C84.2843 84.0695 84.2772 84.0554 84.2631 84.0412L152.746 52.7553L124.347 39.6487L124.453 39.585L152.802 52.6278C152.873 52.6633 152.901 52.7412 152.873 52.805L152.802 52.8758L95.269 79.1953L88.0755 82.4826L84.4824 84.1262L83.6548 84.5088Z" fill="#222324"/>
<path d="M37.5542 63.6485C37.5542 63.6416 37.5611 63.6416 37.5611 63.6347L37.6301 63.5656L107.397 31.7665H107.466L124.457 39.5884L124.353 39.6437L118.096 36.7623L108.831 32.485L107.424 31.8356L39.5203 62.8608L39.4858 62.7641L37.5542 63.6485" fill="#232425"/>
<path d="M83.0131 84.5189C82.8858 84.5189 82.7584 84.4905 82.6453 84.4339L70.9265 79.029L71.0609 78.9157L80.8489 83.4209L82.6523 84.2497C82.7231 84.2851 82.8079 84.3277 82.8503 84.3347C82.9069 84.356 82.9635 84.363 83.0201 84.363C83.0272 84.363 83.0342 84.363 83.0413 84.363C83.105 84.363 83.1686 84.3418 83.2252 84.3276C83.2818 84.2993 83.3737 84.2568 83.4444 84.2285L84.3426 83.8176L87.9424 82.1742L95.1349 78.8944L152.435 52.7483L118.021 36.8241L118.099 36.7603L124.351 39.6434L152.753 52.7483L84.2648 84.0372C84.2436 84.023 84.2224 84.016 84.2012 84.016C84.18 84.016 84.1729 84.0159 84.1587 84.023C84.1587 84.023 83.8405 84.1647 83.2747 84.4056C83.1898 84.441 83.105 84.4764 83.0131 84.5189V84.5189ZM38.7476 64.1886L38.1182 63.891L38.2879 63.8131L38.4859 63.8982C38.5354 64.0186 38.6203 64.1177 38.7476 64.1886ZM39.5256 62.8639L107.427 31.8371L108.834 32.4818L107.66 31.9434C107.582 31.908 107.504 31.8938 107.427 31.8938C107.356 31.8938 107.278 31.908 107.2 31.9434L39.5256 62.8639Z" fill="#1E1F20"/>
<path d="M70.9275 79.0298L64.2915 75.9697L70.9275 79.0298Z" fill="#212123"/>
<path d="M64.291 75.9727L38.7662 64.1961C38.7593 64.1893 38.7525 64.1824 38.7456 64.1824L64.291 75.9727ZM118.098 36.7611L108.831 32.4806L118.098 36.7611Z" fill="#212123"/>
<path d="M70.9247 79.0302L64.2914 75.9727L38.746 64.1824C38.6225 64.1206 38.5334 64.0175 38.4854 63.9007L66.4865 76.804L71.0551 78.9134L70.9247 79.0302V79.0302ZM39.5829 62.9938L39.5211 62.8632L107.199 31.9446C107.274 31.9103 107.35 31.8897 107.425 31.8897C107.507 31.8897 107.583 31.9103 107.658 31.9446L108.831 32.4806L118.099 36.7611L118.023 36.8298L107.425 31.924L39.5829 62.9938Z" fill="#1E1F20"/>
<path d="M83.0168 84.7108C82.9303 84.7108 82.8372 84.6975 82.7507 84.6709C82.7374 84.6642 82.7174 84.6575 82.7041 84.6575C82.8039 84.6109 82.9103 84.5642 83.0035 84.5243C83.0101 84.5243 83.0101 84.5243 83.0168 84.5243C83.1432 84.5243 83.2695 84.4976 83.3893 84.4443L84.2608 84.0445C84.2741 84.0578 84.2807 84.0712 84.2874 84.0845C84.314 84.1378 84.2874 84.1978 84.2408 84.2244C84.2408 84.2244 84.0279 84.3244 83.6554 84.5109L83.5756 84.5442C83.5024 84.5776 83.4426 84.6109 83.3428 84.6442C83.2496 84.6842 83.1498 84.7042 83.05 84.7042C83.0367 84.7042 83.0301 84.7108 83.0168 84.7108" fill="#202022"/>
<path d="M83.0202 84.5189C83.0135 84.5189 83.0135 84.5189 83.0068 84.5189C83.1 84.4789 83.1864 84.439 83.2729 84.4057C83.8383 84.1591 84.1577 84.0259 84.1577 84.0259C84.171 84.0192 84.1843 84.0125 84.1976 84.0125C84.2242 84.0125 84.2442 84.0259 84.2641 84.0392L83.3927 84.439C83.273 84.4923 83.1465 84.5189 83.0202 84.5189" fill="#1E1F20"/>
<path d="M37.9369 63.9776L37.6243 63.8371C37.5542 63.8051 37.5223 63.7221 37.5478 63.6518L39.4802 62.7703L39.5185 62.8661L37.6881 63.703L38.1091 63.8946L37.9369 63.9776" fill="#212123"/>
<path d="M38.1104 63.8945L37.6895 63.7029L39.5198 62.866L38.7609 63.211C38.6269 63.2749 38.5377 63.3835 38.4867 63.4985L38.0402 63.7029L38.2826 63.8179L38.1104 63.8945Z" fill="#1E1F20"/>
<path d="M38.4951 63.4909C38.5398 63.3759 38.629 63.2673 38.7694 63.2098L39.522 62.8649L39.5857 62.9927L38.4951 63.4909" fill="#1E1F20"/>
<path d="M78.6238 79.1327L79.9109 79.7241H80.0569L81.3308 79.1393C81.417 79.1061 81.4502 79.0064 81.417 78.92C81.3772 78.8336 81.271 78.7937 81.1848 78.8336L79.9905 79.3785L78.7697 78.8136C78.6834 78.7804 78.5839 78.8137 78.5375 78.9001C78.4976 78.9865 78.5375 79.0928 78.6238 79.1327" fill="#EDE6DF"/>
<path d="M48.7111 63.4831L47.0443 64.2438C46.9864 64.276 46.9478 64.3405 46.9478 64.4049C46.9478 64.4694 46.9799 64.5339 47.0443 64.5596L48.5373 65.2494C48.6274 65.2881 48.7304 65.2558 48.769 65.1655C48.8012 65.0817 48.769 64.9786 48.6789 64.9399L47.527 64.4049L48.8527 63.799C48.9428 63.7603 48.9814 63.6572 48.9428 63.5669C48.8978 63.4831 48.8012 63.4445 48.7111 63.4831" fill="#EDE6DF"/>
<path d="M105.906 38.6037L104.617 38.0056H104.474L103.056 38.6581C102.968 38.6989 102.934 38.8009 102.968 38.8824C103.009 38.964 103.11 39.0047 103.199 38.9639L104.542 38.3522L105.764 38.9164C105.852 38.9504 105.954 38.9164 105.988 38.828C106.028 38.7465 105.994 38.6445 105.906 38.6037" fill="#EDE6DF"/>
<path d="M135.919 54.205L137.482 53.4849C137.545 53.457 137.587 53.401 137.587 53.3311C137.587 53.2612 137.545 53.2053 137.482 53.1773L135.856 52.4224C135.766 52.3804 135.668 52.4224 135.626 52.5063C135.584 52.5902 135.619 52.695 135.71 52.7369L137.001 53.3311L135.773 53.8973C135.689 53.9323 135.654 54.0302 135.689 54.1211C135.731 54.2049 135.828 54.2469 135.919 54.205" fill="#EDE6DF"/>
<path d="M110.665 25.644L108.839 24.8045L110.665 25.644Z" fill="#B6B8B6"/>
<path d="M13.489 70.0413L12.0444 69.3792C11.7378 69.2359 11.5811 68.9424 11.5811 68.6489C11.5811 68.3623 11.7377 68.0688 12.0512 67.9255L106.447 24.7976C106.828 24.627 107.237 24.5383 107.639 24.5383C108.048 24.5383 108.464 24.627 108.838 24.8045L110.664 25.6439L13.489 70.0413" fill="#353638"/>
<path d="M73.938 96.9451C73.9644 96.9451 73.9841 96.9385 74.0105 96.9319C73.9841 96.9385 73.9644 96.9451 73.938 96.9451ZM74.0171 96.9253C74.0237 96.9253 74.0303 96.9253 74.0369 96.9253C74.0303 96.9253 74.0237 96.9253 74.0171 96.9253ZM74.05 96.9253C74.05 96.9253 74.0501 96.9253 74.0567 96.9187C74.0501 96.9253 74.05 96.9253 74.05 96.9253ZM74.0699 96.9187L74.0764 96.912L74.0699 96.9187ZM74.1028 96.9055C74.1292 96.9055 74.149 96.8989 74.1753 96.8857C74.149 96.8989 74.1292 96.9055 74.1028 96.9055ZM74.1819 96.8857C74.3599 96.8394 74.538 96.7734 74.7028 96.7008C74.538 96.7734 74.3599 96.8394 74.1819 96.8857Z" fill="#28292A"/>
<path d="M72.9863 97.0593C72.3695 97.0593 71.7527 96.9228 71.1718 96.657L69.7373 95.9961L166.914 51.5999L168.585 52.3686C168.886 52.5123 169.044 52.7996 169.044 53.087C169.037 53.3815 168.886 53.6761 168.578 53.8197L164.92 55.4864C164.906 55.4505 164.87 55.4289 164.827 55.4289C164.82 55.4289 164.805 55.4289 164.791 55.4433C164.791 55.4433 159.433 57.8642 151.393 61.4921C143.36 65.1486 132.652 70.0121 121.951 74.8899C111.257 79.7893 100.564 84.6959 92.545 88.374C84.5408 92.0737 79.1974 94.5378 79.1974 94.5378C79.1472 94.5665 79.1257 94.6168 79.1472 94.6743L74.7865 96.6642C74.7578 96.6785 74.7291 96.6929 74.7004 96.7001C74.5355 96.7791 74.3562 96.8366 74.1841 96.8869C74.1841 96.8869 74.1769 96.8869 74.1697 96.8869C74.1482 96.9013 74.1267 96.9012 74.098 96.9084C74.0908 96.9156 74.0837 96.9156 74.0765 96.9156L74.0693 96.9228C74.0621 96.9228 74.0621 96.9228 74.0549 96.9228C74.0478 96.9228 74.0478 96.9228 74.0478 96.9228C74.0406 96.9228 74.0406 96.9228 74.0334 96.9228C74.0263 96.93 74.0191 96.93 74.0119 96.93V96.9372C73.9832 96.9372 73.9617 96.9443 73.9331 96.9515C73.6175 97.0233 73.3019 97.0593 72.9863 97.0593" fill="#303133"/>
<path d="M79.2458 94.7219C79.2101 94.7219 79.1743 94.7004 79.1528 94.6646L164.925 55.478C164.947 55.5353 164.925 55.5854 164.875 55.6069C164.875 55.6069 159.536 58.0767 151.531 61.7705C143.512 65.4572 132.82 70.3609 122.128 75.2646C111.422 80.1325 100.716 85.0075 92.6823 88.6585C84.6419 92.2879 79.2887 94.7147 79.2887 94.7147C79.2744 94.7147 79.2601 94.7219 79.2458 94.7219" fill="#676869"/>
<path d="M79.1518 94.6693C79.1304 94.6192 79.1518 94.562 79.2018 94.5405C79.2018 94.5405 84.5406 92.078 92.5524 88.3698C100.571 84.6975 111.256 79.7939 121.948 74.8832C132.654 70.0154 143.36 65.1476 151.393 61.4896C159.433 57.8603 164.794 55.4407 164.794 55.4407C164.808 55.4264 164.822 55.4264 164.829 55.4264C164.872 55.4264 164.908 55.4478 164.922 55.4836L79.1518 94.6693Z" fill="#6D6F6F"/>
<path d="M169.755 40.9133C169.654 40.9133 169.546 40.8917 169.453 40.8558C169.338 40.8414 169.23 40.7982 169.144 40.7263L168.505 40.4385L169.273 38.2515C169.302 38.3738 169.324 38.5105 169.324 38.6544V38.7263L169.913 38.9997C170.365 39.0716 170.717 39.4673 170.717 39.9493C170.717 40.4817 170.293 40.9133 169.755 40.9133V40.9133ZM167.435 40.7407C167.155 40.7407 166.896 40.6543 166.681 40.5105L166.58 40.4601C166.357 40.4241 166.149 40.3234 165.977 40.1795L151.511 33.5106L151.971 33.3019L167.923 40.6615C167.851 40.6831 167.787 40.7047 167.715 40.719C167.621 40.7334 167.528 40.7407 167.435 40.7407V40.7407ZM150.664 33.1149L140.17 28.2732C137.886 27.4027 135.35 26.6474 134.381 26.3596C134.187 26.3596 134.015 26.3236 133.842 26.2733L133.828 26.2661C133.785 26.2517 133.734 26.2373 133.684 26.2157L133.655 26.2013L133.533 26.1438L133.497 26.1222L133.383 26.0574L133.339 26.0287L133.239 25.9568L133.189 25.9136L133.102 25.8344L133.059 25.7841L132.98 25.705L132.93 25.6474L132.865 25.5538L132.822 25.4891L132.765 25.4028L132.736 25.3524L131.881 24.3596L131.766 24.2158L129.525 21.5899L129.023 21.3525C128.937 21.3165 128.886 21.2014 128.937 21.1079C128.965 21.0431 129.037 21 129.109 21C129.13 21 129.159 21.0072 129.181 21.0144L129.576 21.2014L129.648 21.187C129.82 21.187 130.043 21.1942 130.287 21.1942C130.258 21.2158 130.229 21.2446 130.215 21.2806C130.165 21.3741 130.208 21.4892 130.308 21.5251L130.804 21.7625L134.007 25.5107C134.338 26.1294 134.941 26.5179 135.652 26.5323C136.636 26.8201 139.164 27.5754 141.448 28.4459L151.116 32.9063L150.664 33.1149" fill="#C7C9C8"/>
<path d="M151.515 33.5065L150.667 33.1172L151.119 32.9048L151.974 33.3013L151.515 33.5065Z" fill="#BFC0C0"/>
<path d="M136.047 21.4173C134.841 21.4033 132.032 21.3684 130.924 21.3614C130.896 21.3614 130.875 21.3614 130.854 21.3684L130.485 21.1939C131.321 21.2078 132.422 21.2148 133.37 21.2288C133.475 21.2288 133.586 21.2288 133.684 21.2288C134.123 21.2357 134.506 21.2427 134.799 21.2427C134.876 21.2288 134.952 21.2218 135.036 21.2149L135.099 21.2078C135.127 21.2078 135.155 21.2078 135.176 21.2078C135.217 21.2078 135.259 21.2079 135.301 21.2149H135.357C135.433 21.2288 135.51 21.2358 135.587 21.2498L135.643 21.2637C135.698 21.2846 135.754 21.2986 135.817 21.3196L135.872 21.3405C135.935 21.3614 135.991 21.3893 136.047 21.4173" fill="#C7C9C8"/>
<path d="M130.301 21.5299L133.313 22.9161C133.41 22.9649 133.521 22.9231 133.563 22.8256C133.605 22.728 133.563 22.6166 133.472 22.5748L130.461 21.1885C130.364 21.1468 130.252 21.1816 130.211 21.2791C130.169 21.3766 130.204 21.4881 130.301 21.5299Z" fill="#2A2B2C"/>
<path d="M136.61 21.4221C136.442 21.4221 132.328 21.3731 130.92 21.3592C130.745 21.3522 130.641 21.5687 130.759 21.7084L134.504 26.0947L136.61 21.4221" fill="#242526"/>
<path d="M168.362 40.8566L169.575 37.4068L144.159 25.6774L143.664 25.4546C141.189 24.2759 138.641 22.5798 137.952 22.0982C137.515 21.552 136.833 21.2717 136.058 21.4155C134.767 21.6598 133.726 22.9894 133.74 24.3909C133.748 25.6271 134.58 26.5039 135.656 26.5255C136.639 26.8129 139.172 27.5748 141.454 28.4444L168.362 40.8566Z" fill="#353638"/>
<path d="M169.112 38.7149L142.819 26.6646L142.317 26.4346C139.849 25.2562 137.302 23.5604 136.606 23.0861C136.341 22.7484 135.989 22.5185 135.573 22.4179C135.774 22.2239 136.004 22.0657 136.248 21.9436C136.52 22.0657 136.764 22.2597 136.958 22.5041C137.654 22.9711 140.193 24.6741 142.668 25.8454L143.163 26.0753L169.334 38.0753L169.112 38.7149" fill="#414345"/>
<path d="M137.52 21.699C137.213 21.4963 136.85 21.3774 136.452 21.3774C136.333 21.3774 136.201 21.3914 136.075 21.4123C136.201 21.3914 136.333 21.3774 136.452 21.3774C136.85 21.3774 137.213 21.4963 137.52 21.699Z" fill="#6D7173"/>
<path d="M133.758 24.7402C133.758 24.7333 133.758 24.7332 133.758 24.7332C133.758 24.7332 133.758 24.7333 133.758 24.7402ZM133.758 24.7193C133.758 24.7123 133.758 24.7123 133.758 24.7123C133.758 24.7123 133.758 24.7123 133.758 24.7193ZM133.758 24.6914C133.758 24.6844 133.758 24.6844 133.758 24.6774C133.758 24.6844 133.758 24.6844 133.758 24.6914ZM133.751 24.6634C133.751 24.6634 133.751 24.6634 133.751 24.6564C133.751 24.6634 133.751 24.6634 133.751 24.6634ZM133.751 24.6425C133.751 24.6355 133.751 24.6285 133.751 24.6285C133.751 24.6285 133.751 24.6355 133.751 24.6425ZM133.744 24.6146C133.744 24.6076 133.744 24.6076 133.744 24.6006C133.744 24.6076 133.744 24.6076 133.744 24.6146ZM133.744 24.5866C133.744 24.5797 133.744 24.5796 133.744 24.5727C133.744 24.5796 133.744 24.5797 133.744 24.5866ZM133.744 24.5587C133.744 24.5517 133.744 24.5518 133.744 24.5448C133.744 24.5518 133.744 24.5517 133.744 24.5587ZM133.744 24.5308C133.744 24.5308 133.744 24.5238 133.744 24.5168C133.744 24.5238 133.744 24.5308 133.744 24.5308ZM133.744 24.5028C133.744 24.4959 133.744 24.4959 133.744 24.4889C133.744 24.4959 133.744 24.4959 133.744 24.5028ZM133.744 24.475C133.744 24.475 133.744 24.4609 133.744 24.454C133.744 24.4609 133.744 24.475 133.744 24.475ZM133.744 24.447C133.744 24.44 133.744 24.433 133.737 24.433C133.744 24.433 133.744 24.44 133.744 24.447ZM133.737 24.4191C133.737 24.4121 133.737 24.3982 133.737 24.3912C133.737 24.3772 133.737 24.3702 133.737 24.3632C133.737 24.3702 133.737 24.3772 133.737 24.3912C133.737 24.3982 133.737 24.4121 133.737 24.4191ZM136.058 21.4171C136.065 21.4171 136.065 21.4171 136.072 21.4171C136.065 21.4171 136.065 21.4171 136.058 21.4171Z" fill="#272729"/>
<path d="M135.475 26.5152C134.582 26.4174 133.905 25.7254 133.758 24.7398C133.758 24.7328 133.758 24.7327 133.758 24.7327C133.758 24.7327 133.758 24.7188 133.758 24.7118C133.758 24.6978 133.758 24.6978 133.758 24.6908C133.758 24.6838 133.758 24.6838 133.758 24.6768C133.758 24.6768 133.758 24.6698 133.751 24.6628C133.751 24.6559 133.751 24.6559 133.751 24.6559C133.751 24.6489 133.751 24.6419 133.751 24.6419C133.751 24.6349 133.751 24.6279 133.751 24.6279C133.751 24.6209 133.751 24.621 133.744 24.614C133.744 24.607 133.744 24.6 133.744 24.6C133.744 24.593 133.744 24.586 133.744 24.586C133.744 24.579 133.744 24.579 133.744 24.572C133.744 24.565 133.744 24.565 133.744 24.558C133.744 24.551 133.744 24.5441 133.744 24.5441C133.744 24.5371 133.744 24.5371 133.744 24.5301C133.744 24.5301 133.744 24.5231 133.744 24.5161C133.744 24.5091 133.744 24.5091 133.744 24.5021C133.744 24.4951 133.744 24.4881 133.744 24.4881C133.744 24.4811 133.744 24.4812 133.744 24.4742C133.744 24.4742 133.744 24.4601 133.744 24.4531C133.744 24.4531 133.744 24.4532 133.744 24.4462C133.744 24.4392 133.744 24.4322 133.737 24.4322C133.737 24.4252 133.737 24.4182 133.737 24.4182C133.737 24.4112 133.737 24.3973 133.737 24.3903C133.737 24.3763 133.737 24.3693 133.737 24.3623C133.744 22.9712 134.77 21.6571 136.054 21.4195C136.061 21.4195 136.068 21.4124 136.075 21.4124C136.201 21.3915 136.333 21.3775 136.452 21.3775C136.85 21.3775 137.213 21.4964 137.52 21.6991C137.436 21.6921 137.359 21.6851 137.276 21.6851C137.157 21.6851 137.024 21.699 136.892 21.727C136.668 21.7619 136.452 21.8388 136.25 21.9367C136.012 21.8388 135.747 21.783 135.468 21.783C135.356 21.783 135.238 21.7829 135.119 21.8039C134.847 21.9857 134.603 22.2163 134.393 22.4889C134.505 22.454 134.61 22.4191 134.721 22.3981C134.861 22.3701 134.993 22.3631 135.119 22.3631C135.273 22.3631 135.426 22.3771 135.573 22.4121C134.966 22.9853 134.568 23.824 134.575 24.6978C134.582 25.5017 134.938 26.1517 135.475 26.5152" fill="#2D2E2F"/>
<path d="M134.391 22.4916C134.593 22.2193 134.844 21.9959 135.116 21.8074C135.235 21.7864 135.353 21.7865 135.465 21.7865C135.743 21.7865 136.008 21.8423 136.245 21.9401C136.001 22.0658 135.771 22.2263 135.569 22.4149C135.423 22.3869 135.269 22.366 135.116 22.366C134.984 22.366 134.851 22.373 134.719 22.4009C134.607 22.4218 134.496 22.4567 134.391 22.4916" fill="#303133"/>
<path d="M133.147 24.267C133.14 22.9274 134.136 21.6436 135.362 21.4203L135.418 21.4133C135.181 21.4063 134.923 21.4064 134.644 21.3994C133.641 21.9018 132.91 23.039 132.896 24.2182L133.161 24.5252C133.154 24.4415 133.147 24.3577 133.147 24.267" fill="#5B5F61"/>
<path d="M141.051 26.4286C138.656 25.5163 135.988 24.7118 134.962 24.4173C134.511 24.403 134.095 24.2449 133.765 23.9791C133.743 24.1228 133.729 24.2592 133.729 24.3957C133.736 24.8195 133.837 25.2003 134.009 25.5163C134.238 25.6169 134.496 25.6743 134.762 25.6815C135.787 25.9832 138.455 26.7805 140.85 27.6928L168.503 40.4498L168.912 39.2862L141.051 26.4286" fill="#2A2B2C"/>
<path d="M138.995 24.6901L138.524 25.324C138.419 25.4649 138.468 25.6692 138.629 25.7396L145.338 28.8389C145.451 28.8952 145.599 28.8529 145.669 28.7473L146.147 28.1063C146.245 27.9654 146.196 27.7682 146.035 27.6978L139.326 24.5985C139.213 24.5492 139.073 24.5844 138.995 24.6901" fill="#28292A"/>
<path d="M139.328 24.5952C139.216 24.5461 139.069 24.5812 138.992 24.6864L138.523 25.3249C138.417 25.4652 138.474 25.6617 138.628 25.7389L141.002 26.8334L141.808 25.7389L139.328 24.5952Z" fill="#434648"/>
<path d="M138.945 24.6632C138.952 24.6702 138.994 24.5787 139.142 24.5364C139.177 24.5293 139.226 24.5293 139.276 24.5364C139.325 24.5434 139.36 24.5716 139.409 24.5927C139.494 24.628 139.599 24.6772 139.712 24.7265C140.155 24.9308 140.802 25.2267 141.575 25.5789C142.342 25.9241 143.249 26.3326 144.213 26.7694C144.698 26.9878 145.197 27.2132 145.704 27.4386C145.83 27.502 145.957 27.5654 146.09 27.6218C146.259 27.7063 146.337 27.9317 146.252 28.1078C146.21 28.1923 146.161 28.2417 146.126 28.298L145.999 28.4671L145.746 28.8122C145.69 28.8897 145.598 28.9391 145.507 28.9602C145.415 28.9743 145.303 28.9391 145.247 28.9109L144.867 28.7348C144.606 28.608 144.353 28.4953 144.1 28.3755C143.594 28.136 143.101 27.9106 142.616 27.6851C141.667 27.2343 140.767 26.8117 140 26.4454C139.62 26.2693 139.269 26.1002 138.952 25.9593C138.875 25.917 138.797 25.8818 138.727 25.8466L138.614 25.7973L138.509 25.7268C138.375 25.6 138.396 25.3957 138.488 25.2901C138.776 24.8956 138.945 24.6632 138.945 24.6632V24.6632ZM139.022 24.7195C139.022 24.7195 138.854 24.952 138.565 25.3465C138.495 25.424 138.488 25.5719 138.579 25.6564C138.622 25.6987 138.699 25.7198 138.769 25.755C138.84 25.7903 138.917 25.8255 138.994 25.8607C139.311 26.0016 139.662 26.1636 140.049 26.3397C140.823 26.6849 141.723 27.0935 142.687 27.5302C143.172 27.7486 143.671 27.974 144.178 28.2064C144.431 28.3192 144.684 28.4389 144.944 28.5587L145.324 28.7278C145.394 28.763 145.422 28.77 145.472 28.763L145.584 28.6925L145.837 28.3544L145.964 28.1853C146.006 28.1219 146.055 28.0656 146.076 28.0233C146.119 27.9458 146.083 27.826 145.999 27.7908C145.872 27.7345 145.746 27.6711 145.619 27.6147C145.12 27.3822 144.628 27.1427 144.142 26.9244C143.186 26.4665 142.286 26.0509 141.519 25.6846C140.752 25.3253 140.113 25.0224 139.669 24.8182C139.557 24.7689 139.451 24.7195 139.367 24.6773L139.254 24.635H139.163C139.051 24.6561 139.022 24.7266 139.022 24.7195" fill="#1C1C1D"/>
<path d="M169.99 38.5603C169.997 39.5309 169.279 40.4584 168.382 40.6238C167.484 40.7892 166.752 40.1349 166.738 39.1643C166.731 38.1937 167.456 37.2662 168.353 37.1008C169.243 36.9355 169.982 37.5897 169.99 38.5603Z" fill="#5B5F61"/>
<path d="M170.602 38.8276C170.609 39.7987 169.891 40.7195 168.986 40.8921C168.095 41.0504 167.356 40.403 167.356 39.4318C167.341 38.4607 168.067 37.5328 168.964 37.3673C169.855 37.1947 170.595 37.8564 170.602 38.8276" fill="#242526"/>
<path d="M168.936 40.2105L170.603 40.9807L171.437 39.2819L169.612 38.4397L168.936 40.2105" fill="#3A3B3D"/>
<path d="M171.81 39.9679C171.81 40.4648 171.436 40.9472 170.976 41.0336C170.516 41.1201 170.142 40.7744 170.135 40.2776C170.128 39.7735 170.502 39.3054 170.962 39.219C171.422 39.1326 171.803 39.4639 171.81 39.9679" fill="#3A3B3D"/>
<path d="M170.106 39.1642C170.113 39.6675 169.739 40.1349 169.28 40.2212C168.821 40.3074 168.44 39.9767 168.44 39.4733C168.433 38.97 168.799 38.5026 169.266 38.4163C169.725 38.33 170.106 38.6608 170.106 39.1642Z" fill="#3A3B3D"/>
<path d="M170.073 40.1168C170.073 39.5839 170.504 39.1518 171.043 39.1518C171.568 39.1518 172 39.5839 172 40.1168C172 40.6498 171.568 41.0819 171.043 41.0819C170.504 41.0819 170.073 40.6498 170.073 40.1168Z" fill="#3A3B3D"/>
<path d="M170.862 40.1776C170.862 39.9399 171.049 39.7527 171.286 39.7527C171.524 39.7527 171.711 39.9399 171.711 40.1776C171.711 40.408 171.524 40.6023 171.286 40.6023C171.049 40.6023 170.862 40.408 170.862 40.1776Z" fill="#5B5F61"/>
</svg>
