<svg width="24" height="24" viewBox="0 0 24 24" fill="none" xmlns="http://www.w3.org/2000/svg">
<path fill-rule="evenodd" clip-rule="evenodd" d="M4.53903 12.8749L5.37092 13.6904L11.4746 19.6783C11.7366 19.8841 11.869 19.9954 12 20C12.1309 19.9954 12.2634 19.8842 12.5254 19.6783L18.6291 13.6904L19.461 12.8749C21.513 10.7727 21.513 7.33054 19.461 5.22832C17.5984 3.31669 14.5866 3.79538 12.5962 5.57134C12.228 5.89911 12.0986 6.06219 12 6.06068C11.9014 6.06219 11.772 5.89911 11.4038 5.57134C9.41338 3.79538 6.40158 3.31669 4.53903 5.22832C2.48699 7.33054 2.48699 10.7727 4.53903 12.8749V12.8749Z" fill="white"/>
</svg>
