<svg width="48" height="48" viewBox="0 0 48 48" fill="none" xmlns="http://www.w3.org/2000/svg">
<path fill-rule="evenodd" clip-rule="evenodd" d="M24 44C35.0457 44 44 35.0457 44 24C44 12.9543 35.0457 4 24 4C12.9543 4 4 12.9543 4 24C4 35.0457 12.9543 44 24 44ZM28.0378 15.8615C26.982 15.8139 26.6685 15.8019 23.9973 15.8019C21.3301 15.8019 21.0125 15.8099 19.9568 15.8615C18.9804 15.9051 18.4525 16.0718 18.0992 16.2068C17.6309 16.3854 17.2975 16.6037 16.9482 16.953C16.5989 17.3022 16.3846 17.6356 16.202 18.104C16.0631 18.4572 15.9004 18.9851 15.8567 19.9615C15.8091 21.0173 15.7972 21.3308 15.7972 24.002C15.7972 26.6731 15.8091 26.9867 15.8567 28.0425C15.9004 29.0189 16.0671 29.5467 16.202 29.9C16.3806 30.3683 16.5989 30.7017 16.9482 31.051C17.2975 31.4003 17.6309 31.6146 18.0992 31.7972C18.4525 31.9361 18.9804 32.0988 19.9568 32.1425C21.0125 32.1901 21.3261 32.202 23.9973 32.202C26.6685 32.202 26.982 32.1901 28.0378 32.1425C29.0142 32.0988 29.5421 31.9321 29.8953 31.7972C30.3637 31.6186 30.6971 31.4003 31.0464 31.051C31.3956 30.7017 31.61 30.3683 31.7926 29.9C31.9315 29.5467 32.0942 29.0189 32.1379 28.0425C32.1855 26.9867 32.1974 26.6731 32.1974 24.002C32.1974 21.3308 32.1855 21.0173 32.1379 19.9615C32.0942 18.9851 31.9275 18.4572 31.7926 18.104C31.6139 17.6356 31.3956 17.3022 31.0464 16.953C30.6971 16.6037 30.3637 16.3894 29.8953 16.2068C29.5421 16.0679 29.0142 15.9051 28.0378 15.8615ZM19.8734 14.0595C20.9411 14.0119 21.2824 14 23.9973 14C26.7121 14 27.0535 14.0119 28.1251 14.0556C29.1928 14.1032 29.9191 14.2739 30.5542 14.5199C31.2091 14.7779 31.7687 15.1193 32.3244 15.6749C32.8801 16.2306 33.2254 16.7863 33.4794 17.4451C33.7255 18.0841 33.8962 18.8105 33.9438 19.8742C33.9914 20.9419 34.0033 21.2792 34.0033 23.998C34.0033 26.7168 33.9914 27.0542 33.9438 28.1218C33.8962 29.1895 33.7255 29.9159 33.4794 30.5509C33.2214 31.2058 32.8801 31.7654 32.3244 32.3211C31.7687 32.8768 31.2131 33.2221 30.5542 33.4761C29.9152 33.7222 29.1888 33.8928 28.1251 33.9405C27.0574 33.9881 26.7201 34 24.0013 34C21.2824 34 20.9451 33.9881 19.8774 33.9405C18.8097 33.8928 18.0834 33.7222 17.4483 33.4761C16.7934 33.2181 16.2338 32.8768 15.6781 32.3211C15.1224 31.7654 14.7771 31.2098 14.5231 30.5509C14.277 29.9119 14.1064 29.1856 14.0587 28.1218C14.0111 27.0542 13.9992 26.7128 13.9992 23.998C13.9992 21.2832 14.0111 20.9419 14.0587 19.8782C14.1064 18.8105 14.277 18.0841 14.5231 17.4491C14.7811 16.7942 15.1224 16.2346 15.6781 15.6789C16.2338 15.1232 16.7894 14.7779 17.4483 14.5239C18.0834 14.2778 18.8097 14.1072 19.8734 14.0595ZM23.9974 18.8657C21.1634 18.8657 18.8614 21.1638 18.8614 24.0017C18.8614 26.8395 21.1595 29.1376 23.9974 29.1376C26.8353 29.1376 29.1334 26.8395 29.1334 24.0017C29.1334 21.1638 26.8353 18.8657 23.9974 18.8657ZM23.9974 27.3317C22.1557 27.3317 20.6633 25.8393 20.6633 23.9977C20.6633 22.1561 22.1557 20.6637 23.9974 20.6637C25.839 20.6637 27.3314 22.1561 27.3314 23.9977C27.3314 25.8393 25.839 27.3317 23.9974 27.3317ZM30.536 18.6593C30.536 19.3213 29.9994 19.858 29.3374 19.858C28.6754 19.858 28.1387 19.3213 28.1387 18.6593C28.1387 17.9973 28.6754 17.4607 29.3374 17.4607C29.9994 17.4607 30.536 17.9973 30.536 18.6593Z" fill="#237ED5"/>
</svg>
