<svg width="153" height="99" viewBox="0 0 153 99" fill="none" xmlns="http://www.w3.org/2000/svg">
<path d="M24 22C24 18.6863 26.6863 16 30 16H121.72C125.033 16 127.72 18.6863 127.72 22V78.1892C127.72 81.5029 125.033 84.1892 121.72 84.1892H30C26.6863 84.1892 24 81.5029 24 78.1892V22Z" fill="white"/>
<mask id="mask0" mask-type="alpha" maskUnits="userSpaceOnUse" x="24" y="16" width="104" height="69">
<path d="M24 22C24 18.6863 26.6863 16 30 16H121.72C125.033 16 127.72 18.6863 127.72 22V78.1892C127.72 81.5029 125.033 84.1892 121.72 84.1892H30C26.6863 84.1892 24 81.5029 24 78.1892V22Z" fill="white"/>
</mask>
<g mask="url(#mask0)">
<path d="M32.7676 30.065L60.1994 33.9329L90.2437 22.3293" stroke="#204161" stroke-width="0.5"/>
<line y1="-0.25" x2="39.6402" y2="-0.25" transform="matrix(-0.479204 0.877704 -0.83492 -0.550371 113.891 57.0476)" stroke="#204161" stroke-width="0.5"/>
<line y1="-0.25" x2="45.1007" y2="-0.25" transform="matrix(-0.528329 -0.84904 0.799503 -0.600662 114.291 58.5695)" stroke="#204161" stroke-width="0.5"/>
<line y1="-0.25" x2="23.5598" y2="-0.25" transform="matrix(-0.471966 0.881617 -0.839839 -0.542835 101.845 0.844635)" stroke="#204161" stroke-width="0.5"/>
<line y1="-0.25" x2="47.8749" y2="-0.25" transform="matrix(-0.998696 -0.0510427 0.0422897 -0.999105 138.539 24.059)" stroke="#204161" stroke-width="0.5"/>
<line y1="-0.25" x2="31.3805" y2="-0.25" transform="matrix(0.87902 -0.476785 0.409795 0.912178 114.291 58.5695)" stroke="#204161" stroke-width="0.5"/>
<line y1="-0.25" x2="27.183" y2="-0.25" transform="matrix(0.360259 0.932852 -0.906321 0.422589 114.291 58.5695)" stroke="#204161" stroke-width="0.5"/>
<line y1="-0.25" x2="49.1079" y2="-0.25" transform="matrix(0.284343 -0.958723 0.94146 0.337123 19.5454 77.5275)" stroke="#204161" stroke-width="0.5"/>
<line y1="-0.25" x2="20.1963" y2="-0.25" transform="matrix(-0.190285 0.981729 -0.973695 -0.227855 37.3521 10.6192)" stroke="#204161" stroke-width="0.5"/>
<line y1="-0.25" x2="39.491" y2="-0.25" transform="matrix(0.140784 0.99004 -0.98558 0.169212 55.1431 -4.04251)" stroke="#204161" stroke-width="0.5"/>
<line y1="-0.25" x2="27.1835" y2="-0.25" transform="matrix(0.777198 0.629256 -0.556951 0.830545 60.7029 33.8333)" stroke="#204161" stroke-width="0.5"/>
<line y1="-0.25" x2="39.8533" y2="-0.25" transform="matrix(0.996335 -0.0855417 0.0700053 0.997547 -6.19946 33.8333)" stroke="#204161" stroke-width="0.5"/>
<line y1="-0.25" x2="59.0966" y2="-0.25" transform="matrix(0.825017 0.565108 -0.508921 0.860813 19.5454 77.5275)" stroke="#204161" stroke-width="0.5"/>
<line y1="-0.25" x2="50.3347" y2="-0.25" transform="matrix(-0.880572 -0.473912 0.421288 -0.906927 99.3274 87.0691)" stroke="#204161" stroke-width="0.5"/>
<line y1="-0.25" x2="37.2809" y2="-0.25" transform="matrix(0.94397 -0.33003 0.278144 0.960539 19.9119 76.1464)" stroke="#204161" stroke-width="0.5"/>
<line y1="-0.25" x2="49.5269" y2="-0.25" transform="matrix(-0.268481 -0.963285 0.951616 -0.307288 68.301 110.923)" stroke="#204161" stroke-width="0.5"/>
<line y1="-0.25" x2="40.0802" y2="-0.25" transform="matrix(0.552933 0.833225 -0.792775 0.609514 32.8423 29.819)" stroke="#204161" stroke-width="0.5"/>
<line y1="-0.25" x2="34.1685" y2="-0.25" transform="matrix(-0.908041 0.41888 -0.36992 -0.929064 86.0303 48.9023)" stroke="#204161" stroke-width="0.5"/>
<line y1="-0.25" x2="32.5523" y2="-0.25" transform="matrix(0.291774 -0.956487 0.938382 0.345601 81.5981 53.6729)" stroke="#204161" stroke-width="0.5"/>
<line y1="-0.25" x2="33.4549" y2="-0.25" transform="matrix(0.973789 0.227454 -0.189939 0.981796 81.498 50.66)" stroke="#204161" stroke-width="0.5"/>
<circle cx="81.7085" cy="50.317" r="9" fill="#E5384C"/>
<circle cx="91.2954" cy="22.1647" r="3" fill="#204161"/>
<circle cx="97.166" cy="85.4569" r="3" fill="#204161"/>
<circle cx="55.251" cy="63.3047" r="3" fill="#204161"/>
<circle cx="61.0959" cy="33.7682" r="3" fill="#204161"/>
<circle cx="33.8193" cy="29.5488" r="3" fill="#204161"/>
<circle cx="113.701" cy="58.0303" r="3" fill="#204161"/>
</g>
<g clip-path="url(#clip0)">
<path d="M79.1017 83.3562C78.7442 83.3801 78.3987 83.4278 78.0413 83.4278C77.1716 83.4158 77.3026 83.547 77.2907 82.6648C77.2788 81.7826 77.255 80.9004 77.255 80.0182C77.255 79.7678 77.1954 79.6605 76.9214 79.6605C76.552 79.6724 76.1946 79.6247 75.8252 79.6247C75.587 79.6247 75.5155 79.5294 75.5155 79.3029C75.5155 78.4803 75.5155 77.6577 75.5155 76.8351C75.5155 76.6086 75.4797 76.3821 75.4678 76.1555C75.4678 75.9767 75.3725 75.9171 75.2057 75.9171C74.8245 75.9052 74.4551 75.8813 74.0739 75.8694C73.8475 75.8694 73.7403 75.7621 73.7522 75.5475C73.7641 75.1064 73.7522 74.6534 73.7879 74.2123C73.7998 73.9858 73.7522 73.9143 73.5139 73.9143C73.1088 73.9262 72.7037 73.9143 72.2986 73.9143C72.0961 73.9143 72.0127 73.8427 72.0127 73.6401C72.0127 71.8876 72.0127 70.147 72.0127 68.3945C72.0127 68.1323 72.1795 68.1203 72.3701 68.1203C73.2518 68.1203 74.1334 68.1084 75.0151 68.1084C75.6465 68.1084 76.2899 68.1084 76.9214 68.1084C77.386 68.1084 77.386 68.1203 77.3979 68.5734C77.3979 68.9549 77.4098 69.3244 77.3979 69.7059C77.3979 69.9205 77.4813 70.004 77.6958 70.004C78.0175 69.992 78.3511 69.9801 78.6727 70.004C78.9587 70.0159 79.054 69.9324 79.054 69.6344C79.0421 68.1323 79.0421 66.6421 79.0421 65.1399C79.0421 61.8019 79.0421 58.4757 79.054 55.1377C79.054 54.5058 79.0778 53.874 79.0778 53.2302C79.0778 52.9918 79.1612 52.9083 79.3995 52.9202C79.7808 52.9322 80.1501 52.9083 80.5314 52.9202C80.7577 52.9322 80.8292 52.8368 80.8173 52.6222C80.8054 52.193 80.8292 51.7638 80.8173 51.3466C80.8173 51.1081 80.9007 51.0128 81.1509 51.0128C82.104 51.0247 83.0572 51.0128 84.0103 51.0247C84.3797 51.0247 84.4035 51.0485 84.4154 51.442C84.4273 51.8234 84.4392 52.2169 84.4154 52.5984C84.4035 52.8725 84.4988 52.9441 84.7609 52.9322C85.1064 52.9083 85.4519 52.9202 85.7974 52.9322C86.1549 52.9322 86.1906 52.9679 86.1906 53.3256C86.1906 54.9946 86.1906 56.6636 86.1906 58.3327C86.1906 58.9526 86.2025 59.5606 86.1906 60.1805C86.1906 60.4309 86.274 60.5143 86.5123 60.5024C87.4416 60.4905 88.3709 60.5024 89.3121 60.5024C89.6815 60.5024 89.6934 60.5263 89.6934 60.8958C89.6934 61.2773 89.7172 61.6707 89.6934 62.0522C89.6815 62.3264 89.7768 62.4099 90.0508 62.4099C91.1708 62.398 92.2907 62.398 93.4106 62.4099C93.8038 62.4099 94.197 62.4456 94.6021 62.4456C94.8761 62.4456 94.9952 62.541 94.9833 62.8391C94.9595 63.2205 94.9833 63.614 94.9833 63.9955C94.9833 64.222 95.0667 64.3054 95.2931 64.3054C96.2105 64.2935 97.116 64.3054 98.0334 64.3054C98.4861 64.3054 98.4861 64.3173 98.498 64.7823C98.498 65.1519 98.5099 65.5214 98.498 65.8791C98.498 66.0937 98.5576 66.2129 98.7959 66.2129C99.1771 66.2129 99.5465 66.2486 99.9277 66.2486C100.178 66.2486 100.261 66.344 100.249 66.5825C100.237 66.9997 100.249 67.417 100.249 67.8342C100.249 68.025 100.309 68.0965 100.512 68.0965C100.857 68.0965 101.203 68.1084 101.548 68.1084C101.977 68.1084 101.977 68.1084 101.977 68.5376C101.977 69.694 101.977 70.8385 101.977 71.9949C101.989 74.9157 102.013 77.8246 102.001 80.7454C102.001 81.723 102.084 81.5561 101.203 81.568C100.988 81.568 100.762 81.5799 100.547 81.5799C100.321 81.5799 100.249 81.6753 100.249 81.9018C100.261 83.2966 100.249 84.7034 100.249 86.0982C100.249 86.3724 100.237 86.6585 100.249 86.9327C100.261 87.1354 100.178 87.2308 99.9754 87.2308C99.5703 87.2427 99.1652 87.2665 98.7601 87.2665C98.5933 87.2665 98.5337 87.3023 98.5337 87.4811C98.5337 89.019 98.5099 90.5569 98.5099 92.0948C98.5099 92.9293 98.5099 92.9412 97.6759 92.9412C93.2319 92.9651 88.7879 92.9889 84.3558 93.0008C83.2955 93.0008 82.2351 92.9651 81.1747 92.9532C80.9126 92.9532 80.8054 92.8697 80.8054 92.5955C80.8173 91.6179 80.8173 90.6523 80.8054 89.6747C80.8054 88.9832 80.7696 88.2918 80.7696 87.5884C80.7696 87.3738 80.6862 87.2785 80.4718 87.2665C80.1025 87.2546 79.7331 87.2308 79.3757 87.2427C79.1374 87.2427 79.0421 87.1473 79.0421 86.9089C79.0659 85.7167 79.0778 84.5365 79.1017 83.3562C79.5663 83.3324 80.031 83.3085 80.4956 83.3085C80.8888 83.3085 80.9007 83.3205 80.9007 83.7139C80.9007 84.7391 80.9126 85.7644 80.9007 86.7777C80.9007 87.04 80.9841 87.1235 81.2462 87.1115C81.5917 87.0996 81.9372 87.1235 82.2828 87.1115C82.5687 87.0996 82.6878 87.195 82.6759 87.505C82.664 88.5183 82.6878 89.5316 82.664 90.545C82.664 90.8549 82.7712 90.9265 83.0572 90.9265C87.4535 90.9265 91.8499 90.9265 96.2343 90.9265C96.6275 90.9265 96.6394 90.9265 96.6394 90.5331C96.6394 89.5316 96.6513 88.5302 96.6394 87.5288C96.6394 87.2665 96.687 87.1235 96.9968 87.1354C97.3304 87.1592 97.6759 87.1354 98.0095 87.1473C98.4384 87.1592 98.4384 87.1712 98.4384 86.742C98.4384 85.0849 98.4384 83.4278 98.4265 81.7706C98.4265 81.5203 98.4861 81.413 98.7601 81.4249C99.1175 81.4488 99.475 81.413 99.8324 81.4368C100.106 81.4488 100.166 81.3534 100.166 81.103C100.154 79.6486 100.166 78.1822 100.166 76.7278C100.166 73.9977 100.166 71.2677 100.178 68.5376C100.178 68.2753 100.118 68.168 99.8324 68.18C99.4631 68.2038 99.0937 68.18 98.7363 68.1919C98.5099 68.2038 98.4384 68.1084 98.4384 67.8938C98.4384 67.4527 98.4265 66.9997 98.3908 66.5586C98.3789 66.4752 98.2478 66.3321 98.1644 66.3321C97.7712 66.3083 97.3781 66.3202 96.973 66.3083C96.7824 66.3083 96.7228 66.4036 96.7228 66.5944C96.7347 67.0355 96.7228 67.4647 96.7228 67.9058C96.7228 69.1695 96.7109 70.4212 96.7228 71.6849C96.7228 71.9234 96.6513 72.0307 96.4011 72.0187C96.0079 71.9949 95.6028 72.0068 95.2097 72.0068C95.0191 72.0068 94.9118 71.9472 94.9118 71.7326C94.9118 71.4346 94.888 71.1365 94.888 70.8385C94.888 68.7999 94.8761 66.7732 94.888 64.7346C94.888 64.4723 94.8284 64.365 94.5425 64.3769C93.6608 64.3889 92.7792 64.3769 91.8975 64.3769C91.4448 64.3769 91.4448 64.3769 91.4448 64.8419C91.4448 66.4632 91.4448 68.0727 91.4448 69.694C91.4448 69.9801 91.3733 70.1113 91.0635 70.0993C90.6823 70.0755 90.2891 70.0874 89.9079 70.0993C89.7053 70.0993 89.6219 70.0278 89.6219 69.8251C89.6338 69.5033 89.6219 69.1933 89.6219 68.8714C89.6219 66.8686 89.6219 64.8657 89.6338 62.8629C89.6338 62.5887 89.5385 62.5052 89.2764 62.5052C88.3471 62.5172 87.4178 62.5172 86.4766 62.5172C86.2621 62.5172 86.1787 62.6006 86.1787 62.8152C86.1906 63.4232 86.1787 64.0312 86.1787 64.6273C86.1787 66.3321 86.1787 68.0369 86.1906 69.7536C86.1906 70.0278 86.1072 70.1232 85.8332 70.1113C85.4519 70.0993 85.0588 70.0993 84.6775 70.1232C84.4273 70.1351 84.3201 70.0517 84.332 69.7775C84.3439 69.1575 84.332 68.5495 84.332 67.9296C84.332 63.0536 84.332 58.1777 84.3439 53.3137C84.3439 53.0395 84.2724 52.956 83.9865 52.956C83.1167 52.9798 82.247 52.9798 81.3654 52.9918C80.8888 52.9918 80.8888 52.9918 80.8888 53.4567C80.8888 57.9393 80.8888 62.4337 80.8888 66.9163C80.8888 69.1337 80.8888 71.3392 80.8888 73.5566C80.8888 73.8189 80.8173 73.9381 80.5433 73.9262C80.162 73.9024 79.7689 73.9143 79.3876 73.9262C79.1612 73.9381 79.0659 73.8666 79.0659 73.6282C79.0778 73.2347 79.0421 72.8294 79.054 72.436C79.0659 72.1618 78.9825 72.0307 78.6847 72.0545C78.363 72.0664 78.0294 72.0545 77.7077 72.0545C77.3145 72.0545 77.3026 72.0426 77.3026 71.6611C77.3026 71.2319 77.2907 70.8027 77.3026 70.3855C77.3026 70.1828 77.2311 70.1351 77.0405 70.1351C76.1112 70.147 75.1819 70.159 74.2407 70.159C73.9547 70.159 73.8594 70.2424 73.8594 70.5285C73.8713 71.5895 73.8594 72.6506 73.8713 73.7116C73.8713 73.7593 73.8951 73.807 73.8951 73.8308C74.3836 73.8308 74.8483 73.8308 75.301 73.8308C75.5274 73.8308 75.6227 73.9024 75.6108 74.1408C75.5989 74.558 75.6346 74.9753 75.6227 75.3926C75.6108 75.6906 75.7299 75.7741 76.004 75.7502C76.3376 75.7264 76.6831 75.7621 77.0167 75.7383C77.3145 75.7264 77.386 75.8337 77.386 76.1198C77.3741 77.1212 77.386 78.1226 77.386 79.124C77.386 79.5413 77.386 79.5413 77.7911 79.5413C78.1247 79.5413 78.4702 79.5532 78.8038 79.5413C79.054 79.5294 79.1255 79.6247 79.1255 79.8751C79.1136 81.0196 79.1136 82.1879 79.1017 83.3562Z" fill="#204161"/>
<path d="M79.1009 83.3554C79.1128 82.1871 79.1128 81.0187 79.1247 79.8385C79.1247 79.6001 79.0532 79.4928 78.803 79.5047C78.4694 79.5166 78.1239 79.5047 77.7903 79.5047C77.3853 79.5047 77.3853 79.5047 77.3853 79.0874C77.3853 78.086 77.3733 77.0846 77.3853 76.0832C77.3853 75.809 77.3138 75.6898 77.0159 75.7017C76.6823 75.7255 76.3368 75.6898 76.0032 75.7136C75.7292 75.7255 75.61 75.6421 75.6219 75.356C75.6339 74.9387 75.5981 74.5214 75.61 74.1042C75.6219 73.8657 75.5266 73.7823 75.3003 73.7942C74.8356 73.7942 74.371 73.7942 73.8944 73.7942C73.8944 73.7704 73.8706 73.7227 73.8706 73.675C73.8706 72.614 73.8825 71.5529 73.8586 70.4919C73.8586 70.2058 73.954 70.1223 74.2399 70.1223C75.1692 70.1343 76.0985 70.1104 77.0397 70.0985C77.2304 70.0985 77.3138 70.1462 77.3019 70.3489C77.2899 70.778 77.3019 71.2072 77.3019 71.6245C77.3019 72.006 77.3138 72.0179 77.7069 72.0179C78.0286 72.0179 78.3622 72.0417 78.6839 72.0179C78.9818 72.006 79.0652 72.1252 79.0532 72.3994C79.0413 72.7928 79.0771 73.1981 79.0652 73.5915C79.0652 73.83 79.1605 73.9015 79.3868 73.8896C79.7681 73.8777 80.1613 73.8657 80.5425 73.8896C80.8285 73.9015 80.888 73.7823 80.888 73.52C80.8761 71.3026 80.888 69.0971 80.888 66.8797C80.888 62.3971 80.888 57.9026 80.888 53.4201C80.888 52.9552 80.888 52.9552 81.3646 52.9552C82.2343 52.9432 83.1041 52.9432 83.9857 52.9194C84.2598 52.9075 84.3432 53.0028 84.3432 53.277C84.3312 58.153 84.3312 63.029 84.3312 67.893C84.3312 68.5129 84.3432 69.1209 84.3312 69.7409C84.3193 70.0031 84.4266 70.0985 84.6768 70.0866C85.058 70.0747 85.4512 70.0627 85.8324 70.0747C86.1065 70.0866 86.1899 69.9912 86.1899 69.717C86.1779 68.0122 86.1779 66.3074 86.1779 64.5907C86.1779 63.9827 86.1899 63.3747 86.1779 62.7786C86.1779 62.564 86.2613 62.4806 86.4758 62.4806C87.4051 62.4806 88.3344 62.4806 89.2756 62.4686C89.5378 62.4686 89.6331 62.5402 89.6331 62.8263C89.6212 64.8291 89.6212 66.832 89.6212 68.8348C89.6212 69.1567 89.6331 69.4667 89.6212 69.7885C89.6212 69.9912 89.7046 70.0747 89.9071 70.0627C90.2883 70.0508 90.6815 70.0389 91.0628 70.0627C91.3725 70.0866 91.444 69.9435 91.444 69.6574C91.4321 68.0361 91.444 66.4266 91.444 64.8053C91.444 64.3403 91.444 64.3403 91.8968 64.3403C92.7784 64.3403 93.6601 64.3523 94.5417 64.3403C94.8277 64.3403 94.8872 64.4357 94.8872 64.698C94.8753 66.7366 94.8872 68.7633 94.8872 70.8019C94.8872 71.0999 94.9111 71.398 94.9111 71.696C94.9111 71.9106 95.0064 71.9702 95.2089 71.9702C95.6021 71.9583 96.0072 71.9583 96.4003 71.9821C96.6625 71.994 96.722 71.8867 96.722 71.6483C96.722 70.3846 96.722 69.1328 96.722 67.8692C96.722 67.4281 96.722 66.9989 96.722 66.5578C96.722 66.3789 96.7816 66.2717 96.9722 66.2717C97.3654 66.2717 97.7586 66.2597 98.1636 66.2955C98.247 66.2955 98.3781 66.4386 98.39 66.522C98.4258 66.9631 98.4377 67.4161 98.4377 67.8572C98.4377 68.0718 98.5092 68.1672 98.7355 68.1553C99.1049 68.1433 99.4742 68.1672 99.8316 68.1433C100.118 68.1195 100.177 68.2387 100.177 68.501C100.165 71.2311 100.165 73.9611 100.165 76.6912C100.165 78.1456 100.153 79.612 100.165 81.0664C100.165 81.3287 100.106 81.4241 99.8316 81.4002C99.4742 81.3764 99.1168 81.4122 98.7594 81.3883C98.4853 81.3764 98.4258 81.4837 98.4258 81.734C98.4377 83.3911 98.4377 85.0483 98.4377 86.7054C98.4377 87.1346 98.4377 87.1226 98.0088 87.1107C97.6752 87.0988 97.3297 87.1226 96.9961 87.0988C96.6982 87.0749 96.6386 87.2299 96.6386 87.4922C96.6505 88.4936 96.6386 89.495 96.6386 90.4965C96.6386 90.8899 96.6386 90.8899 96.2335 90.8899C91.8372 90.8899 87.4409 90.878 83.0564 90.8899C82.7705 90.8899 82.6513 90.8183 82.6632 90.5084C82.6752 89.495 82.6513 88.4817 82.6752 87.4684C82.6752 87.1584 82.5679 87.063 82.282 87.0749C81.9365 87.0869 81.591 87.063 81.2455 87.0749C80.9833 87.0869 80.8999 87.0034 80.8999 86.7411C80.9119 85.7159 80.8999 84.6906 80.8999 83.6773C80.8999 83.2958 80.888 83.2719 80.4949 83.2719C80.0302 83.3077 79.5656 83.3435 79.1009 83.3554Z" fill="white"/>
</g>
<defs>
<clipPath id="clip0">
<rect x="72" y="51" width="30" height="42" fill="white"/>
</clipPath>
</defs>
</svg>
