<svg width="48" height="48" viewBox="0 0 48 48" fill="none" xmlns="http://www.w3.org/2000/svg">
<g clip-path="url(#clip0)">
<path d="M10.9088 10.3962L5.73434 27.0953L23.4934 40.3018L34.9106 32.788L42.488 19.9665L34.3129 7.69809L24.5586 14.2341L10.9088 10.3962Z" stroke="white" stroke-width="1.05556" stroke-linecap="round" stroke-linejoin="round"/>
<path d="M10.9088 10.3962L19.217 24.4491L5.73434 27.0953" stroke="white" stroke-width="1.05556" stroke-linecap="round" stroke-linejoin="round"/>
<path d="M34.3128 7.69809L30.3863 18.2003L19.2169 24.4491L23.4933 40.3018" stroke="white" stroke-width="1.05556" stroke-linecap="round" stroke-linejoin="round"/>
<path d="M34.9105 32.7881L19.2169 24.4492" stroke="white" stroke-width="1.05556" stroke-linecap="round" stroke-linejoin="round"/>
<path d="M42.4849 19.9665L30.3865 18.2003" stroke="white" stroke-width="1.05556" stroke-linecap="round" stroke-linejoin="round"/>
<path d="M5.7343 29.7935C7.24442 29.7935 8.46861 28.5855 8.46861 27.0954C8.46861 25.6052 7.24442 24.3972 5.7343 24.3972C4.22419 24.3972 3 25.6052 3 27.0954C3 28.5855 4.22419 29.7935 5.7343 29.7935Z" fill="white"/>
<path d="M10.9088 13.0976C12.4189 13.0976 13.6431 11.8896 13.6431 10.3994C13.6431 8.90929 12.4189 7.70129 10.9088 7.70129C9.39872 7.70129 8.17453 8.90929 8.17453 10.3994C8.17453 11.8896 9.39872 13.0976 10.9088 13.0976Z" fill="white"/>
<path d="M19.2168 27.1474C20.727 27.1474 21.9511 25.9394 21.9511 24.4493C21.9511 22.9592 20.727 21.7512 19.2168 21.7512C17.7067 21.7512 16.4825 22.9592 16.4825 24.4493C16.4825 25.9394 17.7067 27.1474 19.2168 27.1474Z" fill="white"/>
<path d="M23.4934 42.9999C25.0035 42.9999 26.2277 41.7919 26.2277 40.3017C26.2277 38.8116 25.0035 37.6036 23.4934 37.6036C21.9833 37.6036 20.7591 38.8116 20.7591 40.3017C20.7591 41.7919 21.9833 42.9999 23.4934 42.9999Z" fill="white"/>
<path d="M34.9104 35.4862C36.4205 35.4862 37.6447 34.2782 37.6447 32.7881C37.6447 31.2979 36.4205 30.0899 34.9104 30.0899C33.4003 30.0899 32.1761 31.2979 32.1761 32.7881C32.1761 34.2782 33.4003 35.4862 34.9104 35.4862Z" fill="white"/>
<path d="M30.3864 20.8985C31.8965 20.8985 33.1207 19.6905 33.1207 18.2003C33.1207 16.7102 31.8965 15.5022 30.3864 15.5022C28.8763 15.5022 27.6521 16.7102 27.6521 18.2003C27.6521 19.6905 28.8763 20.8985 30.3864 20.8985Z" fill="white"/>
<path d="M34.3128 10.3963C35.8229 10.3963 37.0471 9.18827 37.0471 7.69813C37.0471 6.208 35.8229 5 34.3128 5C32.8027 5 31.5785 6.208 31.5785 7.69813C31.5785 9.18827 32.8027 10.3963 34.3128 10.3963Z" fill="white"/>
<path d="M42.4847 22.6647C43.9948 22.6647 45.219 21.4567 45.219 19.9666C45.219 18.4764 43.9948 17.2684 42.4847 17.2684C40.9746 17.2684 39.7504 18.4764 39.7504 19.9666C39.7504 21.4567 40.9746 22.6647 42.4847 22.6647Z" fill="white"/>
</g>
<defs>
<clipPath id="clip0">
<rect x="3" y="5" width="42.2222" height="38" fill="white"/>
</clipPath>
</defs>
</svg>
