<svg width="48" height="48" viewBox="0 0 48 48" fill="none" xmlns="http://www.w3.org/2000/svg">
<circle cx="24" cy="24" r="20" fill="#333333"/>
<path d="M29 20.2719C28.7691 21.6727 28.8394 23.0252 28.5683 24.3777C27.5241 24.3777 26.49 24.3777 25.496 24.3777C25.4458 24.426 25.4357 24.4357 25.4257 24.455C25.4157 24.4647 25.4056 24.484 25.3956 24.4937C25.3855 24.5033 25.3855 24.5226 25.3855 24.542C25.3855 24.5903 25.3755 24.6386 25.3755 24.6869C25.3755 28.0296 25.3655 31.3722 25.3655 34.7149C25.3655 34.7246 25.3554 34.7439 25.3454 34.7535C24.9839 34.8405 22.2229 34.8598 21.249 34.7922C21.1185 34.6473 21.1787 34.4541 21.1787 34.2898C21.1787 31.1887 21.1787 28.0875 21.1787 24.9864C21.1787 24.8125 21.1787 24.6386 21.1787 24.426C20.4357 24.3391 19.7229 24.426 19 24.3681C19 23.0155 19 21.6823 19 20.3202C19.1004 20.3105 19.2108 20.2815 19.3213 20.2815C19.7028 20.2719 20.0944 20.2815 20.4759 20.2815C21.1586 20.2912 21.1888 20.3202 21.1787 19.5859C21.1687 19.0063 21.1687 18.4266 21.1787 17.847C21.2289 16.3495 21.9317 15.2095 23.2771 14.4753C23.7691 14.1951 24.3313 14.0309 24.8936 14.0116C26.1687 13.9923 27.4337 14.0019 28.7088 14.0019C28.759 14.0019 28.7992 14.0212 28.8695 14.0406C28.8695 15.1612 28.8695 16.2722 28.8695 17.4219C28.7289 17.4315 28.5984 17.4509 28.4779 17.4509C27.8454 17.4509 27.2129 17.4412 26.5703 17.4509C25.9478 17.4605 25.5763 17.8083 25.5663 18.417C25.5562 19.0063 25.5663 19.5956 25.5663 20.2042C25.9679 20.3202 26.3293 20.2525 26.6908 20.2622C27.0723 20.2719 27.4639 20.2622 27.8454 20.2622C28.2068 20.2719 28.5683 20.2719 29 20.2719Z" fill="white"/>
</svg>
