<svg width="48" height="48" viewBox="0 0 48 48" fill="none" xmlns="http://www.w3.org/2000/svg">
<circle cx="24" cy="24" r="20" fill="#333333"/>
<path d="M20.5508 33.1672C28.4125 33.1672 32.7125 26.7544 32.7125 21.1934C32.7125 21.0112 32.7125 20.8299 32.7 20.6494C33.5365 20.0537 34.2586 19.316 34.8325 18.4711C34.0524 18.8114 33.2248 19.0346 32.3775 19.1332C33.2698 18.6073 33.9376 17.7801 34.2566 16.8055C33.4176 17.2957 32.4997 17.6412 31.5425 17.827C30.898 17.1523 30.0457 16.7056 29.1174 16.5559C28.189 16.4062 27.2365 16.5619 26.4071 16.9989C25.5777 17.4359 24.9177 18.1299 24.5293 18.9734C24.1409 19.8169 24.0456 20.7629 24.2583 21.6651C22.5589 21.5812 20.8965 21.1465 19.3788 20.389C17.8612 19.6315 16.5223 18.5682 15.4491 17.2683C14.9026 18.1947 14.7351 19.2914 14.981 20.3351C15.2269 21.3788 15.8675 22.291 16.7725 22.886C16.0923 22.8661 15.4269 22.6855 14.8325 22.3592C14.8325 22.3765 14.8325 22.3945 14.8325 22.4126C14.8327 23.3842 15.1744 24.3258 15.7994 25.0777C16.4244 25.8296 17.2943 26.3454 18.2616 26.5378C17.6324 26.7068 16.9721 26.7315 16.3316 26.61C16.6048 27.4462 17.1365 28.1775 17.8525 28.7015C18.5685 29.2255 19.433 29.516 20.325 29.5325C18.8114 30.7037 16.9417 31.3394 15.0166 31.3375C14.6766 31.3369 14.3368 31.3166 13.9991 31.2768C15.9538 32.5118 18.2282 33.1669 20.5508 33.1639" fill="white"/>
</svg>
