<svg width="48" height="48" viewBox="0 0 48 48" fill="none" xmlns="http://www.w3.org/2000/svg">
<circle cx="24" cy="24" r="20" fill="#333333"/>
<path d="M16.652 12H18.092L19.08 15.702L19.996 12H21.45L19.785 17.505V21.262H18.354V17.505L16.652 12V12ZM23.246 14.373C22.127 14.373 21.385 15.113 21.385 16.208V19.557C21.385 20.761 22.014 21.388 23.246 21.388C24.268 21.388 25.072 20.705 25.072 19.557V16.208C25.072 15.139 24.275 14.373 23.246 14.373ZM23.777 19.5C23.777 19.872 23.587 20.146 23.245 20.146C22.894 20.146 22.691 19.859 22.691 19.5V16.321C22.691 15.947 22.863 15.67 23.22 15.67C23.61 15.67 23.777 15.939 23.777 16.321V19.5ZM28.506 14.43V19.616C28.351 19.81 28.006 20.128 27.759 20.128C27.488 20.128 27.421 19.942 27.421 19.668V14.43H26.151V20.14C26.151 20.815 26.357 21.36 27.038 21.36C27.422 21.36 27.956 21.16 28.506 20.507V21.261H29.776V14.43H28.506ZM30.709 28.288C30.261 28.288 30.168 28.603 30.168 29.051V29.71H31.237V29.05C31.238 28.61 31.145 28.288 30.709 28.288ZM26.006 28.328C25.922 28.371 25.839 28.437 25.756 28.526V32.581C25.855 32.687 25.95 32.763 26.043 32.81C26.24 32.91 26.528 32.917 26.662 32.743C26.732 32.651 26.767 32.502 26.767 32.294V28.935C26.767 28.715 26.724 28.549 26.638 28.435C26.491 28.242 26.218 28.221 26.006 28.328ZM30.833 23.133C28.229 22.956 19.767 22.956 17.167 23.133C14.353 23.325 14.021 25.025 14 29.5C14.021 33.967 14.35 35.675 17.167 35.867C19.767 36.044 28.229 36.044 30.833 35.867C33.647 35.675 33.979 33.974 34 29.5C33.979 25.033 33.65 23.325 30.833 23.133ZM18.509 33.819H17.146V26.279H15.736V24.999H19.918V26.279H18.508V33.819H18.509ZM23.355 33.819H22.145V33.101C21.922 33.366 21.69 33.568 21.449 33.706C20.797 34.08 19.902 34.071 19.902 32.751V27.313H21.111V32.301C21.111 32.563 21.174 32.739 21.433 32.739C21.669 32.739 21.997 32.436 22.144 32.252V27.313H23.354V33.819H23.355ZM28.012 32.471C28.012 33.276 27.711 33.902 26.906 33.902C26.463 33.902 26.094 33.74 25.757 33.319V33.819H24.536V24.999H25.757V27.839C26.03 27.506 26.401 27.231 26.833 27.231C27.719 27.231 28.013 27.98 28.013 28.862V32.471H28.012ZM32.483 30.719H30.169V31.947C30.169 32.435 30.211 32.857 30.697 32.857C31.208 32.857 31.238 32.513 31.238 31.947V31.495H32.483V31.984C32.483 33.237 31.945 33.997 30.67 33.997C29.515 33.997 28.924 33.155 28.924 31.984V29.063C28.924 27.934 29.67 27.149 30.761 27.149C31.922 27.149 32.482 27.887 32.482 29.063V30.719H32.483Z" fill="white"/>
</svg>
