<svg width="48" height="48" viewBox="0 0 48 48" fill="none" xmlns="http://www.w3.org/2000/svg">
<circle cx="24" cy="24" r="20" fill="#F3F637"/>
<path d="M23.9972 15.8019C26.6684 15.8019 26.982 15.8139 28.0378 15.8615C29.0142 15.9051 29.542 16.0679 29.8953 16.2068C30.3636 16.3894 30.697 16.6037 31.0463 16.953C31.3956 17.3022 31.6139 17.6356 31.7925 18.104C31.9275 18.4572 32.0942 18.9851 32.1378 19.9615C32.1855 21.0173 32.1974 21.3308 32.1974 24.002C32.1974 26.6732 32.1855 26.9867 32.1378 28.0425C32.0942 29.0189 31.9314 29.5467 31.7925 29.9C31.6099 30.3683 31.3956 30.7017 31.0463 31.051C30.697 31.4003 30.3636 31.6186 29.8953 31.7972C29.542 31.9321 29.0142 32.0988 28.0378 32.1425C26.982 32.1901 26.6684 32.202 23.9972 32.202C21.3261 32.202 21.0125 32.1901 19.9567 32.1425C18.9803 32.0988 18.4524 31.9361 18.0992 31.7972C17.6309 31.6146 17.2974 31.4003 16.9482 31.051C16.5989 30.7017 16.3806 30.3683 16.202 29.9C16.067 29.5467 15.9003 29.0189 15.8567 28.0425C15.809 26.9867 15.7971 26.6732 15.7971 24.002C15.7971 21.3308 15.809 21.0173 15.8567 19.9615C15.9003 18.9851 16.0631 18.4572 16.202 18.104C16.3846 17.6356 16.5989 17.3022 16.9482 16.953C17.2974 16.6037 17.6309 16.3854 18.0992 16.2068C18.4524 16.0718 18.9803 15.9051 19.9567 15.8615C21.0125 15.8099 21.33 15.8019 23.9972 15.8019ZM23.9972 14C21.2824 14 20.9411 14.0119 19.8734 14.0595C18.8097 14.1072 18.0833 14.2778 17.4483 14.5239C16.7894 14.7779 16.2337 15.1232 15.6781 15.6789C15.1224 16.2346 14.7811 16.7942 14.5231 17.4491C14.277 18.0841 14.1063 18.8105 14.0587 19.8782C14.0111 20.9419 13.9991 21.2832 13.9991 23.998C13.9991 26.7128 14.0111 27.0542 14.0587 28.1218C14.1063 29.1856 14.277 29.9119 14.5231 30.5509C14.7771 31.2098 15.1224 31.7654 15.6781 32.3211C16.2337 32.8768 16.7934 33.2181 17.4483 33.4761C18.0833 33.7222 18.8097 33.8928 19.8773 33.9405C20.945 33.9881 21.2824 34 24.0012 34C26.72 34 27.0574 33.9881 28.1251 33.9405C29.1888 33.8928 29.9151 33.7222 30.5542 33.4761C31.213 33.2221 31.7687 32.8768 32.3244 32.3211C32.88 31.7654 33.2214 31.2058 33.4794 30.5509C33.7255 29.9159 33.8961 29.1895 33.9438 28.1218C33.9914 27.0542 34.0033 26.7168 34.0033 23.998C34.0033 21.2792 33.9914 20.9419 33.9438 19.8742C33.8961 18.8105 33.7255 18.0841 33.4794 17.4451C33.2253 16.7863 32.88 16.2306 32.3244 15.6749C31.7687 15.1193 31.2091 14.7779 30.5542 14.5199C29.9191 14.2739 29.1928 14.1032 28.1251 14.0556C27.0534 14.0119 26.7121 14 23.9972 14Z" fill="#333333"/>
<path d="M23.9973 18.8657C21.1634 18.8657 18.8613 21.1638 18.8613 24.0017C18.8613 26.8395 21.1594 29.1376 23.9973 29.1376C26.8352 29.1376 29.1333 26.8395 29.1333 24.0017C29.1333 21.1638 26.8352 18.8657 23.9973 18.8657ZM23.9973 27.3317C22.1557 27.3317 20.6633 25.8393 20.6633 23.9977C20.6633 22.1561 22.1557 20.6637 23.9973 20.6637C25.839 20.6637 27.3313 22.1561 27.3313 23.9977C27.3313 25.8393 25.839 27.3317 23.9973 27.3317Z" fill="#333333"/>
<path d="M29.3373 19.858C29.9993 19.858 30.536 19.3213 30.536 18.6593C30.536 17.9973 29.9993 17.4607 29.3373 17.4607C28.6753 17.4607 28.1387 17.9973 28.1387 18.6593C28.1387 19.3213 28.6753 19.858 29.3373 19.858Z" fill="#333333"/>
</svg>
