<svg width="365" height="146" viewBox="0 0 365 146" fill="none" xmlns="http://www.w3.org/2000/svg">
<path d="M107.791 138.768C107.855 138.907 107.887 139.045 107.887 139.184C107.887 139.429 107.786 139.637 107.583 139.808C107.391 139.979 107.167 140.064 106.911 140.064C106.741 140.064 106.581 140.021 106.431 139.936C106.282 139.84 106.165 139.696 106.079 139.504L105.119 137.36H99.4872L98.5272 139.504C98.4419 139.696 98.3246 139.84 98.1752 139.936C98.0259 140.021 97.8606 140.064 97.6792 140.064C97.4339 140.064 97.2099 139.979 97.0072 139.808C96.8046 139.637 96.7032 139.429 96.7032 139.184C96.7032 139.045 96.7352 138.907 96.7992 138.768L101.215 129.28C101.311 129.067 101.455 128.907 101.647 128.8C101.85 128.683 102.063 128.624 102.287 128.624C102.511 128.624 102.719 128.683 102.911 128.8C103.114 128.907 103.263 129.067 103.359 129.28L107.791 138.768ZM100.191 135.76H104.415L102.303 131.008L100.191 135.76ZM112.898 140.128C112.12 140.128 111.432 139.963 110.834 139.632C110.248 139.301 109.794 138.832 109.474 138.224C109.154 137.616 108.994 136.907 108.994 136.096C108.994 135.285 109.16 134.571 109.49 133.952C109.832 133.323 110.306 132.837 110.914 132.496C111.522 132.155 112.221 131.984 113.01 131.984C113.426 131.984 113.842 132.043 114.258 132.16C114.685 132.277 115.058 132.437 115.378 132.64C115.72 132.864 115.89 133.147 115.89 133.488C115.89 133.723 115.832 133.915 115.714 134.064C115.608 134.203 115.464 134.272 115.282 134.272C115.165 134.272 115.042 134.245 114.914 134.192C114.786 134.139 114.658 134.075 114.53 134C114.296 133.861 114.072 133.755 113.858 133.68C113.645 133.595 113.4 133.552 113.122 133.552C112.461 133.552 111.949 133.771 111.586 134.208C111.234 134.635 111.058 135.253 111.058 136.064C111.058 136.864 111.234 137.483 111.586 137.92C111.949 138.347 112.461 138.56 113.122 138.56C113.389 138.56 113.624 138.523 113.826 138.448C114.04 138.363 114.274 138.251 114.53 138.112C114.69 138.016 114.829 137.947 114.946 137.904C115.064 137.851 115.181 137.824 115.298 137.824C115.469 137.824 115.613 137.899 115.73 138.048C115.848 138.197 115.906 138.384 115.906 138.608C115.906 138.789 115.864 138.949 115.778 139.088C115.704 139.216 115.576 139.333 115.394 139.44C115.064 139.653 114.68 139.824 114.242 139.952C113.805 140.069 113.357 140.128 112.898 140.128ZM120.871 140.128C120.092 140.128 119.404 139.963 118.807 139.632C118.22 139.301 117.767 138.832 117.447 138.224C117.127 137.616 116.967 136.907 116.967 136.096C116.967 135.285 117.132 134.571 117.463 133.952C117.804 133.323 118.279 132.837 118.887 132.496C119.495 132.155 120.193 131.984 120.983 131.984C121.399 131.984 121.815 132.043 122.231 132.16C122.657 132.277 123.031 132.437 123.351 132.64C123.692 132.864 123.863 133.147 123.863 133.488C123.863 133.723 123.804 133.915 123.687 134.064C123.58 134.203 123.436 134.272 123.255 134.272C123.137 134.272 123.015 134.245 122.887 134.192C122.759 134.139 122.631 134.075 122.503 134C122.268 133.861 122.044 133.755 121.831 133.68C121.617 133.595 121.372 133.552 121.095 133.552C120.433 133.552 119.921 133.771 119.559 134.208C119.207 134.635 119.031 135.253 119.031 136.064C119.031 136.864 119.207 137.483 119.559 137.92C119.921 138.347 120.433 138.56 121.095 138.56C121.361 138.56 121.596 138.523 121.799 138.448C122.012 138.363 122.247 138.251 122.503 138.112C122.663 138.016 122.801 137.947 122.919 137.904C123.036 137.851 123.153 137.824 123.271 137.824C123.441 137.824 123.585 137.899 123.703 138.048C123.82 138.197 123.879 138.384 123.879 138.608C123.879 138.789 123.836 138.949 123.751 139.088C123.676 139.216 123.548 139.333 123.367 139.44C123.036 139.653 122.652 139.824 122.215 139.952C121.777 140.069 121.329 140.128 120.871 140.128ZM131.563 137.856C131.745 137.856 131.889 137.925 131.995 138.064C132.113 138.203 132.171 138.389 132.171 138.624C132.171 138.955 131.974 139.232 131.579 139.456C131.217 139.659 130.806 139.824 130.347 139.952C129.889 140.069 129.451 140.128 129.035 140.128C127.777 140.128 126.779 139.765 126.043 139.04C125.307 138.315 124.939 137.323 124.939 136.064C124.939 135.264 125.099 134.555 125.419 133.936C125.739 133.317 126.187 132.837 126.763 132.496C127.35 132.155 128.011 131.984 128.747 131.984C129.451 131.984 130.065 132.139 130.587 132.448C131.11 132.757 131.515 133.195 131.803 133.76C132.091 134.325 132.235 134.992 132.235 135.76C132.235 136.219 132.033 136.448 131.627 136.448H126.907C126.971 137.184 127.179 137.728 127.531 138.08C127.883 138.421 128.395 138.592 129.067 138.592C129.409 138.592 129.707 138.549 129.963 138.464C130.23 138.379 130.529 138.261 130.859 138.112C131.179 137.941 131.414 137.856 131.563 137.856ZM128.795 133.392C128.251 133.392 127.814 133.563 127.483 133.904C127.163 134.245 126.971 134.736 126.907 135.376H130.523C130.502 134.725 130.342 134.235 130.043 133.904C129.745 133.563 129.329 133.392 128.795 133.392ZM140.559 128.64C140.858 128.64 141.103 128.725 141.295 128.896C141.487 129.067 141.583 129.291 141.583 129.568V139.136C141.583 139.424 141.493 139.653 141.311 139.824C141.13 139.995 140.89 140.08 140.591 140.08C140.293 140.08 140.053 139.995 139.871 139.824C139.69 139.653 139.599 139.424 139.599 139.136V138.736C139.365 139.173 139.023 139.515 138.575 139.76C138.138 140.005 137.637 140.128 137.071 140.128C136.399 140.128 135.797 139.957 135.263 139.616C134.741 139.275 134.33 138.795 134.031 138.176C133.743 137.547 133.599 136.827 133.599 136.016C133.599 135.205 133.743 134.496 134.031 133.888C134.33 133.28 134.741 132.811 135.263 132.48C135.786 132.149 136.389 131.984 137.071 131.984C137.637 131.984 138.138 132.101 138.575 132.336C139.013 132.571 139.349 132.901 139.583 133.328V129.536C139.583 129.269 139.669 129.056 139.839 128.896C140.021 128.725 140.261 128.64 140.559 128.64ZM137.599 138.576C138.239 138.576 138.73 138.357 139.071 137.92C139.423 137.483 139.599 136.859 139.599 136.048C139.599 135.237 139.423 134.619 139.071 134.192C138.73 133.755 138.245 133.536 137.615 133.536C136.975 133.536 136.479 133.749 136.127 134.176C135.775 134.603 135.599 135.216 135.599 136.016C135.599 136.827 135.775 137.456 136.127 137.904C136.479 138.352 136.97 138.576 137.599 138.576ZM149.993 137.856C150.174 137.856 150.318 137.925 150.425 138.064C150.542 138.203 150.601 138.389 150.601 138.624C150.601 138.955 150.403 139.232 150.009 139.456C149.646 139.659 149.235 139.824 148.777 139.952C148.318 140.069 147.881 140.128 147.465 140.128C146.206 140.128 145.209 139.765 144.473 139.04C143.737 138.315 143.369 137.323 143.369 136.064C143.369 135.264 143.529 134.555 143.849 133.936C144.169 133.317 144.617 132.837 145.193 132.496C145.779 132.155 146.441 131.984 147.177 131.984C147.881 131.984 148.494 132.139 149.017 132.448C149.539 132.757 149.945 133.195 150.233 133.76C150.521 134.325 150.665 134.992 150.665 135.76C150.665 136.219 150.462 136.448 150.057 136.448H145.337C145.401 137.184 145.609 137.728 145.961 138.08C146.313 138.421 146.825 138.592 147.497 138.592C147.838 138.592 148.137 138.549 148.393 138.464C148.659 138.379 148.958 138.261 149.289 138.112C149.609 137.941 149.843 137.856 149.993 137.856ZM147.225 133.392C146.681 133.392 146.243 133.563 145.913 133.904C145.593 134.245 145.401 134.736 145.337 135.376H148.953C148.931 134.725 148.771 134.235 148.473 133.904C148.174 133.563 147.758 133.392 147.225 133.392ZM160.356 131.984C161.444 131.984 162.25 132.256 162.772 132.8C163.306 133.333 163.572 134.149 163.572 135.248V139.152C163.572 139.44 163.487 139.669 163.316 139.84C163.146 140 162.911 140.08 162.612 140.08C162.335 140.08 162.106 139.995 161.924 139.824C161.754 139.653 161.668 139.429 161.668 139.152V138.8C161.487 139.216 161.199 139.541 160.804 139.776C160.42 140.011 159.972 140.128 159.46 140.128C158.938 140.128 158.463 140.021 158.036 139.808C157.61 139.595 157.274 139.301 157.028 138.928C156.783 138.555 156.66 138.139 156.66 137.68C156.66 137.104 156.804 136.651 157.092 136.32C157.391 135.989 157.871 135.749 158.532 135.6C159.194 135.451 160.106 135.376 161.268 135.376H161.668V135.008C161.668 134.485 161.556 134.107 161.332 133.872C161.108 133.627 160.746 133.504 160.244 133.504C159.935 133.504 159.62 133.552 159.3 133.648C158.98 133.733 158.602 133.861 158.164 134.032C157.887 134.171 157.684 134.24 157.556 134.24C157.364 134.24 157.204 134.171 157.076 134.032C156.959 133.893 156.9 133.712 156.9 133.488C156.9 133.307 156.943 133.152 157.028 133.024C157.124 132.885 157.279 132.757 157.492 132.64C157.866 132.437 158.308 132.277 158.82 132.16C159.343 132.043 159.855 131.984 160.356 131.984ZM159.86 138.688C160.394 138.688 160.826 138.512 161.156 138.16C161.498 137.797 161.668 137.333 161.668 136.768V136.432H161.38C160.666 136.432 160.111 136.464 159.716 136.528C159.322 136.592 159.039 136.704 158.868 136.864C158.698 137.024 158.612 137.243 158.612 137.52C158.612 137.861 158.73 138.144 158.964 138.368C159.21 138.581 159.508 138.688 159.86 138.688ZM171.261 140.096C170.973 140.096 170.733 140.016 170.541 139.856C170.359 139.685 170.269 139.445 170.269 139.136V129.584C170.269 129.275 170.359 129.04 170.541 128.88C170.733 128.72 170.973 128.64 171.261 128.64C171.549 128.64 171.789 128.72 171.981 128.88C172.173 129.04 172.269 129.275 172.269 129.584V139.136C172.269 139.445 172.173 139.685 171.981 139.856C171.789 140.016 171.549 140.096 171.261 140.096ZM177.883 131.984C178.971 131.984 179.777 132.256 180.299 132.8C180.833 133.333 181.099 134.149 181.099 135.248V139.152C181.099 139.44 181.014 139.669 180.843 139.84C180.673 140 180.438 140.08 180.139 140.08C179.862 140.08 179.633 139.995 179.451 139.824C179.281 139.653 179.195 139.429 179.195 139.152V138.8C179.014 139.216 178.726 139.541 178.331 139.776C177.947 140.011 177.499 140.128 176.987 140.128C176.465 140.128 175.99 140.021 175.563 139.808C175.137 139.595 174.801 139.301 174.555 138.928C174.31 138.555 174.187 138.139 174.187 137.68C174.187 137.104 174.331 136.651 174.619 136.32C174.918 135.989 175.398 135.749 176.059 135.6C176.721 135.451 177.633 135.376 178.795 135.376H179.195V135.008C179.195 134.485 179.083 134.107 178.859 133.872C178.635 133.627 178.273 133.504 177.771 133.504C177.462 133.504 177.147 133.552 176.827 133.648C176.507 133.733 176.129 133.861 175.691 134.032C175.414 134.171 175.211 134.24 175.083 134.24C174.891 134.24 174.731 134.171 174.603 134.032C174.486 133.893 174.427 133.712 174.427 133.488C174.427 133.307 174.47 133.152 174.555 133.024C174.651 132.885 174.806 132.757 175.019 132.64C175.393 132.437 175.835 132.277 176.347 132.16C176.87 132.043 177.382 131.984 177.883 131.984ZM177.387 138.688C177.921 138.688 178.353 138.512 178.683 138.16C179.025 137.797 179.195 137.333 179.195 136.768V136.432H178.907C178.193 136.432 177.638 136.464 177.243 136.528C176.849 136.592 176.566 136.704 176.395 136.864C176.225 137.024 176.139 137.243 176.139 137.52C176.139 137.861 176.257 138.144 176.491 138.368C176.737 138.581 177.035 138.688 177.387 138.688ZM192.292 131.984C192.964 131.984 193.561 132.155 194.084 132.496C194.617 132.837 195.028 133.323 195.316 133.952C195.614 134.571 195.764 135.285 195.764 136.096C195.764 136.907 195.614 137.616 195.316 138.224C195.028 138.832 194.622 139.301 194.1 139.632C193.577 139.963 192.974 140.128 192.292 140.128C191.737 140.128 191.241 140.011 190.804 139.776C190.366 139.541 190.03 139.216 189.796 138.8V142.064C189.796 142.341 189.705 142.56 189.524 142.72C189.342 142.88 189.102 142.96 188.804 142.96C188.505 142.96 188.26 142.875 188.068 142.704C187.886 142.533 187.796 142.309 187.796 142.032V132.96C187.796 132.672 187.881 132.443 188.052 132.272C188.233 132.101 188.473 132.016 188.772 132.016C189.07 132.016 189.31 132.101 189.492 132.272C189.673 132.443 189.764 132.672 189.764 132.96V133.36C189.998 132.923 190.334 132.587 190.772 132.352C191.22 132.107 191.726 131.984 192.292 131.984ZM191.764 138.576C192.393 138.576 192.884 138.363 193.236 137.936C193.588 137.499 193.764 136.885 193.764 136.096C193.764 135.285 193.588 134.656 193.236 134.208C192.884 133.76 192.393 133.536 191.764 133.536C191.124 133.536 190.628 133.755 190.276 134.192C189.934 134.629 189.764 135.253 189.764 136.064C189.764 136.864 189.934 137.483 190.276 137.92C190.628 138.357 191.124 138.576 191.764 138.576ZM198.557 140.096C198.269 140.096 198.029 140.016 197.837 139.856C197.656 139.685 197.565 139.445 197.565 139.136V129.584C197.565 129.275 197.656 129.04 197.837 128.88C198.029 128.72 198.269 128.64 198.557 128.64C198.845 128.64 199.085 128.72 199.277 128.88C199.469 129.04 199.565 129.275 199.565 129.584V139.136C199.565 139.445 199.469 139.685 199.277 139.856C199.085 140.016 198.845 140.096 198.557 140.096ZM205.179 131.984C206.267 131.984 207.073 132.256 207.595 132.8C208.129 133.333 208.395 134.149 208.395 135.248V139.152C208.395 139.44 208.31 139.669 208.139 139.84C207.969 140 207.734 140.08 207.435 140.08C207.158 140.08 206.929 139.995 206.747 139.824C206.577 139.653 206.491 139.429 206.491 139.152V138.8C206.31 139.216 206.022 139.541 205.627 139.776C205.243 140.011 204.795 140.128 204.283 140.128C203.761 140.128 203.286 140.021 202.859 139.808C202.433 139.595 202.097 139.301 201.851 138.928C201.606 138.555 201.483 138.139 201.483 137.68C201.483 137.104 201.627 136.651 201.915 136.32C202.214 135.989 202.694 135.749 203.355 135.6C204.017 135.451 204.929 135.376 206.091 135.376H206.491V135.008C206.491 134.485 206.379 134.107 206.155 133.872C205.931 133.627 205.569 133.504 205.067 133.504C204.758 133.504 204.443 133.552 204.123 133.648C203.803 133.733 203.425 133.861 202.987 134.032C202.71 134.171 202.507 134.24 202.379 134.24C202.187 134.24 202.027 134.171 201.899 134.032C201.782 133.893 201.723 133.712 201.723 133.488C201.723 133.307 201.766 133.152 201.851 133.024C201.947 132.885 202.102 132.757 202.315 132.64C202.689 132.437 203.131 132.277 203.643 132.16C204.166 132.043 204.678 131.984 205.179 131.984ZM204.683 138.688C205.217 138.688 205.649 138.512 205.979 138.16C206.321 137.797 206.491 137.333 206.491 136.768V136.432H206.203C205.489 136.432 204.934 136.464 204.539 136.528C204.145 136.592 203.862 136.704 203.691 136.864C203.521 137.024 203.435 137.243 203.435 137.52C203.435 137.861 203.553 138.144 203.787 138.368C204.033 138.581 204.331 138.688 204.683 138.688ZM214.652 138.608C215.185 138.64 215.452 138.88 215.452 139.328C215.452 139.584 215.345 139.781 215.132 139.92C214.929 140.048 214.636 140.101 214.252 140.08L213.82 140.048C212.028 139.92 211.132 138.96 211.132 137.168V133.68H210.332C210.044 133.68 209.82 133.616 209.66 133.488C209.511 133.36 209.436 133.173 209.436 132.928C209.436 132.683 209.511 132.496 209.66 132.368C209.82 132.24 210.044 132.176 210.332 132.176H211.132V130.704C211.132 130.416 211.223 130.187 211.404 130.016C211.585 129.845 211.831 129.76 212.14 129.76C212.439 129.76 212.679 129.845 212.86 130.016C213.041 130.187 213.132 130.416 213.132 130.704V132.176H214.492C214.78 132.176 214.999 132.24 215.148 132.368C215.308 132.496 215.388 132.683 215.388 132.928C215.388 133.173 215.308 133.36 215.148 133.488C214.999 133.616 214.78 133.68 214.492 133.68H213.132V137.312C213.132 138.101 213.495 138.523 214.22 138.576L214.652 138.608ZM220.046 131.984C221.134 131.984 221.94 132.256 222.462 132.8C222.996 133.333 223.262 134.149 223.262 135.248V139.152C223.262 139.44 223.177 139.669 223.006 139.84C222.836 140 222.601 140.08 222.302 140.08C222.025 140.08 221.796 139.995 221.614 139.824C221.444 139.653 221.358 139.429 221.358 139.152V138.8C221.177 139.216 220.889 139.541 220.494 139.776C220.11 140.011 219.662 140.128 219.15 140.128C218.628 140.128 218.153 140.021 217.726 139.808C217.3 139.595 216.964 139.301 216.718 138.928C216.473 138.555 216.35 138.139 216.35 137.68C216.35 137.104 216.494 136.651 216.782 136.32C217.081 135.989 217.561 135.749 218.222 135.6C218.884 135.451 219.796 135.376 220.958 135.376H221.358V135.008C221.358 134.485 221.246 134.107 221.022 133.872C220.798 133.627 220.436 133.504 219.934 133.504C219.625 133.504 219.31 133.552 218.99 133.648C218.67 133.733 218.292 133.861 217.854 134.032C217.577 134.171 217.374 134.24 217.246 134.24C217.054 134.24 216.894 134.171 216.766 134.032C216.649 133.893 216.59 133.712 216.59 133.488C216.59 133.307 216.633 133.152 216.718 133.024C216.814 132.885 216.969 132.757 217.182 132.64C217.556 132.437 217.998 132.277 218.51 132.16C219.033 132.043 219.545 131.984 220.046 131.984ZM219.55 138.688C220.084 138.688 220.516 138.512 220.846 138.16C221.188 137.797 221.358 137.333 221.358 136.768V136.432H221.07C220.356 136.432 219.801 136.464 219.406 136.528C219.012 136.592 218.729 136.704 218.558 136.864C218.388 137.024 218.302 137.243 218.302 137.52C218.302 137.861 218.42 138.144 218.654 138.368C218.9 138.581 219.198 138.688 219.55 138.688ZM229.407 130.208C228.916 130.24 228.559 130.389 228.335 130.656C228.111 130.923 227.999 131.307 227.999 131.808V132.176H229.359C229.956 132.176 230.255 132.427 230.255 132.928C230.255 133.429 229.956 133.68 229.359 133.68H227.999V139.136C227.999 139.445 227.903 139.68 227.711 139.84C227.53 140 227.295 140.08 227.007 140.08C226.719 140.08 226.479 140 226.287 139.84C226.095 139.68 225.999 139.445 225.999 139.136V133.68H225.199C224.602 133.68 224.303 133.429 224.303 132.928C224.303 132.427 224.602 132.176 225.199 132.176H225.999V132.064C225.999 131.061 226.26 130.277 226.783 129.712C227.316 129.136 228.063 128.811 229.023 128.736L229.439 128.704C229.866 128.672 230.164 128.72 230.335 128.848C230.516 128.965 230.607 129.152 230.607 129.408C230.607 129.867 230.346 130.123 229.823 130.176L229.407 130.208ZM234.839 140.128C234.039 140.128 233.335 139.963 232.727 139.632C232.13 139.301 231.666 138.827 231.335 138.208C231.005 137.589 230.839 136.869 230.839 136.048C230.839 135.227 231.005 134.512 231.335 133.904C231.666 133.285 232.13 132.811 232.727 132.48C233.335 132.149 234.039 131.984 234.839 131.984C235.639 131.984 236.338 132.149 236.935 132.48C237.543 132.811 238.007 133.285 238.327 133.904C238.658 134.512 238.823 135.227 238.823 136.048C238.823 136.869 238.658 137.589 238.327 138.208C238.007 138.827 237.543 139.301 236.935 139.632C236.338 139.963 235.639 140.128 234.839 140.128ZM234.823 138.576C235.474 138.576 235.97 138.363 236.311 137.936C236.653 137.509 236.823 136.88 236.823 136.048C236.823 135.227 236.653 134.603 236.311 134.176C235.97 133.739 235.479 133.52 234.839 133.52C234.199 133.52 233.703 133.739 233.351 134.176C233.01 134.603 232.839 135.227 232.839 136.048C232.839 136.88 233.01 137.509 233.351 137.936C233.693 138.363 234.183 138.576 234.823 138.576ZM245.002 132.016C245.28 131.995 245.498 132.053 245.658 132.192C245.818 132.331 245.898 132.539 245.898 132.816C245.898 133.104 245.829 133.317 245.69 133.456C245.552 133.595 245.301 133.685 244.938 133.728L244.458 133.776C243.829 133.84 243.365 134.053 243.066 134.416C242.778 134.779 242.634 135.232 242.634 135.776V139.136C242.634 139.445 242.538 139.685 242.346 139.856C242.154 140.016 241.914 140.096 241.626 140.096C241.338 140.096 241.098 140.016 240.906 139.856C240.725 139.685 240.634 139.445 240.634 139.136V132.944C240.634 132.645 240.725 132.416 240.906 132.256C241.098 132.096 241.333 132.016 241.61 132.016C241.888 132.016 242.112 132.096 242.282 132.256C242.453 132.405 242.538 132.624 242.538 132.912V133.552C242.741 133.083 243.04 132.72 243.434 132.464C243.84 132.208 244.288 132.064 244.778 132.032L245.002 132.016ZM256.215 131.984C257.069 131.984 257.719 132.24 258.167 132.752C258.626 133.253 258.855 134.069 258.855 135.2V139.136C258.855 139.445 258.759 139.685 258.567 139.856C258.386 140.016 258.146 140.096 257.847 140.096C257.559 140.096 257.319 140.016 257.127 139.856C256.946 139.685 256.855 139.445 256.855 139.136V135.2C256.855 134.613 256.749 134.197 256.535 133.952C256.333 133.696 256.018 133.568 255.591 133.568C255.069 133.568 254.653 133.749 254.343 134.112C254.034 134.464 253.879 134.949 253.879 135.568V139.136C253.879 139.445 253.783 139.685 253.591 139.856C253.41 140.016 253.175 140.096 252.887 140.096C252.599 140.096 252.359 140.016 252.167 139.856C251.975 139.685 251.879 139.445 251.879 139.136V135.2C251.879 134.613 251.773 134.197 251.559 133.952C251.357 133.696 251.042 133.568 250.615 133.568C250.093 133.568 249.677 133.749 249.367 134.112C249.069 134.464 248.919 134.949 248.919 135.568V139.136C248.919 139.445 248.823 139.685 248.631 139.856C248.439 140.016 248.199 140.096 247.911 140.096C247.623 140.096 247.383 140.016 247.191 139.856C247.01 139.685 246.919 139.445 246.919 139.136V132.944C246.919 132.645 247.015 132.416 247.207 132.256C247.399 132.096 247.639 132.016 247.927 132.016C248.205 132.016 248.429 132.096 248.599 132.256C248.781 132.405 248.871 132.624 248.871 132.912V133.296C249.117 132.869 249.442 132.544 249.847 132.32C250.263 132.096 250.738 131.984 251.271 131.984C252.445 131.984 253.229 132.475 253.623 133.456C253.858 133.008 254.205 132.651 254.663 132.384C255.122 132.117 255.639 131.984 256.215 131.984ZM264.44 131.984C265.528 131.984 266.333 132.256 266.856 132.8C267.389 133.333 267.656 134.149 267.656 135.248V139.152C267.656 139.44 267.571 139.669 267.4 139.84C267.229 140 266.995 140.08 266.696 140.08C266.419 140.08 266.189 139.995 266.008 139.824C265.837 139.653 265.752 139.429 265.752 139.152V138.8C265.571 139.216 265.283 139.541 264.888 139.776C264.504 140.011 264.056 140.128 263.544 140.128C263.021 140.128 262.547 140.021 262.12 139.808C261.693 139.595 261.357 139.301 261.112 138.928C260.867 138.555 260.744 138.139 260.744 137.68C260.744 137.104 260.888 136.651 261.176 136.32C261.475 135.989 261.955 135.749 262.616 135.6C263.277 135.451 264.189 135.376 265.352 135.376H265.752V135.008C265.752 134.485 265.64 134.107 265.416 133.872C265.192 133.627 264.829 133.504 264.328 133.504C264.019 133.504 263.704 133.552 263.384 133.648C263.064 133.733 262.685 133.861 262.248 134.032C261.971 134.171 261.768 134.24 261.64 134.24C261.448 134.24 261.288 134.171 261.16 134.032C261.043 133.893 260.984 133.712 260.984 133.488C260.984 133.307 261.027 133.152 261.112 133.024C261.208 132.885 261.363 132.757 261.576 132.64C261.949 132.437 262.392 132.277 262.904 132.16C263.427 132.043 263.939 131.984 264.44 131.984ZM263.944 138.688C264.477 138.688 264.909 138.512 265.24 138.16C265.581 137.797 265.752 137.333 265.752 136.768V136.432H265.464C264.749 136.432 264.195 136.464 263.8 136.528C263.405 136.592 263.123 136.704 262.952 136.864C262.781 137.024 262.696 137.243 262.696 137.52C262.696 137.861 262.813 138.144 263.048 138.368C263.293 138.581 263.592 138.688 263.944 138.688Z" fill="#204161"/>
<path d="M117.716 6.00001C117.716 2.6863 120.402 0 123.716 0H238.284C241.598 0 244.284 2.68629 244.284 6V76.8451H117.716V6.00001Z" fill="white"/>
<path d="M117.965 76.8451H244.035L269 91.7183H93L117.965 76.8451Z" fill="#D6CFB7"/>
<path d="M93 94.3944C93 97.7081 95.6863 100.394 99 100.394H263C266.314 100.394 269 97.7081 269 94.3944V91.7184H93V94.3944Z" fill="#EAE5D4"/>
<rect x="164.596" y="52.8583" width="35.2875" height="9.0406" rx="4.5203" fill="#F44B53"/>
<rect x="126.757" y="6.7804" width="10.1707" height="10.1707" rx="5.08534" fill="#F1EAE1"/>
<line x1="221.053" y1="9.67053" x2="229.094" y2="9.67053" stroke="#DBD1C4" stroke-linecap="round" stroke-linejoin="bevel"/>
<line x1="221.053" y1="11.9305" x2="229.093" y2="11.9305" stroke="#DBD1C4" stroke-linecap="round" stroke-linejoin="bevel"/>
<line x1="221.053" y1="14.1907" x2="229.093" y2="14.1907" stroke="#DBD1C4" stroke-linecap="round" stroke-linejoin="bevel"/>
<g clip-path="url(#clip0)">
<path d="M173.576 25.2165L181.825 27.5058L188.895 22.9271" stroke="#204161" stroke-width="0.5"/>
<line y1="-0.25" x2="10.889" y2="-0.25" transform="matrix(-0.54107 0.840978 -0.854787 -0.518978 195.376 30.3674)" stroke="#204161" stroke-width="0.5"/>
<line y1="-0.25" x2="10.6859" y2="-0.25" transform="matrix(-0.661622 -0.749838 0.768478 -0.639876 195.376 30.3674)" stroke="#204161" stroke-width="0.5"/>
<line y1="-0.25" x2="11.3291" y2="-0.25" transform="matrix(0.416041 -0.909346 0.918086 0.39638 169.452 36.0908)" stroke="#204161" stroke-width="0.5"/>
<line y1="-0.25" x2="15.2384" y2="-0.25" transform="matrix(0.850595 0.525822 -0.547972 0.836496 169.452 36.0908)" stroke="#204161" stroke-width="0.5"/>
<line y1="-0.25" x2="10.0395" y2="-0.25" transform="matrix(-0.821588 0.570082 -0.59239 -0.805651 190.662 38.3801)" stroke="#204161" stroke-width="0.5"/>
<line y1="-0.25" x2="13.0998" y2="-0.25" transform="matrix(-0.899508 -0.436904 0.457643 -0.889136 190.662 38.3801)" stroke="#204161" stroke-width="0.5"/>
<line y1="-0.25" x2="9.70071" y2="-0.25" transform="matrix(0.971754 -0.235998 0.249232 0.968444 170.631 36.0908)" stroke="#204161" stroke-width="0.5"/>
<line y1="-0.25" x2="11.9801" y2="-0.25" transform="matrix(-0.295073 -0.955475 0.960061 -0.279789 182.414 44.1035)" stroke="#204161" stroke-width="0.5"/>
<line y1="-0.25" x2="9.94562" y2="-0.25" transform="matrix(0.59239 0.805651 -0.821588 0.570082 172.987 24.644)" stroke="#204161" stroke-width="0.5"/>
<line y1="-0.25" x2="8.93465" y2="-0.25" transform="matrix(-0.923188 0.384348 -0.40364 -0.914918 187.127 29.2228)" stroke="#204161" stroke-width="0.5"/>
<line y1="-0.25" x2="7.72438" y2="-0.25" transform="matrix(0.457643 -0.889136 0.899508 0.436904 185.949 30.3674)" stroke="#204161" stroke-width="0.5"/>
<line y1="-0.25" x2="9.49594" y2="-0.25" transform="matrix(0.992708 0.120543 -0.127624 0.991823 185.949 30.3674)" stroke="#204161" stroke-width="0.5"/>
<ellipse cx="186.538" cy="29.7951" rx="1.76751" ry="1.71701" fill="#3D7DD8"/>
<ellipse cx="188.895" cy="22.9271" rx="1.76751" ry="1.71701" fill="#E5384C"/>
<ellipse cx="190.073" cy="38.9525" rx="1.76751" ry="1.71701" fill="#E5384C"/>
<ellipse cx="179.468" cy="33.2291" rx="1.76751" ry="1.71701" fill="#E5384C"/>
<ellipse cx="170.041" cy="35.5185" rx="1.76751" ry="1.71701" fill="#3D7DD8"/>
<ellipse cx="173.576" cy="25.2164" rx="1.76751" ry="1.71701" fill="#3F8C60"/>
<ellipse cx="181.825" cy="43.5312" rx="1.76751" ry="1.71701" fill="#3D7DD8"/>
<ellipse cx="194.787" cy="30.9398" rx="1.76751" ry="1.71701" fill="#3F8C60"/>
</g>
<defs>
<clipPath id="clip0">
<rect x="168.274" y="21.2101" width="28.2801" height="24.0381" fill="white"/>
</clipPath>
</defs>
</svg>
