<svg width="40" height="40" viewBox="0 0 40 40" fill="none" xmlns="http://www.w3.org/2000/svg">
<path d="M19.9193 16.2689C26.1589 16.2689 32.3606 16.2689 38.6287 16.2689C38.7233 16.9159 38.8464 17.5629 38.9032 18.2195C39.263 22.5201 38.6855 26.6686 36.6308 30.503C34.0081 35.3936 29.9083 38.3241 24.5398 39.4849C20.7525 40.3032 16.9841 40.1795 13.3198 38.8284C7.38321 36.6495 3.32131 32.5487 1.15306 26.5924C0.139955 23.8141 -0.219841 20.9216 0.130487 17.9911C0.963698 10.9978 4.47644 5.75513 10.6119 2.33934C13.7554 0.588622 17.1735 -0.124984 20.7525 0.0177369C25.373 0.208032 29.4349 1.83505 32.9003 4.92735C32.995 5.01298 33.1086 5.07007 33.1844 5.11764C31.2718 7.03962 29.4255 8.895 27.6454 10.6838C26.6607 10.0653 25.6949 9.29462 24.5966 8.81888C20.3832 7.02059 16.3876 7.55342 12.7517 10.3222C9.99647 12.425 8.42473 15.2984 8.08387 18.7523C7.42109 25.5363 12.2689 31.0929 18.0729 31.9778C21.2922 32.4725 24.322 31.9112 27.0205 29.9987C28.9236 28.6476 30.0977 26.7732 30.6374 24.4992C30.6658 24.366 30.6658 24.2233 30.6942 24.0425C28.8668 24.0425 27.0678 24.0425 25.2689 24.0425C23.4888 24.0425 21.7088 24.0425 19.9098 24.0425C19.9193 21.4259 19.9193 18.876 19.9193 16.2689Z" fill="black"/>
</svg>
