<svg width="365" height="151" viewBox="0 0 365 151" fill="none" xmlns="http://www.w3.org/2000/svg">
<path d="M70.5478 143.768C70.6118 143.907 70.6438 144.045 70.6438 144.184C70.6438 144.429 70.5425 144.637 70.3398 144.808C70.1478 144.979 69.9238 145.064 69.6678 145.064C69.4971 145.064 69.3371 145.021 69.1878 144.936C69.0385 144.84 68.9211 144.696 68.8358 144.504L67.8758 142.36H62.2438L61.2838 144.504C61.1985 144.696 61.0811 144.84 60.9318 144.936C60.7825 145.021 60.6171 145.064 60.4358 145.064C60.1905 145.064 59.9665 144.979 59.7638 144.808C59.5611 144.637 59.4598 144.429 59.4598 144.184C59.4598 144.045 59.4918 143.907 59.5558 143.768L63.9718 134.28C64.0678 134.067 64.2118 133.907 64.4038 133.8C64.6065 133.683 64.8198 133.624 65.0438 133.624C65.2678 133.624 65.4758 133.683 65.6678 133.8C65.8705 133.907 66.0198 134.067 66.1158 134.28L70.5478 143.768ZM62.9478 140.76H67.1718L65.0598 136.008L62.9478 140.76ZM77.2013 137.592C77.2866 137.4 77.3986 137.261 77.5373 137.176C77.6866 137.08 77.8466 137.032 78.0173 137.032C78.2626 137.032 78.4813 137.117 78.6733 137.288C78.876 137.448 78.9773 137.651 78.9773 137.896C78.9773 138.013 78.9453 138.136 78.8813 138.264L74.5133 147.416C74.332 147.779 74.0493 147.96 73.6653 147.96C73.42 147.96 73.2013 147.88 73.0093 147.72C72.828 147.571 72.7373 147.379 72.7373 147.144C72.7373 147.027 72.7693 146.893 72.8333 146.744L73.9213 144.456L70.9453 138.264C70.892 138.157 70.8653 138.035 70.8653 137.896C70.8653 137.651 70.9666 137.443 71.1693 137.272C71.3826 137.101 71.6226 137.016 71.8893 137.016C72.0706 137.016 72.236 137.064 72.3853 137.16C72.5346 137.245 72.652 137.384 72.7373 137.576L74.9773 142.52L77.2013 137.592ZM86.5032 137.016C86.8125 137.016 87.0579 137.101 87.2392 137.272C87.4205 137.443 87.5112 137.672 87.5112 137.96V144.168C87.5112 144.445 87.4152 144.669 87.2232 144.84C87.0419 145.011 86.8019 145.096 86.5032 145.096C86.2152 145.096 85.9859 145.016 85.8152 144.856C85.6445 144.696 85.5592 144.477 85.5592 144.2V143.8C85.3139 144.227 84.9832 144.557 84.5672 144.792C84.1512 145.016 83.6819 145.128 83.1592 145.128C81.2392 145.128 80.2792 144.051 80.2792 141.896V137.96C80.2792 137.672 80.3699 137.443 80.5512 137.272C80.7325 137.101 80.9725 137.016 81.2712 137.016C81.5805 137.016 81.8259 137.101 82.0072 137.272C82.1885 137.443 82.2792 137.672 82.2792 137.96V141.912C82.2792 142.467 82.3912 142.877 82.6152 143.144C82.8392 143.411 83.1912 143.544 83.6712 143.544C84.2259 143.544 84.6685 143.363 84.9992 143C85.3405 142.627 85.5112 142.136 85.5112 141.528V137.96C85.5112 137.672 85.6019 137.443 85.7832 137.272C85.9645 137.101 86.2045 137.016 86.5032 137.016ZM96.2808 133.64C96.5795 133.64 96.8248 133.725 97.0168 133.896C97.2088 134.067 97.3048 134.291 97.3048 134.568V144.136C97.3048 144.424 97.2141 144.653 97.0328 144.824C96.8515 144.995 96.6115 145.08 96.3128 145.08C96.0141 145.08 95.7741 144.995 95.5928 144.824C95.4115 144.653 95.3208 144.424 95.3208 144.136V143.736C95.0861 144.173 94.7448 144.515 94.2968 144.76C93.8595 145.005 93.3581 145.128 92.7928 145.128C92.1208 145.128 91.5181 144.957 90.9848 144.616C90.4621 144.275 90.0515 143.795 89.7528 143.176C89.4648 142.547 89.3208 141.827 89.3208 141.016C89.3208 140.205 89.4648 139.496 89.7528 138.888C90.0515 138.28 90.4621 137.811 90.9848 137.48C91.5075 137.149 92.1101 136.984 92.7928 136.984C93.3581 136.984 93.8595 137.101 94.2968 137.336C94.7341 137.571 95.0701 137.901 95.3048 138.328V134.536C95.3048 134.269 95.3901 134.056 95.5608 133.896C95.7421 133.725 95.9821 133.64 96.2808 133.64ZM93.3208 143.576C93.9608 143.576 94.4515 143.357 94.7928 142.92C95.1448 142.483 95.3208 141.859 95.3208 141.048C95.3208 140.237 95.1448 139.619 94.7928 139.192C94.4515 138.755 93.9661 138.536 93.3368 138.536C92.6968 138.536 92.2008 138.749 91.8488 139.176C91.4968 139.603 91.3208 140.216 91.3208 141.016C91.3208 141.827 91.4968 142.456 91.8488 142.904C92.2008 143.352 92.6915 143.576 93.3208 143.576ZM102.914 136.984C104.002 136.984 104.808 137.256 105.33 137.8C105.864 138.333 106.13 139.149 106.13 140.248V144.152C106.13 144.44 106.045 144.669 105.874 144.84C105.704 145 105.469 145.08 105.17 145.08C104.893 145.08 104.664 144.995 104.482 144.824C104.312 144.653 104.226 144.429 104.226 144.152V143.8C104.045 144.216 103.757 144.541 103.362 144.776C102.978 145.011 102.53 145.128 102.018 145.128C101.496 145.128 101.021 145.021 100.594 144.808C100.168 144.595 99.8315 144.301 99.5862 143.928C99.3409 143.555 99.2182 143.139 99.2182 142.68C99.2182 142.104 99.3622 141.651 99.6502 141.32C99.9489 140.989 100.429 140.749 101.09 140.6C101.752 140.451 102.664 140.376 103.826 140.376H104.226V140.008C104.226 139.485 104.114 139.107 103.89 138.872C103.666 138.627 103.304 138.504 102.802 138.504C102.493 138.504 102.178 138.552 101.858 138.648C101.538 138.733 101.16 138.861 100.722 139.032C100.445 139.171 100.242 139.24 100.114 139.24C99.9222 139.24 99.7622 139.171 99.6342 139.032C99.5169 138.893 99.4582 138.712 99.4582 138.488C99.4582 138.307 99.5009 138.152 99.5862 138.024C99.6822 137.885 99.8369 137.757 100.05 137.64C100.424 137.437 100.866 137.277 101.378 137.16C101.901 137.043 102.413 136.984 102.914 136.984ZM102.418 143.688C102.952 143.688 103.384 143.512 103.714 143.16C104.056 142.797 104.226 142.333 104.226 141.768V141.432H103.938C103.224 141.432 102.669 141.464 102.274 141.528C101.88 141.592 101.597 141.704 101.426 141.864C101.256 142.024 101.17 142.243 101.17 142.52C101.17 142.861 101.288 143.144 101.522 143.368C101.768 143.581 102.066 143.688 102.418 143.688ZM116.219 136.984C117.307 136.984 118.112 137.256 118.635 137.8C119.168 138.333 119.435 139.149 119.435 140.248V144.152C119.435 144.44 119.349 144.669 119.179 144.84C119.008 145 118.773 145.08 118.475 145.08C118.197 145.08 117.968 144.995 117.787 144.824C117.616 144.653 117.531 144.429 117.531 144.152V143.8C117.349 144.216 117.061 144.541 116.667 144.776C116.283 145.011 115.835 145.128 115.323 145.128C114.8 145.128 114.325 145.021 113.899 144.808C113.472 144.595 113.136 144.301 112.891 143.928C112.645 143.555 112.523 143.139 112.523 142.68C112.523 142.104 112.667 141.651 112.955 141.32C113.253 140.989 113.733 140.749 114.395 140.6C115.056 140.451 115.968 140.376 117.131 140.376H117.531V140.008C117.531 139.485 117.419 139.107 117.195 138.872C116.971 138.627 116.608 138.504 116.107 138.504C115.797 138.504 115.483 138.552 115.163 138.648C114.843 138.733 114.464 138.861 114.027 139.032C113.749 139.171 113.547 139.24 113.419 139.24C113.227 139.24 113.067 139.171 112.939 139.032C112.821 138.893 112.763 138.712 112.763 138.488C112.763 138.307 112.805 138.152 112.891 138.024C112.987 137.885 113.141 137.757 113.355 137.64C113.728 137.437 114.171 137.277 114.683 137.16C115.205 137.043 115.717 136.984 116.219 136.984ZM115.723 143.688C116.256 143.688 116.688 143.512 117.019 143.16C117.36 142.797 117.531 142.333 117.531 141.768V141.432H117.243C116.528 141.432 115.973 141.464 115.579 141.528C115.184 141.592 114.901 141.704 114.731 141.864C114.56 142.024 114.475 142.243 114.475 142.52C114.475 142.861 114.592 143.144 114.827 143.368C115.072 143.581 115.371 143.688 115.723 143.688ZM132.307 137.016C132.616 137.016 132.862 137.101 133.043 137.272C133.224 137.443 133.315 137.672 133.315 137.96V144.168C133.315 144.445 133.219 144.669 133.027 144.84C132.846 145.011 132.606 145.096 132.307 145.096C132.019 145.096 131.79 145.016 131.619 144.856C131.448 144.696 131.363 144.477 131.363 144.2V143.8C131.118 144.227 130.787 144.557 130.371 144.792C129.955 145.016 129.486 145.128 128.963 145.128C127.043 145.128 126.083 144.051 126.083 141.896V137.96C126.083 137.672 126.174 137.443 126.355 137.272C126.536 137.101 126.776 137.016 127.075 137.016C127.384 137.016 127.63 137.101 127.811 137.272C127.992 137.443 128.083 137.672 128.083 137.96V141.912C128.083 142.467 128.195 142.877 128.419 143.144C128.643 143.411 128.995 143.544 129.475 143.544C130.03 143.544 130.472 143.363 130.803 143C131.144 142.627 131.315 142.136 131.315 141.528V137.96C131.315 137.672 131.406 137.443 131.587 137.272C131.768 137.101 132.008 137.016 132.307 137.016ZM140.101 136.984C141.039 136.984 141.738 137.251 142.197 137.784C142.655 138.317 142.885 139.123 142.885 140.2V144.136C142.885 144.435 142.794 144.669 142.613 144.84C142.442 145.011 142.202 145.096 141.893 145.096C141.583 145.096 141.338 145.011 141.157 144.84C140.975 144.669 140.885 144.435 140.885 144.136V140.312C140.885 139.704 140.767 139.261 140.533 138.984C140.309 138.707 139.951 138.568 139.461 138.568C138.885 138.568 138.421 138.749 138.069 139.112C137.727 139.475 137.557 139.96 137.557 140.568V144.136C137.557 144.435 137.466 144.669 137.285 144.84C137.103 145.011 136.858 145.096 136.549 145.096C136.239 145.096 135.994 145.011 135.813 144.84C135.642 144.669 135.557 144.435 135.557 144.136V137.944C135.557 137.667 135.647 137.443 135.829 137.272C136.01 137.101 136.255 137.016 136.565 137.016C136.842 137.016 137.066 137.101 137.237 137.272C137.418 137.432 137.509 137.645 137.509 137.912V138.344C137.775 137.907 138.133 137.571 138.581 137.336C139.029 137.101 139.535 136.984 140.101 136.984ZM148.468 136.984C149.556 136.984 150.361 137.256 150.884 137.8C151.417 138.333 151.684 139.149 151.684 140.248V144.152C151.684 144.44 151.599 144.669 151.428 144.84C151.257 145 151.023 145.08 150.724 145.08C150.447 145.08 150.217 144.995 150.036 144.824C149.865 144.653 149.78 144.429 149.78 144.152V143.8C149.599 144.216 149.311 144.541 148.916 144.776C148.532 145.011 148.084 145.128 147.572 145.128C147.049 145.128 146.575 145.021 146.148 144.808C145.721 144.595 145.385 144.301 145.14 143.928C144.895 143.555 144.772 143.139 144.772 142.68C144.772 142.104 144.916 141.651 145.204 141.32C145.503 140.989 145.983 140.749 146.644 140.6C147.305 140.451 148.217 140.376 149.38 140.376H149.78V140.008C149.78 139.485 149.668 139.107 149.444 138.872C149.22 138.627 148.857 138.504 148.356 138.504C148.047 138.504 147.732 138.552 147.412 138.648C147.092 138.733 146.713 138.861 146.276 139.032C145.999 139.171 145.796 139.24 145.668 139.24C145.476 139.24 145.316 139.171 145.188 139.032C145.071 138.893 145.012 138.712 145.012 138.488C145.012 138.307 145.055 138.152 145.14 138.024C145.236 137.885 145.391 137.757 145.604 137.64C145.977 137.437 146.42 137.277 146.932 137.16C147.455 137.043 147.967 136.984 148.468 136.984ZM147.972 143.688C148.505 143.688 148.937 143.512 149.268 143.16C149.609 142.797 149.78 142.333 149.78 141.768V141.432H149.492C148.777 141.432 148.223 141.464 147.828 141.528C147.433 141.592 147.151 141.704 146.98 141.864C146.809 142.024 146.724 142.243 146.724 142.52C146.724 142.861 146.841 143.144 147.076 143.368C147.321 143.581 147.62 143.688 147.972 143.688ZM161.852 145.128C161.074 145.128 160.386 144.963 159.788 144.632C159.202 144.301 158.748 143.832 158.428 143.224C158.108 142.616 157.948 141.907 157.948 141.096C157.948 140.285 158.114 139.571 158.444 138.952C158.786 138.323 159.26 137.837 159.868 137.496C160.476 137.155 161.175 136.984 161.964 136.984C162.38 136.984 162.796 137.043 163.212 137.16C163.639 137.277 164.012 137.437 164.332 137.64C164.674 137.864 164.844 138.147 164.844 138.488C164.844 138.723 164.786 138.915 164.668 139.064C164.562 139.203 164.418 139.272 164.236 139.272C164.119 139.272 163.996 139.245 163.868 139.192C163.74 139.139 163.612 139.075 163.484 139C163.25 138.861 163.026 138.755 162.812 138.68C162.599 138.595 162.354 138.552 162.076 138.552C161.415 138.552 160.903 138.771 160.54 139.208C160.188 139.635 160.012 140.253 160.012 141.064C160.012 141.864 160.188 142.483 160.54 142.92C160.903 143.347 161.415 143.56 162.076 143.56C162.343 143.56 162.578 143.523 162.78 143.448C162.994 143.363 163.228 143.251 163.484 143.112C163.644 143.016 163.783 142.947 163.9 142.904C164.018 142.851 164.135 142.824 164.252 142.824C164.423 142.824 164.567 142.899 164.684 143.048C164.802 143.197 164.86 143.384 164.86 143.608C164.86 143.789 164.818 143.949 164.732 144.088C164.658 144.216 164.53 144.333 164.348 144.44C164.018 144.653 163.634 144.824 163.196 144.952C162.759 145.069 162.311 145.128 161.852 145.128ZM169.921 145.128C169.121 145.128 168.417 144.963 167.809 144.632C167.211 144.301 166.747 143.827 166.417 143.208C166.086 142.589 165.921 141.869 165.921 141.048C165.921 140.227 166.086 139.512 166.417 138.904C166.747 138.285 167.211 137.811 167.809 137.48C168.417 137.149 169.121 136.984 169.921 136.984C170.721 136.984 171.419 137.149 172.017 137.48C172.625 137.811 173.089 138.285 173.409 138.904C173.739 139.512 173.905 140.227 173.905 141.048C173.905 141.869 173.739 142.589 173.409 143.208C173.089 143.827 172.625 144.301 172.017 144.632C171.419 144.963 170.721 145.128 169.921 145.128ZM169.905 143.576C170.555 143.576 171.051 143.363 171.393 142.936C171.734 142.509 171.905 141.88 171.905 141.048C171.905 140.227 171.734 139.603 171.393 139.176C171.051 138.739 170.561 138.52 169.921 138.52C169.281 138.52 168.785 138.739 168.433 139.176C168.091 139.603 167.921 140.227 167.921 141.048C167.921 141.88 168.091 142.509 168.433 142.936C168.774 143.363 169.265 143.576 169.905 143.576ZM185.012 136.984C185.865 136.984 186.516 137.24 186.964 137.752C187.423 138.253 187.652 139.069 187.652 140.2V144.136C187.652 144.445 187.556 144.685 187.364 144.856C187.183 145.016 186.943 145.096 186.644 145.096C186.356 145.096 186.116 145.016 185.924 144.856C185.743 144.685 185.652 144.445 185.652 144.136V140.2C185.652 139.613 185.545 139.197 185.332 138.952C185.129 138.696 184.815 138.568 184.388 138.568C183.865 138.568 183.449 138.749 183.14 139.112C182.831 139.464 182.676 139.949 182.676 140.568V144.136C182.676 144.445 182.58 144.685 182.388 144.856C182.207 145.016 181.972 145.096 181.684 145.096C181.396 145.096 181.156 145.016 180.964 144.856C180.772 144.685 180.676 144.445 180.676 144.136V140.2C180.676 139.613 180.569 139.197 180.356 138.952C180.153 138.696 179.839 138.568 179.412 138.568C178.889 138.568 178.473 138.749 178.164 139.112C177.865 139.464 177.716 139.949 177.716 140.568V144.136C177.716 144.445 177.62 144.685 177.428 144.856C177.236 145.016 176.996 145.096 176.708 145.096C176.42 145.096 176.18 145.016 175.988 144.856C175.807 144.685 175.716 144.445 175.716 144.136V137.944C175.716 137.645 175.812 137.416 176.004 137.256C176.196 137.096 176.436 137.016 176.724 137.016C177.001 137.016 177.225 137.096 177.396 137.256C177.577 137.405 177.668 137.624 177.668 137.912V138.296C177.913 137.869 178.239 137.544 178.644 137.32C179.06 137.096 179.535 136.984 180.068 136.984C181.241 136.984 182.025 137.475 182.42 138.456C182.655 138.008 183.001 137.651 183.46 137.384C183.919 137.117 184.436 136.984 185.012 136.984ZM196.021 137.016C196.33 137.016 196.575 137.101 196.757 137.272C196.938 137.443 197.029 137.672 197.029 137.96V144.168C197.029 144.445 196.933 144.669 196.741 144.84C196.559 145.011 196.319 145.096 196.021 145.096C195.733 145.096 195.503 145.016 195.333 144.856C195.162 144.696 195.077 144.477 195.077 144.2V143.8C194.831 144.227 194.501 144.557 194.085 144.792C193.669 145.016 193.199 145.128 192.677 145.128C190.757 145.128 189.797 144.051 189.797 141.896V137.96C189.797 137.672 189.887 137.443 190.069 137.272C190.25 137.101 190.49 137.016 190.789 137.016C191.098 137.016 191.343 137.101 191.525 137.272C191.706 137.443 191.797 137.672 191.797 137.96V141.912C191.797 142.467 191.909 142.877 192.133 143.144C192.357 143.411 192.709 143.544 193.189 143.544C193.743 143.544 194.186 143.363 194.517 143C194.858 142.627 195.029 142.136 195.029 141.528V137.96C195.029 137.672 195.119 137.443 195.301 137.272C195.482 137.101 195.722 137.016 196.021 137.016ZM203.814 136.984C204.753 136.984 205.452 137.251 205.91 137.784C206.369 138.317 206.598 139.123 206.598 140.2V144.136C206.598 144.435 206.508 144.669 206.326 144.84C206.156 145.011 205.916 145.096 205.606 145.096C205.297 145.096 205.052 145.011 204.87 144.84C204.689 144.669 204.598 144.435 204.598 144.136V140.312C204.598 139.704 204.481 139.261 204.246 138.984C204.022 138.707 203.665 138.568 203.174 138.568C202.598 138.568 202.134 138.749 201.782 139.112C201.441 139.475 201.27 139.96 201.27 140.568V144.136C201.27 144.435 201.18 144.669 200.998 144.84C200.817 145.011 200.572 145.096 200.262 145.096C199.953 145.096 199.708 145.011 199.526 144.84C199.356 144.669 199.27 144.435 199.27 144.136V137.944C199.27 137.667 199.361 137.443 199.542 137.272C199.724 137.101 199.969 137.016 200.278 137.016C200.556 137.016 200.78 137.101 200.95 137.272C201.132 137.432 201.222 137.645 201.222 137.912V138.344C201.489 137.907 201.846 137.571 202.294 137.336C202.742 137.101 203.249 136.984 203.814 136.984ZM209.782 145.096C209.494 145.096 209.254 145.016 209.062 144.856C208.88 144.685 208.79 144.445 208.79 144.136V137.96C208.79 137.651 208.88 137.416 209.062 137.256C209.254 137.096 209.494 137.016 209.782 137.016C210.07 137.016 210.31 137.096 210.502 137.256C210.694 137.416 210.79 137.651 210.79 137.96V144.136C210.79 144.445 210.694 144.685 210.502 144.856C210.31 145.016 210.07 145.096 209.782 145.096ZM209.782 135.592C209.419 135.592 209.131 135.496 208.918 135.304C208.704 135.101 208.598 134.84 208.598 134.52C208.598 134.2 208.704 133.944 208.918 133.752C209.131 133.56 209.419 133.464 209.782 133.464C210.134 133.464 210.416 133.56 210.63 133.752C210.854 133.944 210.966 134.2 210.966 134.52C210.966 134.84 210.859 135.101 210.646 135.304C210.432 135.496 210.144 135.592 209.782 135.592ZM219.54 133.64C219.839 133.64 220.084 133.725 220.276 133.896C220.468 134.067 220.564 134.291 220.564 134.568V144.136C220.564 144.424 220.474 144.653 220.292 144.824C220.111 144.995 219.871 145.08 219.572 145.08C219.274 145.08 219.034 144.995 218.852 144.824C218.671 144.653 218.58 144.424 218.58 144.136V143.736C218.346 144.173 218.004 144.515 217.556 144.76C217.119 145.005 216.618 145.128 216.052 145.128C215.38 145.128 214.778 144.957 214.244 144.616C213.722 144.275 213.311 143.795 213.012 143.176C212.724 142.547 212.58 141.827 212.58 141.016C212.58 140.205 212.724 139.496 213.012 138.888C213.311 138.28 213.722 137.811 214.244 137.48C214.767 137.149 215.37 136.984 216.052 136.984C216.618 136.984 217.119 137.101 217.556 137.336C217.994 137.571 218.33 137.901 218.564 138.328V134.536C218.564 134.269 218.65 134.056 218.82 133.896C219.002 133.725 219.242 133.64 219.54 133.64ZM216.58 143.576C217.22 143.576 217.711 143.357 218.052 142.92C218.404 142.483 218.58 141.859 218.58 141.048C218.58 140.237 218.404 139.619 218.052 139.192C217.711 138.755 217.226 138.536 216.596 138.536C215.956 138.536 215.46 138.749 215.108 139.176C214.756 139.603 214.58 140.216 214.58 141.016C214.58 141.827 214.756 142.456 215.108 142.904C215.46 143.352 215.951 143.576 216.58 143.576ZM226.174 136.984C227.262 136.984 228.067 137.256 228.59 137.8C229.123 138.333 229.39 139.149 229.39 140.248V144.152C229.39 144.44 229.304 144.669 229.134 144.84C228.963 145 228.728 145.08 228.43 145.08C228.152 145.08 227.923 144.995 227.742 144.824C227.571 144.653 227.486 144.429 227.486 144.152V143.8C227.304 144.216 227.016 144.541 226.622 144.776C226.238 145.011 225.79 145.128 225.278 145.128C224.755 145.128 224.28 145.021 223.854 144.808C223.427 144.595 223.091 144.301 222.846 143.928C222.6 143.555 222.478 143.139 222.478 142.68C222.478 142.104 222.622 141.651 222.91 141.32C223.208 140.989 223.688 140.749 224.35 140.6C225.011 140.451 225.923 140.376 227.086 140.376H227.486V140.008C227.486 139.485 227.374 139.107 227.15 138.872C226.926 138.627 226.563 138.504 226.062 138.504C225.752 138.504 225.438 138.552 225.118 138.648C224.798 138.733 224.419 138.861 223.982 139.032C223.704 139.171 223.502 139.24 223.374 139.24C223.182 139.24 223.022 139.171 222.894 139.032C222.776 138.893 222.718 138.712 222.718 138.488C222.718 138.307 222.76 138.152 222.846 138.024C222.942 137.885 223.096 137.757 223.31 137.64C223.683 137.437 224.126 137.277 224.638 137.16C225.16 137.043 225.672 136.984 226.174 136.984ZM225.678 143.688C226.211 143.688 226.643 143.512 226.974 143.16C227.315 142.797 227.486 142.333 227.486 141.768V141.432H227.198C226.483 141.432 225.928 141.464 225.534 141.528C225.139 141.592 224.856 141.704 224.686 141.864C224.515 142.024 224.43 142.243 224.43 142.52C224.43 142.861 224.547 143.144 224.782 143.368C225.027 143.581 225.326 143.688 225.678 143.688ZM238.11 133.64C238.409 133.64 238.654 133.725 238.846 133.896C239.038 134.067 239.134 134.291 239.134 134.568V144.136C239.134 144.424 239.044 144.653 238.862 144.824C238.681 144.995 238.441 145.08 238.142 145.08C237.844 145.08 237.604 144.995 237.422 144.824C237.241 144.653 237.15 144.424 237.15 144.136V143.736C236.916 144.173 236.574 144.515 236.126 144.76C235.689 145.005 235.188 145.128 234.622 145.128C233.95 145.128 233.348 144.957 232.814 144.616C232.292 144.275 231.881 143.795 231.582 143.176C231.294 142.547 231.15 141.827 231.15 141.016C231.15 140.205 231.294 139.496 231.582 138.888C231.881 138.28 232.292 137.811 232.814 137.48C233.337 137.149 233.94 136.984 234.622 136.984C235.188 136.984 235.689 137.101 236.126 137.336C236.564 137.571 236.9 137.901 237.134 138.328V134.536C237.134 134.269 237.22 134.056 237.39 133.896C237.572 133.725 237.812 133.64 238.11 133.64ZM235.15 143.576C235.79 143.576 236.281 143.357 236.622 142.92C236.974 142.483 237.15 141.859 237.15 141.048C237.15 140.237 236.974 139.619 236.622 139.192C236.281 138.755 235.796 138.536 235.166 138.536C234.526 138.536 234.03 138.749 233.678 139.176C233.326 139.603 233.15 140.216 233.15 141.016C233.15 141.827 233.326 142.456 233.678 142.904C234.03 143.352 234.521 143.576 235.15 143.576ZM252.047 142.856C252.229 142.856 252.373 142.925 252.479 143.064C252.597 143.203 252.655 143.389 252.655 143.624C252.655 143.955 252.458 144.232 252.063 144.456C251.701 144.659 251.29 144.824 250.831 144.952C250.373 145.069 249.935 145.128 249.519 145.128C248.261 145.128 247.263 144.765 246.527 144.04C245.791 143.315 245.423 142.323 245.423 141.064C245.423 140.264 245.583 139.555 245.903 138.936C246.223 138.317 246.671 137.837 247.247 137.496C247.834 137.155 248.495 136.984 249.231 136.984C249.935 136.984 250.549 137.139 251.071 137.448C251.594 137.757 251.999 138.195 252.287 138.76C252.575 139.325 252.719 139.992 252.719 140.76C252.719 141.219 252.517 141.448 252.111 141.448H247.391C247.455 142.184 247.663 142.728 248.015 143.08C248.367 143.421 248.879 143.592 249.551 143.592C249.893 143.592 250.191 143.549 250.447 143.464C250.714 143.379 251.013 143.261 251.343 143.112C251.663 142.941 251.898 142.856 252.047 142.856ZM249.279 138.392C248.735 138.392 248.298 138.563 247.967 138.904C247.647 139.245 247.455 139.736 247.391 140.376H251.007C250.986 139.725 250.826 139.235 250.527 138.904C250.229 138.563 249.813 138.392 249.279 138.392ZM259.059 136.984C259.998 136.984 260.697 137.251 261.155 137.784C261.614 138.317 261.843 139.123 261.843 140.2V144.136C261.843 144.435 261.753 144.669 261.571 144.84C261.401 145.011 261.161 145.096 260.851 145.096C260.542 145.096 260.297 145.011 260.115 144.84C259.934 144.669 259.843 144.435 259.843 144.136V140.312C259.843 139.704 259.726 139.261 259.491 138.984C259.267 138.707 258.91 138.568 258.419 138.568C257.843 138.568 257.379 138.749 257.027 139.112C256.686 139.475 256.515 139.96 256.515 140.568V144.136C256.515 144.435 256.425 144.669 256.243 144.84C256.062 145.011 255.817 145.096 255.507 145.096C255.198 145.096 254.953 145.011 254.771 144.84C254.601 144.669 254.515 144.435 254.515 144.136V137.944C254.515 137.667 254.606 137.443 254.787 137.272C254.969 137.101 255.214 137.016 255.523 137.016C255.801 137.016 256.025 137.101 256.195 137.272C256.377 137.432 256.467 137.645 256.467 137.912V138.344C256.734 137.907 257.091 137.571 257.539 137.336C257.987 137.101 258.494 136.984 259.059 136.984ZM272.01 145.128C271.232 145.128 270.544 144.963 269.946 144.632C269.36 144.301 268.906 143.832 268.586 143.224C268.266 142.616 268.106 141.907 268.106 141.096C268.106 140.285 268.272 139.571 268.602 138.952C268.944 138.323 269.418 137.837 270.026 137.496C270.634 137.155 271.333 136.984 272.122 136.984C272.538 136.984 272.954 137.043 273.37 137.16C273.797 137.277 274.17 137.437 274.49 137.64C274.832 137.864 275.002 138.147 275.002 138.488C275.002 138.723 274.944 138.915 274.826 139.064C274.72 139.203 274.576 139.272 274.394 139.272C274.277 139.272 274.154 139.245 274.026 139.192C273.898 139.139 273.77 139.075 273.642 139C273.408 138.861 273.184 138.755 272.97 138.68C272.757 138.595 272.512 138.552 272.234 138.552C271.573 138.552 271.061 138.771 270.698 139.208C270.346 139.635 270.17 140.253 270.17 141.064C270.17 141.864 270.346 142.483 270.698 142.92C271.061 143.347 271.573 143.56 272.234 143.56C272.501 143.56 272.736 143.523 272.938 143.448C273.152 143.363 273.386 143.251 273.642 143.112C273.802 143.016 273.941 142.947 274.058 142.904C274.176 142.851 274.293 142.824 274.41 142.824C274.581 142.824 274.725 142.899 274.842 143.048C274.96 143.197 275.018 143.384 275.018 143.608C275.018 143.789 274.976 143.949 274.89 144.088C274.816 144.216 274.688 144.333 274.506 144.44C274.176 144.653 273.792 144.824 273.354 144.952C272.917 145.069 272.469 145.128 272.01 145.128ZM280.879 137.016C281.156 136.995 281.375 137.053 281.535 137.192C281.695 137.331 281.775 137.539 281.775 137.816C281.775 138.104 281.706 138.317 281.567 138.456C281.428 138.595 281.178 138.685 280.815 138.728L280.335 138.776C279.706 138.84 279.242 139.053 278.943 139.416C278.655 139.779 278.511 140.232 278.511 140.776V144.136C278.511 144.445 278.415 144.685 278.223 144.856C278.031 145.016 277.791 145.096 277.503 145.096C277.215 145.096 276.975 145.016 276.783 144.856C276.602 144.685 276.511 144.445 276.511 144.136V137.944C276.511 137.645 276.602 137.416 276.783 137.256C276.975 137.096 277.21 137.016 277.487 137.016C277.764 137.016 277.988 137.096 278.159 137.256C278.33 137.405 278.415 137.624 278.415 137.912V138.552C278.618 138.083 278.916 137.72 279.311 137.464C279.716 137.208 280.164 137.064 280.655 137.032L280.879 137.016ZM283.788 145.096C283.5 145.096 283.26 145.016 283.068 144.856C282.887 144.685 282.796 144.445 282.796 144.136V137.96C282.796 137.651 282.887 137.416 283.068 137.256C283.26 137.096 283.5 137.016 283.788 137.016C284.076 137.016 284.316 137.096 284.508 137.256C284.7 137.416 284.796 137.651 284.796 137.96V144.136C284.796 144.445 284.7 144.685 284.508 144.856C284.316 145.016 284.076 145.096 283.788 145.096ZM283.788 135.592C283.425 135.592 283.137 135.496 282.924 135.304C282.711 135.101 282.604 134.84 282.604 134.52C282.604 134.2 282.711 133.944 282.924 133.752C283.137 133.56 283.425 133.464 283.788 133.464C284.14 133.464 284.423 133.56 284.636 133.752C284.86 133.944 284.972 134.2 284.972 134.52C284.972 134.84 284.865 135.101 284.652 135.304C284.439 135.496 284.151 135.592 283.788 135.592ZM289.85 145.128C288.688 145.128 287.749 144.899 287.034 144.44C286.693 144.237 286.522 143.949 286.522 143.576C286.522 143.363 286.581 143.192 286.698 143.064C286.816 142.925 286.96 142.856 287.13 142.856C287.312 142.856 287.562 142.941 287.882 143.112C288.224 143.272 288.533 143.395 288.81 143.48C289.098 143.565 289.461 143.608 289.898 143.608C290.346 143.608 290.693 143.533 290.938 143.384C291.194 143.235 291.322 143.027 291.322 142.76C291.322 142.579 291.269 142.435 291.162 142.328C291.066 142.221 290.885 142.125 290.618 142.04C290.362 141.944 289.968 141.837 289.434 141.72C288.485 141.528 287.802 141.256 287.386 140.904C286.981 140.552 286.778 140.067 286.778 139.448C286.778 138.979 286.917 138.557 287.194 138.184C287.472 137.8 287.85 137.507 288.33 137.304C288.821 137.091 289.376 136.984 289.994 136.984C290.442 136.984 290.874 137.043 291.29 137.16C291.706 137.267 292.08 137.427 292.41 137.64C292.752 137.853 292.922 138.136 292.922 138.488C292.922 138.701 292.864 138.883 292.746 139.032C292.629 139.171 292.485 139.24 292.314 139.24C292.197 139.24 292.08 139.219 291.962 139.176C291.856 139.123 291.717 139.048 291.546 138.952C291.237 138.792 290.97 138.675 290.746 138.6C290.522 138.515 290.245 138.472 289.914 138.472C289.52 138.472 289.205 138.552 288.97 138.712C288.746 138.872 288.634 139.091 288.634 139.368C288.634 139.635 288.752 139.837 288.986 139.976C289.221 140.115 289.674 140.253 290.346 140.392C291.061 140.541 291.621 140.712 292.026 140.904C292.432 141.096 292.72 141.336 292.89 141.624C293.072 141.912 293.162 142.28 293.162 142.728C293.162 143.453 292.858 144.035 292.25 144.472C291.653 144.909 290.853 145.128 289.85 145.128ZM295.936 145.096C295.648 145.096 295.408 145.016 295.216 144.856C295.035 144.685 294.944 144.445 294.944 144.136V137.96C294.944 137.651 295.035 137.416 295.216 137.256C295.408 137.096 295.648 137.016 295.936 137.016C296.224 137.016 296.464 137.096 296.656 137.256C296.848 137.416 296.944 137.651 296.944 137.96V144.136C296.944 144.445 296.848 144.685 296.656 144.856C296.464 145.016 296.224 145.096 295.936 145.096ZM295.936 135.592C295.573 135.592 295.285 135.496 295.072 135.304C294.859 135.101 294.752 134.84 294.752 134.52C294.752 134.2 294.859 133.944 295.072 133.752C295.285 133.56 295.573 133.464 295.936 133.464C296.288 133.464 296.571 133.56 296.784 133.752C297.008 133.944 297.12 134.2 297.12 134.52C297.12 134.84 297.013 135.101 296.8 135.304C296.587 135.496 296.299 135.592 295.936 135.592ZM301.999 145.128C300.836 145.128 299.897 144.899 299.183 144.44C298.841 144.237 298.671 143.949 298.671 143.576C298.671 143.363 298.729 143.192 298.847 143.064C298.964 142.925 299.108 142.856 299.279 142.856C299.46 142.856 299.711 142.941 300.031 143.112C300.372 143.272 300.681 143.395 300.959 143.48C301.247 143.565 301.609 143.608 302.047 143.608C302.495 143.608 302.841 143.533 303.087 143.384C303.343 143.235 303.471 143.027 303.471 142.76C303.471 142.579 303.417 142.435 303.311 142.328C303.215 142.221 303.033 142.125 302.767 142.04C302.511 141.944 302.116 141.837 301.583 141.72C300.633 141.528 299.951 141.256 299.535 140.904C299.129 140.552 298.927 140.067 298.927 139.448C298.927 138.979 299.065 138.557 299.343 138.184C299.62 137.8 299.999 137.507 300.479 137.304C300.969 137.091 301.524 136.984 302.143 136.984C302.591 136.984 303.023 137.043 303.439 137.16C303.855 137.267 304.228 137.427 304.559 137.64C304.9 137.853 305.071 138.136 305.071 138.488C305.071 138.701 305.012 138.883 304.895 139.032C304.777 139.171 304.633 139.24 304.463 139.24C304.345 139.24 304.228 139.219 304.111 139.176C304.004 139.123 303.865 139.048 303.695 138.952C303.385 138.792 303.119 138.675 302.895 138.6C302.671 138.515 302.393 138.472 302.063 138.472C301.668 138.472 301.353 138.552 301.119 138.712C300.895 138.872 300.783 139.091 300.783 139.368C300.783 139.635 300.9 139.837 301.135 139.976C301.369 140.115 301.823 140.253 302.495 140.392C303.209 140.541 303.769 140.712 304.175 140.904C304.58 141.096 304.868 141.336 305.039 141.624C305.22 141.912 305.311 142.28 305.311 142.728C305.311 143.453 305.007 144.035 304.399 144.472C303.801 144.909 303.001 145.128 301.999 145.128Z" fill="#204161"/>
<path fill-rule="evenodd" clip-rule="evenodd" d="M154.387 79.0236C161.664 84.119 162.91 83.1494 163.119 88.9483L170.729 92.3665L178.249 88.9483L178.178 82.7929C178.126 78.7005 178.492 73.3055 175.763 70.0163L169.237 62.1498C165.434 58.8796 160.433 63.0528 164.146 67.269C165.557 68.8708 166.085 69.5458 167.364 70.9243C169.27 72.8874 166.845 76.1006 164.241 74.1612L157.049 67.7395C155.727 66.3944 154.486 65.5008 153.607 63.8276L148.711 54.516C146.724 50.4473 141.719 53.0615 143.306 56.7737L150.874 74.4462C151.863 76.7611 153.388 78.2678 154.387 79.0236Z" fill="#D1B7A1"/>
<path fill-rule="evenodd" clip-rule="evenodd" d="M190.48 70.0161C187.752 73.3053 188.118 78.7002 188.065 82.7927L187.994 88.9481L196.307 90.7385L203.125 88.9481C203.334 83.1492 204.584 84.1188 211.857 79.0233C212.855 78.2676 214.381 76.7609 215.374 74.446L222.937 56.7735C224.53 53.0612 219.519 50.447 217.532 54.5157L212.641 63.8273C211.762 65.5004 210.516 66.394 209.195 67.7393L202.003 74.161C199.398 76.1003 196.974 72.8872 198.88 70.924C200.158 69.5455 200.686 68.8707 202.098 67.2687C205.81 63.0526 200.814 58.8794 197.007 62.1495L190.48 70.0161Z" fill="#D1B7A1"/>
<path fill-rule="evenodd" clip-rule="evenodd" d="M161.208 95.2416C161.208 96.1209 161.925 96.8387 162.805 96.8387H178.648C179.532 96.8387 180.25 96.1209 180.25 95.2416V90.5502C180.25 89.6709 179.532 88.9484 178.648 88.9484H178.249H163.119H162.805C161.926 88.9484 161.208 89.6709 161.208 90.5502V95.2416H161.208Z" fill="#F2CD4D"/>
<path fill-rule="evenodd" clip-rule="evenodd" d="M185.993 90.5502V95.2416C185.993 96.1209 186.716 96.8387 187.595 96.8387H203.438C204.318 96.8387 205.036 96.1209 205.036 95.2416V90.5502C205.036 89.6709 204.318 88.9484 203.438 88.9484H203.125H187.994H187.595C186.716 88.9484 185.993 89.6709 185.993 90.5502Z" fill="#F2CD4D"/>
<path fill-rule="evenodd" clip-rule="evenodd" d="M164.649 62.6058L171.176 70.4676C173.909 73.7615 173.543 79.1518 173.591 83.2489L173.662 88.9481H178.249L178.178 82.7927C178.126 78.7002 178.492 73.3053 175.763 70.0161L169.237 62.1495C167.288 60.4717 165.025 60.752 163.78 61.9926C164.074 62.1543 164.364 62.3585 164.649 62.6058Z" fill="#A88B73"/>
<path fill-rule="evenodd" clip-rule="evenodd" d="M200.196 87.8312L200.172 88.9483H203.124C203.334 83.1779 204.569 84.1096 211.738 79.1092C211.776 79.0807 211.819 79.0522 211.857 79.0236C212.855 78.2678 214.381 76.7611 215.374 74.4462L222.937 56.7737C224.068 54.1309 221.853 52.0443 219.771 52.5291C220.342 53.3182 220.565 54.4351 220.014 55.6566L212.166 73.0487C209.832 78.225 200.572 77.5121 200.196 87.8312Z" fill="#A88B73"/>
<path fill-rule="evenodd" clip-rule="evenodd" d="M175.131 90.5502V95.2416C175.131 96.1209 174.413 96.8387 173.529 96.8387H178.649C179.533 96.8387 180.25 96.1209 180.25 95.2416V90.5502C180.25 89.6709 179.533 88.9484 178.649 88.9484H178.249H173.662H173.529C174.413 88.9484 175.131 89.6709 175.131 90.5502Z" fill="#D2AF36"/>
<path fill-rule="evenodd" clip-rule="evenodd" d="M199.916 90.5502V95.2416C199.916 96.1209 199.198 96.8387 198.318 96.8387H203.438C204.317 96.8387 205.035 96.1209 205.035 95.2416V90.5502C205.035 89.6709 204.317 88.9484 203.438 88.9484H203.124H200.172H198.318C199.198 88.9484 199.916 89.6709 199.916 90.5502Z" fill="#D2AF36"/>
<path fill-rule="evenodd" clip-rule="evenodd" d="M154.455 33.7824L157.589 36.8868L180.581 59.6799C181.567 60.4633 182.066 60.8869 182.56 60.9044C183.053 60.8869 183.552 60.4635 184.539 59.6799L207.53 36.8868L210.664 33.7824C218.394 25.7804 218.394 12.6778 210.664 4.67563C203.648 -2.60105 192.303 -0.778899 184.805 5.98134C183.418 7.22903 182.931 7.84979 182.56 7.84403C182.188 7.84979 181.701 7.22903 180.314 5.98134C172.816 -0.778899 161.471 -2.60105 154.455 4.67563C146.725 12.6778 146.725 25.7804 154.455 33.7824Z" fill="#F44B53"/>
<path fill-rule="evenodd" clip-rule="evenodd" d="M200.851 4.85549C208.58 12.8575 208.58 25.9601 200.851 33.9622L197.717 37.0726L177.743 56.8659L180.581 59.6802C181.567 60.4635 182.066 60.8871 182.559 60.9046C183.053 60.8871 183.552 60.4637 184.538 59.6802L207.53 36.887L210.664 33.7826C218.394 25.7806 218.394 12.678 210.664 4.67586C206.184 0.0336461 199.946 -0.906441 194.073 0.782179C196.55 1.47825 198.872 2.80701 200.851 4.85549Z" fill="#E41E2B"/>
</svg>
