<svg xmlns="http://www.w3.org/2000/svg" viewBox="0 0 136.35 124.36"><defs><style>.cls-1{fill:none;stroke:#204161;stroke-linecap:round;stroke-linejoin:round;stroke-width:1.5px;}.cls-2{fill:#3d7dd8;}.cls-3{fill:#3f8c60;}.cls-4{fill:#e5384c;}</style></defs><title>Recurso 1</title><g id="Capa_2" data-name="Capa 2"><g id="Capa_1-2" data-name="Capa 1"><polygon class="cls-1" points="25.54 17.66 8.83 72.31 66.18 115.53 103.05 90.94 127.52 48.98 101.12 8.83 69.62 30.22 25.54 17.66"/><polyline class="cls-1" points="25.54 17.66 52.37 63.65 8.83 72.31"/><polyline class="cls-1" points="101.12 8.83 88.44 43.2 52.37 63.65 66.18 115.53"/><line class="cls-1" x1="103.05" y1="90.94" x2="52.37" y2="63.65"/><line class="cls-1" x1="127.51" y1="48.98" x2="88.44" y2="43.2"/><circle class="cls-2" cx="8.83" cy="72.31" r="8.83"/><circle class="cls-3" cx="25.54" cy="17.67" r="8.83"/><circle class="cls-4" cx="52.37" cy="63.65" r="8.83"/><circle class="cls-2" cx="66.18" cy="115.53" r="8.83"/><circle class="cls-4" cx="103.05" cy="90.94" r="8.83"/><circle class="cls-2" cx="88.44" cy="43.2" r="8.83"/><circle class="cls-4" cx="101.12" cy="8.83" r="8.83"/><circle class="cls-3" cx="127.51" cy="48.98" r="8.83"/></g></g></svg>